<svg xmlns="http://www.w3.org/2000/svg" viewBox="0 0 200 200"><defs><style>.cls-1{fill:#11426d;}.cls-2{fill:#11589a;}.cls-3{fill:#2373ba;}.cls-4{fill:#4e96d1;}</style></defs><g id="Layer_4" data-name="Layer 4"><polygon class="cls-1" points="24.41 69.98 24.41 52.54 41.85 33.53 41.85 57.27 24.41 69.98"/><polygon class="cls-2" points="41.85 33.53 75.93 15.63 75.93 47.37 41.85 57.27 41.85 33.53"/><rect class="cls-3" x="75.93" y="15.63" width="48.14" height="31.74"/><polygon class="cls-3" points="175.59 69.98 175.59 52.54 158.15 33.53 158.15 57.27 175.59 69.98"/><polygon class="cls-4" points="158.15 33.53 124.07 15.63 124.07 47.37 158.15 57.27 158.15 33.53"/><polygon class="cls-1" points="24.41 130.02 24.41 147.46 41.85 166.47 41.85 142.73 24.41 130.02"/><polygon class="cls-2" points="41.85 166.47 75.93 184.37 75.93 152.63 41.85 142.73 41.85 166.47"/><rect class="cls-3" x="75.93" y="152.63" width="48.14" height="31.74"/><polygon class="cls-3" points="175.59 130.02 175.59 147.46 158.15 166.47 158.15 142.73 175.59 130.02"/><polygon class="cls-4" points="158.15 166.47 124.07 184.37 124.07 152.63 158.15 142.73 158.15 166.47"/><rect class="cls-3" x="75.93" y="60.59" width="48.14" height="32.89"/><polygon class="cls-1" points="24.41 78.74 41.85 68.4 41.85 94.26 24.41 95.92 24.41 78.74"/><polygon class="cls-2" points="41.85 68.4 75.93 60.59 75.93 93.48 41.85 94.26 41.85 68.4"/><polygon class="cls-3" points="175.59 78.74 158.15 68.4 158.15 94.26 175.59 95.92 175.59 78.74"/><polygon class="cls-4" points="158.15 68.4 124.07 60.59 124.07 93.48 158.15 94.26 158.15 68.4"/><rect class="cls-3" x="75.93" y="60.59" width="48.14" height="32.89"/><polygon class="cls-1" points="24.41 121.17 41.85 131.51 41.85 105.65 24.41 103.99 24.41 121.17"/><polygon class="cls-2" points="41.85 131.51 75.93 139.31 75.93 106.43 41.85 105.65 41.85 131.51"/><polygon class="cls-3" points="175.59 121.17 158.15 131.51 158.15 105.65 175.59 103.99 175.59 121.17"/><polygon class="cls-4" points="158.15 131.51 124.07 139.31 124.07 106.43 158.15 105.65 158.15 131.51"/><rect class="cls-3" x="75.93" y="106.43" width="48.14" height="32.89"/><polygon class="cls-1" points="24.41 69.98 30.08 70.36 30.08 75.38 41.85 68.4 75.93 60.59 124.07 60.59 158.15 68.4 170.11 75.49 170.11 71.28 175.59 69.86 158.15 57.15 124.07 47.25 75.93 47.37 41.85 57.27 24.41 69.98"/><polygon class="cls-1" points="24.41 130.02 30.08 129.47 30.08 124.45 41.85 131.43 75.93 139.24 124.07 139.24 158.15 131.43 170.11 124.34 170.11 128.55 175.59 129.97 158.15 142.69 124.07 152.58 75.93 152.63 41.85 142.73 24.41 130.02"/><polygon class="cls-1" points="30.14 95.37 30.14 104.53 41.85 105.65 75.93 106.43 124.07 106.43 158.15 105.65 170.06 104.52 170.06 95.39 158.15 94.26 124.07 93.48 75.93 93.48 41.85 94.26 30.14 95.37"/></g></svg>