<svg xmlns="http://www.w3.org/2000/svg" viewBox="0 0 200 200"><defs><style>.cls-1{fill:#86682d;}.cls-2{fill:#d7a64b;}.cls-3{fill:#fad694;}.cls-4{fill:#624a20;}</style></defs><g id="API_Gateway" data-name="API Gateway"><g id="Bottom_Left" data-name="Bottom Left"><polygon class="cls-1" points="29.79 110.65 29.79 150.18 49.54 160.09 49.54 112.56 29.79 110.65"/><polygon class="cls-2" points="78.95 151.94 49.54 160.09 49.54 112.56 78.9 110.95 78.95 151.94"/><polygon class="cls-3" points="29.79 110.65 63.72 109.14 78.9 110.12 78.9 110.95 49.54 112.56 29.79 110.65"/></g><g id="Top_Left" data-name="Top Left"><polygon class="cls-1" points="29.79 90.05 29.79 50.52 49.54 40.61 49.54 88.14 29.79 90.05"/><polygon class="cls-2" points="78.95 48.76 49.54 40.61 49.54 88.14 78.9 89.75 78.95 48.76"/><polygon class="cls-4" points="29.79 90.05 63.72 91.56 78.9 90.58 78.9 89.75 49.54 88.14 29.79 90.05"/></g><g id="Top_Right" data-name="Top Right"><polygon class="cls-2" points="170.21 90.05 170.21 50.52 150.46 40.61 150.46 88.14 170.21 90.05"/><polygon class="cls-1" points="121.05 48.76 150.46 40.61 150.46 88.14 121.1 89.75 121.05 48.76"/><polygon class="cls-4" points="170.21 90.05 136.28 91.56 121.1 90.58 121.1 89.75 150.46 88.14 170.21 90.05"/></g><g id="Bottom_Right" data-name="Bottom Right"><polygon class="cls-2" points="170.21 110.65 170.21 150.18 150.46 160.09 150.46 112.56 170.21 110.65"/><polygon class="cls-1" points="121.05 151.94 150.46 160.09 150.46 112.56 121.1 110.95 121.05 151.94"/><polygon class="cls-3" points="170.21 110.65 136.28 109.14 121.1 110.12 121.1 110.95 150.46 112.56 170.21 110.65"/></g><g id="Center"><polygon class="cls-1" points="99.98 15.37 78.95 26.16 78.95 51.72 60.62 57.68 60.62 77.23 78.9 74.15 78.9 126.89 60.62 123.61 60.62 143.07 78.9 149.18 78.9 174 99.98 184.51 99.98 15.37"/><polygon class="cls-2" points="99.98 15.49 121 26.28 121 51.84 139.33 57.81 139.33 77.36 121.05 74.28 121.05 127.01 139.33 123.74 139.33 143.19 121.05 149.3 121.05 174.13 99.98 184.63 99.98 15.49"/><polygon class="cls-4" points="60.62 77.23 78.9 79.17 78.9 74.15 60.62 77.23"/><polygon class="cls-3" points="60.62 123.61 78.9 121.52 78.9 126.89 60.62 123.61"/><polygon class="cls-4" points="139.33 77.23 121.05 79.17 121.05 74.15 139.33 77.23"/><polygon class="cls-3" points="139.33 123.61 121.05 121.52 121.05 126.89 139.33 123.61"/></g></g></svg>