<svg id="Blog" xmlns="http://www.w3.org/2000/svg" viewBox="0 0 292.48 348.83"><defs><style>.cls-1{font-size:16px;font-family:Helvetica;}.cls-2,.cls-4,.cls-5{fill:none;}.cls-2,.cls-4,.cls-5,.cls-6{stroke:#000;stroke-miterlimit:10;}.cls-3{letter-spacing:-0.02em;}.cls-4,.cls-6{stroke-linecap:square;}.cls-5{stroke-linecap:round;}.cls-6{fill:#fff;}</style></defs><text class="cls-1" transform="translate(23.93 129.31)">User</text><rect class="cls-2" x="18.67" y="108.75" width="44.31" height="30"/><text class="cls-1" transform="translate(120.06 220.74)">Comment</text><rect class="cls-2" x="116.71" y="200.18" width="76.05" height="30"/><text class="cls-1" transform="translate(245.48 130.97)">Like</text><rect class="cls-2" x="243.14" y="110.41" width="34.05" height="30"/><rect class="cls-2" x="786.21" y="63.04" width="56.73" height="56.73" transform="translate(-599.81 552.18) rotate(-45)"/><text class="cls-1" transform="translate(13.7 44.72)">Follows</text><rect class="cls-2" x="906.14" y="153.64" width="44.71" height="44.71" transform="translate(-626.26 657.51) rotate(-45)"/><text class="cls-1" transform="translate(140.51 129.31)">Has</text><rect class="cls-2" x="786.21" y="237.4" width="56.73" height="56.73" transform="translate(-723.1 603.25) rotate(-45)"/><text class="cls-1" transform="translate(18.3 219.08)"><tspan class="cls-3">W</tspan><tspan x="14.82" y="0">rites</tspan></text><text class="cls-1" transform="translate(125.84 46.36)">Projects</text><rect class="cls-2" x="122.75" y="25.81" width="63.97" height="30"/><line class="cls-4" x1="40.82" y1="97.2" x2="40.82" y2="108.22"/><line class="cls-4" x1="40.82" y1="81.21" x2="40.82" y2="92.17"/><line class="cls-5" x1="46.07" y1="108.22" x2="40.82" y2="97.7"/><line class="cls-5" x1="40.82" y1="97.7" x2="35.56" y2="108.22"/><circle class="cls-4" cx="40.82" cy="94.58" r="2.62"/><line class="cls-6" x1="40.82" y1="175.37" x2="40.82" y2="139.59"/><line class="cls-2" x1="46.07" y1="149.16" x2="35.56" y2="149.16"/><line class="cls-4" x1="111.74" y1="40.82" x2="122.75" y2="40.82"/><line class="cls-4" x1="81.57" y1="40.82" x2="106.35" y2="40.82"/><line class="cls-5" x1="122.75" y1="35.56" x2="112.24" y2="40.82"/><line class="cls-5" x1="112.24" y1="40.82" x2="122.75" y2="46.08"/><circle class="cls-4" cx="109.11" cy="40.82" r="2.62"/><line class="cls-4" x1="232.12" y1="125.41" x2="243.14" y2="125.41"/><line class="cls-4" x1="186.76" y1="125.41" x2="226.23" y2="125.41"/><line class="cls-5" x1="243.14" y1="120.15" x2="232.62" y2="125.41"/><line class="cls-5" x1="232.62" y1="125.41" x2="243.14" y2="130.67"/><circle class="cls-4" cx="229.5" cy="125.41" r="2.62"/><line class="cls-6" x1="154.74" y1="157.55" x2="154.74" y2="199.96"/><line class="cls-2" x1="159.99" y1="190.66" x2="149.48" y2="190.66"/><line class="cls-4" x1="105.7" y1="215.18" x2="116.71" y2="215.18"/><line class="cls-4" x1="80.93" y1="215.18" x2="100.45" y2="215.18"/><line class="cls-5" x1="116.71" y1="209.93" x2="106.2" y2="215.18"/><line class="cls-5" x1="106.2" y1="215.18" x2="116.71" y2="220.44"/><circle class="cls-4" cx="103.07" cy="215.18" r="2.62"/><line class="cls-4" x1="173.75" y1="241.32" x2="173.75" y2="230.3"/><line class="cls-4" x1="173.75" y1="267.9" x2="173.75" y2="247.14"/><line class="cls-5" x1="168.49" y1="230.3" x2="173.75" y2="240.82"/><line class="cls-5" x1="173.75" y1="240.82" x2="179.01" y2="230.3"/><circle class="cls-4" cx="173.75" cy="243.94" r="2.62"/><text class="cls-1" transform="translate(244.15 311.91)">Post</text><rect class="cls-2" x="239.36" y="291.35" width="41.6" height="30"/><rect class="cls-2" x="1011.56" y="243.41" width="44.71" height="44.71" transform="translate(-658.86 758.35) rotate(-45)"/><text class="cls-1" transform="translate(245.93 219.08)">Has</text><line class="cls-6" x1="260.16" y1="247.42" x2="260.16" y2="291.23"/><line class="cls-2" x1="265.42" y1="281.97" x2="254.9" y2="281.97"/><line class="cls-4" x1="203.77" y1="215.18" x2="192.76" y2="215.18"/><line class="cls-4" x1="228.3" y1="215.18" x2="209.4" y2="215.18"/><line class="cls-5" x1="192.76" y1="220.44" x2="203.27" y2="215.18"/><line class="cls-5" x1="203.27" y1="215.18" x2="192.76" y2="209.93"/><circle class="cls-4" cx="206.4" cy="215.18" r="2.62"/><line class="cls-4" x1="135.72" y1="241.32" x2="135.72" y2="230.3"/><line class="cls-2" x1="135.72" y1="267.9" x2="135.72" y2="246.8"/><line class="cls-5" x1="130.47" y1="230.3" x2="135.72" y2="240.82"/><line class="cls-5" x1="135.72" y1="240.82" x2="140.98" y2="230.3"/><circle class="cls-4" cx="135.72" cy="243.94" r="2.62"/><line class="cls-4" x1="126.69" y1="308.01" x2="133.1" y2="308.01"/><rect class="cls-2" x="919.15" y="330.23" width="56.73" height="56.73" transform="translate(-749.8 724.43) rotate(-45)"/><text class="cls-1" transform="translate(147.07 311.91)">Replies</text><line class="cls-2" x1="126.69" y1="308.01" x2="126.69" y2="267.9"/><line class="cls-4" x1="126.69" y1="267.9" x2="135.72" y2="267.9"/></svg>