<svg xmlns="http://www.w3.org/2000/svg" viewBox="0 0 400 400"><defs><style>.a{font-size:16px;font-family:Helvetica;}.b,.d,.e{fill:none;}.b,.d,.e,.f{stroke:#000;stroke-miterlimit:10;}.c{letter-spacing:-0.02em;}.d,.f{stroke-linecap:square;}.e{stroke-linecap:round;}.f{fill:#fff;}</style></defs><text class="a" transform="translate(74.07 164.51)">User</text><rect class="b" x="68.81" y="143.95" width="44.31" height="30"/><text class="a" transform="translate(269.18 164.51)">Comment</text><rect class="b" x="265.83" y="143.96" width="76.05" height="30"/><text class="a" transform="translate(168.62 81.58)">Reply</text><rect class="b" x="165.65" y="61.02" width="46.84" height="30"/><text class="a" transform="translate(174.4 247.45)">Like</text><rect class="b" x="172.05" y="226.9" width="34.05" height="30"/><rect class="b" x="62.6" y="221.55" width="56.73" height="56.73" transform="translate(-150.07 137.52) rotate(-45)"/><text class="a" transform="translate(63.84 253.81)">Follows</text><rect class="b" x="281.5" y="219.54" width="44.71" height="44.71" transform="translate(-82.05 285.71) rotate(-45)"/><text class="a" transform="translate(289.63 245.8)">Has</text><rect class="b" x="160.71" y="130.59" width="56.73" height="56.73" transform="translate(-57.02 180.25) rotate(-45)"/><text class="a" transform="translate(166.55 162.85)"><tspan class="c">W</tspan><tspan x="14.82" y="0">rites</tspan></text><rect class="b" x="281.5" y="53.66" width="44.71" height="44.71" transform="translate(35.24 237.12) rotate(-45)"/><text class="a" transform="translate(289.63 79.92)">Has</text><text class="a" transform="translate(62.06 346.36)">Projects</text><rect class="b" x="58.97" y="325.8" width="63.97" height="30"/><line class="d" x1="90.96" y1="185.03" x2="90.96" y2="174.02"/><line class="d" x1="90.96" y1="209.8" x2="90.96" y2="190.28"/><line class="e" x1="85.7" y1="174.02" x2="90.96" y2="184.53"/><line class="e" x1="90.96" y1="184.53" x2="96.22" y2="174.02"/><circle class="d" cx="90.96" cy="187.66" r="2.62"/><line class="f" x1="148.96" y1="158.95" x2="113.18" y2="158.95"/><line class="b" x1="122.75" y1="153.7" x2="122.75" y2="164.21"/><line class="d" x1="90.96" y1="314.79" x2="90.96" y2="325.8"/><line class="d" x1="90.96" y1="290.02" x2="90.96" y2="309.54"/><line class="e" x1="96.22" y1="325.8" x2="90.96" y2="315.29"/><line class="e" x1="90.96" y1="315.29" x2="85.7" y2="325.8"/><circle class="d" cx="90.96" cy="312.17" r="2.62"/><line class="d" x1="217.11" y1="241.9" x2="206.1" y2="241.9"/><line class="d" x1="271.73" y1="241.9" x2="223.09" y2="241.9"/><line class="e" x1="206.1" y1="247.15" x2="216.61" y2="241.9"/><line class="e" x1="216.61" y1="241.9" x2="206.1" y2="236.64"/><circle class="d" cx="219.73" cy="241.9" r="2.62"/><line class="f" x1="303.85" y1="210.27" x2="303.85" y2="175.09"/><line class="b" x1="298.6" y1="184.49" x2="309.11" y2="184.49"/><line class="f" x1="303.85" y1="107.64" x2="303.85" y2="142.81"/><line class="b" x1="309.11" y1="133.42" x2="298.6" y2="133.42"/><line class="d" x1="254.81" y1="158.96" x2="265.83" y2="158.96"/><line class="d" x1="230.05" y1="158.96" x2="249.56" y2="158.96"/><line class="e" x1="265.83" y1="153.7" x2="255.31" y2="158.96"/><line class="e" x1="255.31" y1="158.96" x2="265.83" y2="164.21"/><circle class="d" cx="252.19" cy="158.96" r="2.62"/><line class="d" x1="223.51" y1="76.02" x2="212.5" y2="76.02"/><line class="d" x1="271.73" y1="76.02" x2="229.34" y2="76.02"/><line class="e" x1="212.5" y1="81.28" x2="223.01" y2="76.02"/><line class="e" x1="223.01" y1="76.02" x2="212.5" y2="70.76"/><circle class="d" cx="226.13" cy="76.02" r="2.62"/></svg>