<svg xmlns="http://www.w3.org/2000/svg" viewBox="0 0 400 400"><defs><style>.a{font-size:16px;font-family:Helvetica;}.b,.d,.e{fill:none;}.b,.d,.e,.f{stroke:#000;stroke-miterlimit:10;}.c{letter-spacing:-0.02em;}.d,.f{stroke-linecap:square;}.e{stroke-linecap:round;}.f{fill:#fff;}</style></defs><text class="a" transform="translate(74.07 164.51)">User</text><rect class="b" x="68.81" y="143.95" width="44.31" height="30"/><text class="a" transform="translate(170.2 255.94)">Comment</text><rect class="b" x="166.85" y="235.38" width="76.05" height="30"/><text class="a" transform="translate(70.51 347.37)">Reply</text><rect class="b" x="67.54" y="326.81" width="46.84" height="30"/><text class="a" transform="translate(295.63 166.17)">Like</text><rect class="b" x="293.28" y="145.61" width="34.05" height="30"/><rect class="b" x="62.6" y="47.66" width="56.73" height="56.73" transform="translate(-27.11 86.58) rotate(-45)"/><text class="a" transform="translate(63.84 79.92)">Follows</text><rect class="b" x="182.52" y="138.25" width="44.71" height="44.71" transform="translate(-53.56 191.91) rotate(-45)"/><text class="a" transform="translate(190.65 164.51)">Has</text><rect class="b" x="62.6" y="222.02" width="56.73" height="56.73" transform="translate(-150.41 137.65) rotate(-45)"/><text class="a" transform="translate(68.44 254.28)"><tspan class="c">W</tspan><tspan x="14.82" y="0">rites</tspan></text><rect class="b" x="182.52" y="319.2" width="44.71" height="44.71" transform="translate(-181.51 244.91) rotate(-45)"/><text class="a" transform="translate(190.65 345.45)">Has</text><text class="a" transform="translate(175.98 81.56)">Projects</text><rect class="b" x="172.89" y="61.01" width="63.97" height="30"/><line class="d" x1="90.96" y1="132.4" x2="90.96" y2="143.42"/><line class="d" x1="90.96" y1="116.41" x2="90.96" y2="127.37"/><line class="e" x1="96.22" y1="143.42" x2="90.96" y2="132.9"/><line class="e" x1="90.96" y1="132.9" x2="85.7" y2="143.42"/><circle class="d" cx="90.96" cy="129.78" r="2.62"/><line class="f" x1="90.96" y1="210.57" x2="90.96" y2="174.79"/><line class="b" x1="96.22" y1="184.36" x2="85.7" y2="184.36"/><line class="d" x1="161.88" y1="76.02" x2="172.89" y2="76.02"/><line class="d" x1="131.71" y1="76.02" x2="156.5" y2="76.02"/><line class="e" x1="172.89" y1="70.76" x2="162.38" y2="76.02"/><line class="e" x1="162.38" y1="76.02" x2="172.89" y2="81.28"/><circle class="d" cx="159.26" cy="76.02" r="2.62"/><line class="d" x1="282.27" y1="160.61" x2="293.28" y2="160.61"/><line class="d" x1="236.9" y1="160.61" x2="276.38" y2="160.61"/><line class="e" x1="293.28" y1="155.35" x2="282.77" y2="160.61"/><line class="e" x1="282.77" y1="160.61" x2="293.28" y2="165.87"/><circle class="d" cx="279.64" cy="160.61" r="2.62"/><line class="f" x1="204.88" y1="192.75" x2="204.88" y2="235.16"/><line class="b" x1="210.13" y1="225.86" x2="199.62" y2="225.86"/><line class="f" x1="204.88" y1="309.31" x2="204.88" y2="265.51"/><line class="b" x1="199.62" y1="274.78" x2="210.13" y2="274.78"/><line class="d" x1="155.84" y1="250.38" x2="166.85" y2="250.38"/><line class="d" x1="131.07" y1="250.38" x2="150.59" y2="250.38"/><line class="e" x1="166.85" y1="245.13" x2="156.34" y2="250.38"/><line class="e" x1="156.34" y1="250.38" x2="166.85" y2="255.64"/><circle class="d" cx="153.22" cy="250.38" r="2.62"/><line class="d" x1="125.39" y1="341.55" x2="114.38" y2="341.55"/><line class="d" x1="173.62" y1="341.55" x2="131.22" y2="341.55"/><line class="e" x1="114.38" y1="346.81" x2="124.89" y2="341.55"/><line class="e" x1="124.89" y1="341.55" x2="114.38" y2="336.3"/><circle class="d" cx="128.02" cy="341.55" r="2.62"/><text class="a" transform="translate(294.29 347.11)">Post</text><rect class="b" x="289.5" y="326.55" width="41.6" height="30"/><rect class="b" x="287.95" y="228.03" width="44.71" height="44.71" transform="translate(-86.16 292.75) rotate(-45)"/><text class="a" transform="translate(296.07 254.28)">Has</text><line class="f" x1="310.3" y1="282.62" x2="310.3" y2="326.43"/><line class="b" x1="315.56" y1="317.17" x2="305.05" y2="317.17"/><line class="d" x1="253.92" y1="250.38" x2="242.9" y2="250.38"/><line class="d" x1="278.45" y1="250.38" x2="259.55" y2="250.38"/><line class="e" x1="242.9" y1="255.64" x2="253.42" y2="250.38"/><line class="e" x1="253.42" y1="250.38" x2="242.9" y2="245.13"/><circle class="d" cx="256.54" cy="250.38" r="2.62"/></svg>