<svg xmlns="http://www.w3.org/2000/svg" viewBox="0 0 400 200"><defs><style>.a{fill:#333;}</style></defs><path class="a" d="M316.07,57.48h-65.2A9.92,9.92,0,0,0,241,67.4v65.2a9.92,9.92,0,0,0,9.92,9.92h65.2A9.92,9.92,0,0,0,326,132.6V67.4A9.92,9.92,0,0,0,316.07,57.48Zm1.79,3.58a4.71,4.71,0,1,1-4.71,4.71A4.71,4.71,0,0,1,317.86,61.06Zm-68,.43a4.71,4.71,0,1,1-4.71,4.71A4.71,4.71,0,0,1,249.83,61.49Zm-.75,77.45a4.71,4.71,0,1,1,4.71-4.71A4.71,4.71,0,0,1,249.08,138.94Zm68-.43a4.71,4.71,0,1,1,4.71-4.71A4.71,4.71,0,0,1,317.11,138.51Zm-33.64,2.11A40.62,40.62,0,1,1,324.09,100,40.62,40.62,0,0,1,283.47,140.62Z"/><path class="a" d="M314.68,77.23a35.16,35.16,0,0,0-18.77-13.35c1.21,1.67-2.17,16.72-2.18,16.79A22,22,0,0,0,284.27,78h0l.63-16.8a35.16,35.16,0,0,0-22.15,6.35c2.07.1,11.71,12.11,11.77,12.18a22.21,22.21,0,0,0-8,5.78l0,0-12.75-11A35.1,35.1,0,0,0,245,95.83c1.37-1.56,16.86-1.62,16.86-1.62h0a22.43,22.43,0,0,0-.81,6,21.62,21.62,0,0,0,.35,3.88l0,0-16.51,3.14A35.24,35.24,0,0,0,256,127.31c-.37-2,9.25-14.19,9.25-14.19v0a22.14,22.14,0,0,0,7.37,6.5l-7.85,14.86a35.09,35.09,0,0,0,22.71,3.88c-1.83-1-5.33-16.07-5.33-16.07h0l1.05,0a22.08,22.08,0,0,0,8.62-1.74q3.38,7.7,6.73,15.4a35.21,35.21,0,0,0,17.19-15.34c-1.91.81-15.89-5.86-15.89-5.86l0,0a22.1,22.1,0,0,0,4.71-8.66v0l16.23,4.34a35.13,35.13,0,0,0-1.27-23c-.56,2-14.49,8.77-14.49,8.77v0a22.06,22.06,0,0,0-3.84-9.07l0,0Z"/><path class="a" d="M148.9,57.48H83.7a9.92,9.92,0,0,0-9.92,9.92v65.2a9.92,9.92,0,0,0,9.92,9.92h65.2a9.92,9.92,0,0,0,9.92-9.92V67.4A9.92,9.92,0,0,0,148.9,57.48Zm1.79,3.58A4.71,4.71,0,1,1,146,65.77,4.71,4.71,0,0,1,150.69,61.06Zm-68,.43A4.71,4.71,0,1,1,78,66.2,4.71,4.71,0,0,1,82.66,61.49Zm-.75,77.45a4.71,4.71,0,1,1,4.71-4.71A4.71,4.71,0,0,1,81.91,138.94Zm68-.43a4.71,4.71,0,1,1,4.71-4.71A4.71,4.71,0,0,1,149.94,138.51Zm-33.64,2.11A40.62,40.62,0,1,1,156.92,100,40.62,40.62,0,0,1,116.3,140.62Z"/><path class="a" d="M147.51,77.23a35.16,35.16,0,0,0-18.77-13.35c1.22,1.67-2.17,16.72-2.18,16.79A22,22,0,0,0,117.1,78h0q.3-8.4.62-16.8A35.1,35.1,0,0,0,95.6,67.58c2.06.1,11.71,12.11,11.76,12.18a22.21,22.21,0,0,0-8,5.78l0,0-12.75-11a35.26,35.26,0,0,0-8.83,21.28c1.37-1.56,16.86-1.62,16.86-1.62h0a22,22,0,0,0-.82,6,21.62,21.62,0,0,0,.35,3.88v0L77.7,107.14a35.15,35.15,0,0,0,11.12,20.17c-.37-2,9.25-14.19,9.25-14.19v0a22.14,22.14,0,0,0,7.37,6.5l-7.85,14.86a35.12,35.12,0,0,0,22.71,3.88c-1.83-1-5.32-16.07-5.32-16.07h0l1.05,0a22.08,22.08,0,0,0,8.62-1.74q3.38,7.7,6.74,15.4a35.46,35.46,0,0,0,10.17-6.49,35.09,35.09,0,0,0,7-8.85c-1.91.81-15.89-5.86-15.89-5.86l0,0a22.08,22.08,0,0,0,4.7-8.66v0l16.23,4.34a35.13,35.13,0,0,0-1.27-23c-.55,2-14.49,8.77-14.49,8.77v0A22.06,22.06,0,0,0,134,87.19l0,0Z"/></svg>