<svg xmlns="http://www.w3.org/2000/svg" viewBox="0 0 400 400"><path d="M63.88,285.75V114.25a47,47,0,0,1,47-47H289.12a47,47,0,0,1,47,47v171.5a47,47,0,0,1-47,47H110.88A47,47,0,0,1,63.88,285.75ZM189,203.39l-14.74-47L160.62,203.3Zm6.76,23.25L205.23,254a3.76,3.76,0,0,0,.52.61,2.59,2.59,0,0,0,.68.16l24.7,0s.62-.29.72-.48a5.17,5.17,0,0,0,0-1.14L190.33,136a4.41,4.41,0,0,0-.4-.51,2.94,2.94,0,0,0-.58-.27l-30.09,0a2.62,2.62,0,0,0-.45.32,3.15,3.15,0,0,0-.28.55l0,3.5a3.15,3.15,0,0,1,0,.44c-.06.44-.09,1.51-.2,2.3a10.06,10.06,0,0,1-.39,1.67L120.33,252.37a5.24,5.24,0,0,0-.15,2c.12.22,1,.4,1,.4l22.12,0s.79.05,1.06-.25a15.11,15.11,0,0,0,.87-2l8.39-25.93Zm61-71.65a14.51,14.51,0,1,0-14.51-14.51A14.51,14.51,0,0,0,256.78,155ZM244.63,255.05h23.75a1,1,0,0,0,1-1v-89a1,1,0,0,0-1-1H244.63a1,1,0,0,0-1,1v89A1,1,0,0,0,244.63,255.05Z"/></svg>