<svg xmlns="http://www.w3.org/2000/svg" viewBox="0 0 400 400"><path d="M51.44,80.68,62.81,64.44,75,73,92,48.64l22.56,15.79-17,24.32,14.16,9.92L100.32,114.9,86.16,105,53.9,151.07c-2.51,3.57-3.61,6.11-3.32,7.63s2.76,3.89,7.39,7.14c.7.49,1.44,1,2.23,1.5s1.58,1,2.37,1.48l-11.93,17L39.56,178.7Q23,167.95,21.4,157.64,20.31,151,26,142.87L63.6,89.19Z"/><path d="M193.7,162.35q3.6,13.07-7.88,29.47l-41.11,58.72-23.36-16.36,37.14-53q4.81-6.89,5.57-11.84,1.37-9.06-8-15.62-11.51-8.06-22.69-1.22-5.87,3.65-11.52,11.72l-33,47.2L66,195.42l60.94-87L149,123.85l-8.91,12.72q9.09-3.66,15.06-3.88,10.71-.37,21.46,7.16Q190.1,149.27,193.7,162.35Z"/><path d="M246.09,305.63q-20.58,5.89-43.06-9.84t-24-37.1q-1.5-21.34,11.93-40.54,13.22-18.85,33.93-25t43.2,9.65q22.49,15.74,23.84,37.29t-11.85,40.42Q266.67,299.73,246.09,305.63Zm-9.41-25.37Q247,276.9,256.19,263.8T265,239.88q-.4-10.81-10.41-17.82t-20.35-3.72q-10.35,3.3-19.52,16.39t-8.75,24q.42,10.89,10.42,17.89T236.68,280.26Z"/><path d="M376.9,280.14c.28.23.9.73,1.88,1.49L362.42,305q-2-1.75-3.61-3c-1.09-.84-2-1.5-2.67-2q-13.75-9.63-24.75-4-6.17,3.19-13.51,13.68L288.7,351.36l-23-16.07,61.06-87.2,21.76,15.24-10.65,15.2q11.38-5,17.55-5.48,10.16-.87,20.39,6.29C376.28,279.64,376.63,279.91,376.9,280.14Z"/></svg>