<svg xmlns="http://www.w3.org/2000/svg" viewBox="0 0 200 200"><defs><style>.cls-1{fill:#bb789d;}.cls-2{fill:#744068;}.cls-3{fill:#4a2444;}.cls-4{fill:#c7a9b9;}</style></defs><g id="Cognito"><g id="Cognito-2" data-name="Cognito"><g id="Left"><polygon class="cls-1" points="139.21 34.11 139.21 60.67 100.02 49.49 100.02 15.92 139.21 34.11"/><polyline class="cls-2" points="100.02 49.49 38.56 67.15 38.56 155.31 25.64 149.13 25.64 50.25 100.02 15.92"/><polygon class="cls-1" points="38.56 155.31 53.08 151.15 53.08 69.02 38.56 67.15 38.56 155.31"/><polygon class="cls-3" points="53.08 69.02 99.67 58.02 123.57 63.13 139.21 60.67 100.02 49.49 38.56 67.15 53.08 69.02"/></g><g id="Center"><polygon class="cls-2" points="73.41 117.05 73.41 82.66 100.02 79.41 100.02 120.65 73.41 117.05"/><polygon class="cls-1" points="126.27 117.05 126.27 82.66 99.67 79.41 99.67 120.65 126.27 117.05"/></g><g id="Right"><polygon class="cls-2" points="60.79 165.89 60.79 139.32 99.98 150.51 99.98 184.08 60.79 165.89"/><polyline class="cls-1" points="99.98 150.51 161.44 132.85 161.44 44.69 174.36 50.87 174.36 149.75 99.98 184.08"/><polygon class="cls-2" points="161.44 44.69 146.92 48.85 146.92 130.99 161.44 132.85 161.44 44.69"/><polygon class="cls-4" points="146.92 130.99 100.33 141.98 76.43 136.87 60.79 139.32 99.98 150.51 161.44 132.85 146.92 130.99"/></g></g></g></svg>