<svg id="Lambda" xmlns="http://www.w3.org/2000/svg" viewBox="0 0 200 200"><defs><style>.cls-1{fill:#9e5125;}.cls-2{fill:#f9be94;}.cls-3{fill:#6d3c1a;}.cls-4{fill:#f18438;}</style></defs><polyline class="cls-1" points="100.14 15.49 79.82 26.01 79.82 174.56 100.14 184.51 100.14 15.49"/><polygon class="cls-1" points="161.74 132.34 161.74 68.1 151.25 69.43 151.25 130.85 161.74 132.34"/><polygon class="cls-2" points="121.24 145.39 161.74 132.34 151.25 130.85 121.24 138.93 121.24 145.39"/><polygon class="cls-3" points="121.24 60.91 121.24 55.13 161.74 68.1 151.25 69.43 121.24 60.91"/><path class="cls-4" d="M100.14,15.49v169l70.47-34.63V50.49Zm61.6,116.85-40.5,13V55.13l40.5,13Z"/><polygon class="cls-1" points="134.13 73.2 121.24 75.13 121.24 124.75 134.13 126.94 134.13 73.2"/><polygon class="cls-4" points="134.13 73.2 156.66 100.07 134.13 126.94 134.13 73.2"/><polyline class="cls-1" points="39.62 45.26 29.39 50.71 29.39 149.58 39.62 154.82 39.62 45.26"/><polygon class="cls-4" points="39.62 45.26 49.84 48.53 49.84 151.22 39.62 154.82 39.62 45.26"/><polyline class="cls-1" points="62.73 34.24 49.84 40.8 49.84 159.74 62.73 166.05 62.73 34.24"/><polygon class="cls-4" points="62.73 34.24 79.82 39.48 79.82 160.28 62.73 166.05 62.73 34.24"/></svg>