<svg xmlns="http://www.w3.org/2000/svg" viewBox="0 0 200 200"><defs><style>.cls-1{fill:#f18438;}.cls-2{fill:#9e5125;}.cls-3{fill:#f9be94;}</style></defs><g id="Layer_4" data-name="Layer 4"><polygon class="cls-1" points="163.45 57.53 163.45 99.57 170.41 99.57 170.41 60.61 163.45 57.53"/><polygon class="cls-2" points="163.45 57.53 89.42 75.16 89.42 99.57 163.45 99.57 163.45 57.53"/><polygon class="cls-1" points="147.08 63.54 147.08 99.57 155.78 99.57 155.78 66.18 147.08 63.54"/><polygon class="cls-2" points="147.08 63.54 72.88 78.65 72.88 99.57 147.08 99.57 147.08 63.54"/><polygon class="cls-1" points="126.27 43.16 126.27 99.57 137.59 99.57 137.59 47.29 126.27 43.16"/><polygon class="cls-2" points="126.27 43.16 52.24 66.81 52.24 99.57 126.27 99.57 126.27 43.16"/><polygon class="cls-1" points="100.44 15.49 100.44 99.57 115.14 99.57 115.14 23.18 100.44 15.49"/><polygon class="cls-2" points="100.44 15.49 29.59 51.26 29.59 99.57 100.44 99.57 100.44 15.49"/><polygon class="cls-1" points="170.41 135.98 170.41 149.84 100.44 184.51 100.44 160.25 170.41 135.98"/><polygon class="cls-2" points="100.44 160.25 29.59 135.98 29.59 149.84 100.44 184.51 100.44 160.25"/><polygon class="cls-3" points="170.41 135.98 100.44 126.14 29.59 135.98 100.44 160.25 170.41 135.98"/><polygon class="cls-1" points="170.41 110.76 170.41 124.59 100.44 142.04 100.44 117.78 170.41 110.76"/><polygon class="cls-2" points="100.44 117.78 29.59 110.76 29.59 124.59 100.44 142.04 100.44 117.78"/><polygon class="cls-3" points="170.41 110.76 100.44 107.39 29.59 110.76 100.44 117.78 170.41 110.76"/></g></svg>