<svg xmlns="http://www.w3.org/2000/svg" viewBox="0 0 200 200"><defs><style>.cls-1{fill:#e15142;}.cls-2{fill:#8c3324;}.cls-3{fill:#f3b0a9;}.cls-4{fill:#5d1f19;}</style></defs><g id="S3"><polygon class="cls-1" points="169.86 50.85 158.63 45.11 158.63 155.01 169.86 149.43 169.86 50.85"/><polygon class="cls-2" points="158.63 45.11 100.01 59.38 100.01 140.99 158.63 155.01 158.63 45.11"/><polygon class="cls-2" points="30.15 50.85 41.38 45.11 41.38 155.01 30.15 149.43 30.15 50.85"/><polygon class="cls-1" points="41.38 45.11 100 59.38 100 140.99 41.38 155.01 41.38 45.11"/><polygon class="cls-2" points="74.48 28.49 100 15.63 100 58.09 74.48 64.42 74.48 28.49"/><polygon class="cls-1" points="125.52 28.49 100 15.63 100 58.09 125.52 64.42 125.52 28.49"/><polygon class="cls-3" points="74.48 64.42 100 69.21 125.52 64.42 100 58.09 74.48 64.42"/><polygon class="cls-2" points="74.48 171.65 100 184.51 100 142.04 74.48 135.72 74.48 171.65"/><polygon class="cls-1" points="125.52 171.65 100 184.51 100 142.04 125.52 135.72 125.52 171.65"/><polygon class="cls-4" points="74.48 135.72 100 130.93 125.52 135.72 100 142.04 74.48 135.72"/><polygon class="cls-2" points="74.5 81.95 100 78.85 100 121.16 74.5 118.09 74.5 81.95"/><polygon class="cls-1" points="125.51 81.94 100.01 78.84 100.01 121.16 125.51 118.09 125.51 81.94"/></g></svg>