<svg id="Blog" xmlns="http://www.w3.org/2000/svg" viewBox="0 0 400 450"><defs><style>.cls-1,.cls-4{font-size:16px;}.cls-1{font-family:Helvetica-Bold, Helvetica;font-weight:700;}.cls-2,.cls-6,.cls-7{fill:none;}.cls-2,.cls-6,.cls-7,.cls-8{stroke:#000;stroke-miterlimit:10;}.cls-3{letter-spacing:-0.07em;}.cls-4{font-family:Helvetica;}.cls-5{letter-spacing:-0.02em;}.cls-6,.cls-8{stroke-linecap:square;}.cls-7{stroke-linecap:round;}.cls-8{fill:#fff;}</style></defs><text class="cls-1" transform="translate(76.79 179.91)">User</text><rect class="cls-2" x="72.42" y="159.34" width="44.31" height="30"/><text class="cls-1" transform="translate(171.11 271.34)">Comment</text><rect class="cls-2" x="168.15" y="250.77" width="80.69" height="30"/><text class="cls-1" transform="translate(297.17 181.57)"><tspan class="cls-3">V</tspan><tspan x="9.49" y="0">ote</tspan></text><rect class="cls-2" x="294.15" y="161" width="39.53" height="30"/><rect class="cls-2" x="66.21" y="63.04" width="56.73" height="56.73" transform="translate(-36.93 93.65) rotate(-45)"/><text class="cls-4" transform="translate(67.46 95.3)">Follows</text><rect class="cls-2" x="186.14" y="153.64" width="44.71" height="44.71" transform="translate(-63.38 198.98) rotate(-45)"/><text class="cls-4" transform="translate(194.27 179.89)">Has</text><rect class="cls-2" x="66.21" y="237.4" width="56.73" height="56.73" transform="translate(-160.23 144.72) rotate(-45)"/><text class="cls-4" transform="translate(72.05 269.67)"><tspan class="cls-5">W</tspan><tspan x="14.82" y="0">rites</tspan></text><text class="cls-1" transform="translate(181.37 96.97)">Project</text><rect class="cls-2" x="176.51" y="76.39" width="63.97" height="30"/><line class="cls-6" x1="94.58" y1="147.79" x2="94.58" y2="158.8"/><line class="cls-6" x1="94.58" y1="131.8" x2="94.58" y2="142.76"/><line class="cls-7" x1="99.83" y1="158.8" x2="94.58" y2="148.29"/><line class="cls-7" x1="94.58" y1="148.29" x2="89.32" y2="158.8"/><circle class="cls-6" cx="94.58" cy="145.16" r="2.62"/><line class="cls-8" x1="94.58" y1="225.96" x2="94.58" y2="190.18"/><line class="cls-2" x1="99.83" y1="199.75" x2="89.32" y2="199.75"/><line class="cls-6" x1="165.5" y1="91.41" x2="176.51" y2="91.41"/><line class="cls-6" x1="135.32" y1="91.41" x2="160.11" y2="91.41"/><line class="cls-7" x1="176.51" y1="86.15" x2="166" y2="91.41"/><line class="cls-7" x1="166" y1="91.41" x2="176.51" y2="96.66"/><circle class="cls-6" cx="162.87" cy="91.41" r="2.62"/><line class="cls-6" x1="282.71" y1="176" x2="293.72" y2="176"/><line class="cls-6" x1="240.11" y1="176" x2="276.82" y2="176"/><line class="cls-7" x1="293.72" y1="170.74" x2="283.21" y2="176"/><line class="cls-7" x1="283.21" y1="176" x2="293.72" y2="181.25"/><circle class="cls-6" cx="280.08" cy="176" r="2.62"/><line class="cls-8" x1="208.5" y1="208.13" x2="208.5" y2="250.54"/><line class="cls-2" x1="213.75" y1="241.25" x2="203.24" y2="241.25"/><line class="cls-6" x1="156.71" y1="265.77" x2="167.72" y2="265.77"/><line class="cls-6" x1="134.69" y1="265.77" x2="151.46" y2="265.77"/><line class="cls-7" x1="167.72" y1="260.51" x2="157.21" y2="265.77"/><line class="cls-7" x1="157.21" y1="265.77" x2="167.72" y2="271.02"/><circle class="cls-6" cx="154.09" cy="265.77" r="2.62"/><line class="cls-6" x1="227.51" y1="291.9" x2="227.51" y2="280.89"/><line class="cls-6" x1="227.51" y1="318.48" x2="227.51" y2="297.73"/><line class="cls-7" x1="222.25" y1="280.89" x2="227.51" y2="291.4"/><line class="cls-7" x1="227.51" y1="291.4" x2="232.76" y2="280.89"/><circle class="cls-6" cx="227.51" cy="294.53" r="2.62"/><text class="cls-1" transform="translate(296.58 362.51)">Post</text><rect class="cls-2" x="293.12" y="341.94" width="41.6" height="30"/><rect class="cls-2" x="291.56" y="243.41" width="44.71" height="44.71" transform="translate(-95.98 299.82) rotate(-45)"/><text class="cls-4" transform="translate(299.69 269.67)">Has</text><line class="cls-8" x1="313.92" y1="298" x2="313.92" y2="341.82"/><line class="cls-2" x1="319.17" y1="332.56" x2="308.66" y2="332.56"/><line class="cls-6" x1="260.28" y1="265.77" x2="249.27" y2="265.77"/><line class="cls-6" x1="282.3" y1="265.77" x2="265.91" y2="265.77"/><line class="cls-7" x1="249.27" y1="271.02" x2="259.78" y2="265.77"/><line class="cls-7" x1="259.78" y1="265.77" x2="249.27" y2="260.51"/><circle class="cls-6" cx="262.9" cy="265.77" r="2.62"/><line class="cls-6" x1="189.48" y1="291.9" x2="189.48" y2="280.89"/><line class="cls-2" x1="189.48" y1="318.48" x2="189.48" y2="297.38"/><line class="cls-7" x1="184.23" y1="280.89" x2="189.48" y2="291.4"/><line class="cls-7" x1="189.48" y1="291.4" x2="194.74" y2="280.89"/><circle class="cls-6" cx="189.48" cy="294.53" r="2.62"/><line class="cls-6" x1="180.45" y1="358.6" x2="186.86" y2="358.6"/><rect class="cls-2" x="199.15" y="330.23" width="56.73" height="56.73" transform="translate(-186.93 265.9) rotate(-45)"/><text class="cls-4" transform="translate(200.83 362.49)">Replies</text><line class="cls-2" x1="180.45" y1="358.6" x2="180.45" y2="318.48"/><line class="cls-6" x1="180.45" y1="318.48" x2="189.48" y2="318.48"/></svg>