<svg xmlns="http://www.w3.org/2000/svg" viewBox="0 0 400 400"><defs><style>.a{fill:none;stroke:#000;stroke-miterlimit:10;stroke-width:5px;}</style></defs><rect class="a" x="130.54" y="277.05" width="139.14" height="49.5"/><line class="a" x1="134.82" y1="275.19" x2="134.82" y2="326"/><line class="a" x1="142.5" y1="275.19" x2="142.5" y2="326"/><line class="a" x1="150.18" y1="275.19" x2="150.18" y2="326"/><line class="a" x1="157.86" y1="275.19" x2="157.86" y2="326"/><line class="a" x1="165.54" y1="275.19" x2="165.54" y2="326"/><line class="a" x1="173.22" y1="275.19" x2="173.22" y2="326"/><line class="a" x1="180.9" y1="275.19" x2="180.9" y2="326"/><line class="a" x1="188.58" y1="275.19" x2="188.58" y2="326"/><line class="a" x1="196.26" y1="275.19" x2="196.26" y2="326"/><line class="a" x1="203.94" y1="275.19" x2="203.94" y2="326"/><line class="a" x1="211.62" y1="275.19" x2="211.62" y2="326"/><line class="a" x1="219.3" y1="275.19" x2="219.3" y2="326"/><line class="a" x1="226.98" y1="275.19" x2="226.98" y2="326"/><line class="a" x1="234.66" y1="275.19" x2="234.66" y2="326"/><line class="a" x1="242.33" y1="275.19" x2="242.33" y2="326"/><line class="a" x1="250.01" y1="275.19" x2="250.01" y2="326"/><line class="a" x1="257.69" y1="275.19" x2="257.69" y2="326"/><line class="a" x1="265.37" y1="275.19" x2="265.37" y2="326"/><path class="a" d="M288.91,74H111.09A16.93,16.93,0,0,0,94.15,90.94V260.3a16.93,16.93,0,0,0,16.94,16.93H288.91a16.93,16.93,0,0,0,16.94-16.93V90.94A16.93,16.93,0,0,0,288.91,74ZM111.09,208.22a11.43,11.43,0,1,1,11.43-11.43A11.44,11.44,0,0,1,111.09,208.22Zm0-105.85a11.44,11.44,0,1,1,11.43-11.43A11.44,11.44,0,0,1,111.09,102.37ZM288.91,208.22a11.43,11.43,0,1,1,11.44-11.43A11.43,11.43,0,0,1,288.91,208.22Zm0-105.85a11.44,11.44,0,1,1,11.44-11.43A11.43,11.43,0,0,1,288.91,102.37Z"/><path d="M288.91,74H270a25.37,25.37,0,0,0,35.83,35.83V90.94A16.93,16.93,0,0,0,288.91,74Zm0,28.37a11.43,11.43,0,1,1,11.43-11.43A11.43,11.43,0,0,1,288.91,102.37Z"/><path d="M94.15,90.94v18.89A25.37,25.37,0,0,0,130,74H111.09A16.93,16.93,0,0,0,94.15,90.94Zm28.36,0a11.43,11.43,0,1,1-11.43-11.43A11.43,11.43,0,0,1,122.51,90.94Z"/><path d="M111.09,171.38a25.3,25.3,0,0,0-16.94,6.51v37.79a25.39,25.39,0,1,0,16.94-44.3Zm0,36.84a11.43,11.43,0,1,1,11.43-11.43A11.43,11.43,0,0,1,111.08,208.22Z"/><path d="M305.85,215.68V177.89a25.41,25.41,0,1,0,0,37.79Zm-28.37-18.89a11.43,11.43,0,1,1,11.43,11.43A11.43,11.43,0,0,1,277.48,196.79Z"/><rect class="a" x="166.13" y="162.91" width="67.74" height="67.74"/><circle cx="200" cy="196.79" r="6.35"/><path d="M200,165.09a31.7,31.7,0,1,1-31.76,31.7A31.76,31.76,0,0,1,200,165.09Zm0,57.42a25.72,25.72,0,1,0-25.78-25.72A25.78,25.78,0,0,0,200,222.51Z"/></svg>