<svg xmlns="http://www.w3.org/2000/svg" viewBox="0 0 400 450"><defs><style>.cls-1,.cls-2,.cls-4{fill:none;}.cls-1,.cls-2,.cls-3,.cls-4{stroke:#000;stroke-miterlimit:10;}.cls-1,.cls-3{stroke-linecap:square;}.cls-2{stroke-linecap:round;}.cls-3{fill:#fff;}.cls-5,.cls-7{font-size:16px;}.cls-5{font-family:Helvetica-Bold, Helvetica;font-weight:700;}.cls-6{letter-spacing:-0.02em;}.cls-7{font-family:Helvetica;}.cls-8{letter-spacing:-0.11em;}</style></defs><g id="Layer_4" data-name="Layer 4"><line class="cls-1" x1="144.7" y1="82.1" x2="155.71" y2="82.1"/><line class="cls-1" x1="109.66" y1="82.1" x2="139.32" y2="82.1"/><line class="cls-2" x1="155.71" y1="76.85" x2="145.2" y2="82.1"/><line class="cls-2" x1="145.2" y1="82.1" x2="155.71" y2="87.36"/><circle class="cls-1" cx="142.08" cy="82.1" r="2.62"/><line class="cls-1" x1="78.05" y1="113.81" x2="78.05" y2="162.87"/><line class="cls-2" x1="72.79" y1="162.87" x2="78.05" y2="152.36"/><line class="cls-2" x1="78.05" y1="152.36" x2="83.3" y2="162.87"/><line class="cls-3" x1="78.05" y1="235.26" x2="78.05" y2="185.94"/><line class="cls-4" x1="83.3" y1="195.23" x2="72.79" y2="195.23"/><line class="cls-1" x1="110.51" y1="267.72" x2="168.29" y2="267.72"/><line class="cls-2" x1="168.29" y1="262.46" x2="157.78" y2="267.72"/><line class="cls-2" x1="157.78" y1="267.72" x2="168.29" y2="272.98"/><line class="cls-3" x1="314.61" y1="307.53" x2="314.61" y2="349.5"/><line class="cls-4" x1="309.35" y1="340.21" x2="319.86" y2="340.21"/><line class="cls-1" x1="274.8" y1="267.63" x2="217.18" y2="267.63"/><line class="cls-2" x1="217.18" y1="262.37" x2="227.69" y2="267.63"/><line class="cls-2" x1="227.69" y1="267.63" x2="217.18" y2="272.88"/><line class="cls-1" x1="192.65" y1="245.11" x2="192.65" y2="256.13"/><line class="cls-1" x1="192.65" y1="223.08" x2="192.65" y2="239.73"/><line class="cls-2" x1="197.91" y1="256.13" x2="192.65" y2="245.61"/><line class="cls-2" x1="192.65" y1="245.61" x2="187.4" y2="256.13"/><circle class="cls-1" cx="192.65" cy="242.49" r="2.62"/><path class="cls-1" d="M192.65,223.08H139.4V265a2.66,2.66,0,1,1,0,5.31v90.63h15"/><line class="cls-3" x1="160.19" y1="174.44" x2="106.61" y2="174.44"/><line class="cls-4" x1="115.91" y1="179.7" x2="115.91" y2="169.19"/><polyline class="cls-1" points="314.61 95.16 314.61 119.69 192.65 119.69 192.65 141.98"/><line class="cls-2" x1="309.35" y1="95.16" x2="314.61" y2="105.68"/><line class="cls-2" x1="314.61" y1="105.68" x2="319.86" y2="95.16"/><text class="cls-5" transform="translate(53.29 180.02)"><tspan class="cls-6">V</tspan><tspan x="10.39" y="0">isitor</tspan></text><rect class="cls-4" x="49.48" y="163.13" width="57.13" height="22.63"/><text class="cls-5" transform="translate(159.32 87.68)">Location</text><rect class="cls-4" x="155.71" y="70.79" width="73.88" height="22.63"/><text class="cls-5" transform="translate(173.53 273.2)">Page</text><rect class="cls-4" x="168.29" y="256.32" width="48.72" height="22.63"/><rect class="cls-4" x="55.69" y="59.84" width="44.71" height="44.71" transform="translate(-35.26 79.26) rotate(-45)"/><text class="cls-7" transform="translate(59.38 86.09)">From</text><rect class="cls-4" x="55.09" y="244.77" width="45.91" height="45.91" transform="translate(-166.45 133.6) rotate(-45)"/><text class="cls-7" transform="translate(58.93 273.5)">Visits</text><rect class="cls-4" x="286.46" y="239.57" width="56.3" height="56.3" transform="translate(-97.16 300.87) rotate(-45)"/><text class="cls-7" transform="translate(287.93 272.5)">Results</text><rect class="cls-4" x="165.42" y="333.67" width="54.47" height="54.47" transform="translate(-198.77 241.93) rotate(-45)"/><text class="cls-7" transform="translate(173.53 357.96)">Goes<tspan class="cls-8" x="10.67" y="19.2">T</tspan><tspan x="18.67" y="19.2">o</tspan></text><line class="cls-3" x1="192.65" y1="322.39" x2="192.65" y2="279.13"/><line class="cls-4" x1="187.4" y1="288.42" x2="197.91" y2="288.42"/><text class="cls-5" transform="translate(282.59 89.24)">Browser</text><rect class="cls-4" x="279.87" y="72.35" width="69.47" height="22.63"/><rect class="cls-4" x="169.7" y="151.49" width="45.91" height="45.91" transform="translate(-66.92 187.32) rotate(-45)"/><text class="cls-7" transform="translate(174.43 180.22)">Uses</text><text class="cls-5" transform="translate(283.93 366.39)">Session</text><rect class="cls-4" x="279.87" y="349.5" width="69.47" height="22.63"/></g></svg>