<svg xmlns="http://www.w3.org/2000/svg" viewBox="0 0 400 500"><defs><style>.cls-1{font-size:16px;font-family:Helvetica;}.cls-2{fill:none;stroke:#000;stroke-miterlimit:10;}.cls-3{letter-spacing:-0.09em;}.cls-4{letter-spacing:0.02em;}</style></defs><g id="Flow"><text class="cls-1" transform="translate(54.31 445.55)">Update session</text><rect class="cls-2" x="49.39" y="428.68" width="120.12" height="22.63"/><text class="cls-1" transform="translate(272.1 226.25)">Add visitor</text><rect class="cls-2" x="267.43" y="209.38" width="84.04" height="22.63"/><text class="cls-1" transform="translate(265.42 285.61)">Add location</text><rect class="cls-2" x="259.63" y="268.74" width="99.64" height="22.63"/><text class="cls-1" transform="translate(264.54 344.97)">Add browser</text><rect class="cls-2" x="259.63" y="328.1" width="99.64" height="22.63"/><text class="cls-1" transform="translate(265.87 404.33)">Add session</text><rect class="cls-2" x="262.07" y="387.43" width="94.75" height="22.7"/><text class="cls-1" transform="translate(275.22 463.69)">Add visits</text><rect class="cls-2" x="271.33" y="446.82" width="76.23" height="22.63"/><line class="cls-2" x1="209.45" y1="84.28" x2="209.45" y2="72.9"/><polygon points="213.19 83.18 209.45 89.66 205.71 83.18 213.19 83.18"/><polyline class="cls-2" points="309.45 204 309.45 143.81 263.61 143.81"/><polygon points="313.19 202.9 309.45 209.38 305.71 202.9 313.19 202.9"/><polyline class="cls-2" points="109.45 205.54 109.45 143.81 155.3 143.81"/><polygon points="113.19 204.44 109.45 210.92 105.71 204.44 113.19 204.44"/><line class="cls-2" x1="109.45" y1="253.46" x2="109.45" y2="266.97"/><polygon points="105.71 265.88 109.45 272.35 113.19 265.88 105.71 265.88"/><line class="cls-2" x1="109.45" y1="409.79" x2="109.45" y2="423.3"/><polygon points="105.71 422.21 109.45 428.68 113.19 422.21 105.71 422.21"/><polyline class="cls-2" points="265.95 458.13 109.45 458.13 109.45 451.31"/><polygon points="264.86 454.39 271.33 458.13 264.86 461.88 264.86 454.39"/><line class="cls-2" x1="309.45" y1="232.19" x2="309.45" y2="263.36"/><polygon points="305.71 262.26 309.45 268.74 313.19 262.26 305.71 262.26"/><line class="cls-2" x1="309.45" y1="291.36" x2="309.45" y2="322.72"/><polygon points="305.71 321.62 309.45 328.1 313.19 321.62 305.71 321.62"/><line class="cls-2" x1="309.45" y1="350.73" x2="309.45" y2="382.08"/><polygon points="305.71 380.99 309.45 387.46 313.19 380.99 305.71 380.99"/><line class="cls-2" x1="309.45" y1="410.27" x2="309.45" y2="441.44"/><polygon points="305.71 440.35 309.45 446.82 313.19 440.35 305.71 440.35"/><line class="cls-2" x1="178.17" y1="341.07" x2="254.25" y2="341.07"/><polygon points="253.16 344.81 259.63 341.07 253.16 337.33 253.16 344.81"/><text class="cls-1" transform="translate(119.32 138.28)"><tspan class="cls-3">Y</tspan><tspan x="9.2" y="0">es</tspan></text><text class="cls-1" transform="translate(276.3 138.28)">No</text><text class="cls-1" transform="translate(183.57 335.13)">No</text><text class="cls-1" transform="translate(115.8 423.13)"><tspan class="cls-3">Y</tspan><tspan x="9.2" y="0">es</tspan></text><text class="cls-1" transform="translate(178.77 47.65)">Get user<tspan x="-4.89" y="19.2">from table</tspan></text><rect class="cls-2" x="169.52" y="30.37" width="79.86" height="42.54"/><rect class="cls-2" x="171.16" y="105.52" width="76.59" height="76.59" transform="translate(-40.34 190.23) rotate(-45)"/><text class="cls-1" transform="translate(173.73 141.23)">User<tspan class="cls-4" x="33.78" y="0"> </tspan><tspan x="38.55" y="0">exist </tspan><tspan x="5.48" y="19.2">in table?</tspan></text><text class="cls-1" transform="translate(64.1 228.2)">Get last user <tspan x="18.23" y="19.2">session</tspan></text><rect class="cls-2" x="59.95" y="210.92" width="99" height="42.54"/><rect class="cls-2" x="60.86" y="292.48" width="97.18" height="97.18" transform="translate(-209.12 177.29) rotate(-45)"/><text class="cls-1" transform="translate(64.98 334.49)">Last session <tspan x="2.23" y="19.2">30 min from </tspan><tspan x="25.34" y="38.4">now?</tspan></text></g></svg>