<svg xmlns="http://www.w3.org/2000/svg" viewBox="0 0 200 200"><defs><style>.cls-1{fill:#9e5125;}.cls-2{fill:#f18438;}.cls-3{fill:#6d3c1a;}</style></defs><g id="S3"><polygon class="cls-1" points="30.09 82.63 100.08 70.52 100.08 15.49 30.09 49.94 30.09 82.63"/><polygon class="cls-2" points="169.91 82.63 100.08 70.52 100.08 15.49 169.91 49.94 169.91 82.63"/><polygon class="cls-3" points="169.91 82.63 100.08 88.46 30.09 82.63 100.08 70.52 169.91 82.63"/><polygon class="cls-2" points="86.57 99.59 86.57 166.67 74.07 171.18 74.13 99.59 86.57 99.59"/><polygon class="cls-1" points="74.13 99.59 63.17 99.59 63.17 166.18 74.07 171.18 74.13 99.59"/><polygon class="cls-2" points="169.91 99.59 169.91 149.58 100 184.51 100.08 99.59 169.91 99.59"/><polygon class="cls-1" points="100.08 99.59 86.57 99.59 86.57 177.39 100 184.51 100.08 99.59"/><polygon class="cls-2" points="63.17 99.59 53.69 99.59 53.69 161.09 63.17 158.38 63.17 99.59"/><polygon class="cls-1" points="53.69 99.59 45.11 99.59 45.11 156.61 53.69 161.09 53.69 99.59"/><polyline class="cls-1" points="37.23 99.59 30.25 99.59 30.25 149.64 37.23 153.03 37.23 99.59"/><polygon class="cls-2" points="45.11 99.59 37.23 99.59 37.23 153.03 45.11 150.83 45.11 99.59"/></g></svg>