<svg xmlns="http://www.w3.org/2000/svg" viewBox="0 0 200 200"><defs><style>.cls-1{fill:#9e5125;}.cls-2{fill:#f18438;}.cls-3{fill:#f9be94;}</style></defs><g id="S3"><polyline class="cls-1" points="48.13 56.23 33.91 61.44 33.91 88.75 48.13 90.2 48.13 56.23"/><polygon class="cls-2" points="48.13 56.23 66.32 59.94 66.32 88.92 48.13 90.2 48.13 56.23"/><polyline class="cls-1" points="159.66 67.49 141.84 70.56 141.84 89.28 159.66 90.1 159.66 67.49"/><polygon class="cls-2" points="159.66 67.49 174.24 71.57 174.24 89.4 159.66 90.1 159.66 67.49"/><polygon class="cls-2" points="103.4 16.84 103.4 86.07 123.91 85.18 123.91 25.56 103.4 16.84"/><polygon class="cls-1" points="103.4 16.84 83.7 26.81 83.7 84.26 103.4 86.07 103.4 16.84"/><polygon class="cls-1" points="83.78 175.11 103.84 184 103.84 161.11 83.78 154.56 83.78 175.11"/><polygon class="cls-2" points="123.91 175.11 103.84 184 103.84 161.11 123.91 154.56 123.91 175.11"/><polygon class="cls-3" points="83.78 154.56 103.84 148.79 123.91 154.56 103.84 161.11 83.78 154.56"/><polygon class="cls-1" points="33.91 101.61 103.84 101.61 103.84 142.58 33.91 124.63 33.91 101.61"/><polygon class="cls-2" points="173.78 101.61 103.84 101.61 103.84 142.58 173.78 124.63 173.78 101.61"/></g></svg>