<svg xmlns="http://www.w3.org/2000/svg" viewBox="0 0 200 100"><defs><style>.cls-1{fill:#1e1853;}.cls-2{fill:#e50888;}.cls-3{fill:#ffcb05;}</style></defs><g id="S3"><g id="Layer_4" data-name="Layer 4"><rect class="cls-1" x="13.5" y="36.38" width="5.98" height="40.4"/><rect class="cls-1" x="22.92" y="51.31" width="5.98" height="12.23"/><rect class="cls-1" x="22.92" y="26.41" width="5.98" height="12.26"/><rect class="cls-1" x="32.17" y="36.38" width="5.98" height="12.26"/><rect class="cls-1" x="32.17" y="61.28" width="5.98" height="12.26"/><rect class="cls-1" x="41.42" y="23.22" width="5.98" height="40.4"/><rect class="cls-2" x="32.17" y="51.98" width="5.98" height="5.98"/><rect class="cls-3" x="22.92" y="42" width="5.98" height="5.98"/><path class="cls-1" d="M81.49,50.82c0,5.53-3.83,9.5-9.07,9.5a7.91,7.91,0,0,1-6-2.33h-.08v9.34H62.15V41.66h3.48l.12,2.61h.07a7.73,7.73,0,0,1,6.6-3C77.66,41.27,81.49,45.29,81.49,50.82Zm-4.67,0C76.82,47.35,75,45,71.76,45s-5.58,2.38-5.58,5.85a5.46,5.46,0,0,0,5.58,5.8C75,56.62,76.82,54.21,76.82,50.82Z"/><path class="cls-1" d="M100,59.93l-.12-2.61h-.07a7.79,7.79,0,0,1-6.61,3c-5.23,0-9.06-4-9.06-9.5s3.83-9.55,9.06-9.55a7.71,7.71,0,0,1,6.57,3h.07l.16-2.61h3.44V59.93Zm-.59-9.11c0-3.47-2.26-5.85-5.54-5.85s-5.1,2.38-5.1,5.85,1.82,5.8,5.1,5.8A5.43,5.43,0,0,0,99.45,50.82Z"/><path class="cls-1" d="M125.59,49.22V59.93h-4.14V49.69c0-3-1.61-4.72-4.26-4.72-2.93,0-4.69,2-4.69,5.38v9.58h-4.14V41.66h3.48l.15,2.81h.08c1.17-2.07,3.28-3.2,6.17-3.2C122.81,41.27,125.59,44.23,125.59,49.22Z"/><path class="cls-1" d="M144.84,59.93l-.11-2.61h-.08a7.77,7.77,0,0,1-6.6,3c-5.24,0-9.07-4-9.07-9.5s3.83-9.55,9.07-9.55a8,8,0,0,1,6,2.3h.08V32.67h4.14V59.93Zm-.58-9.11c0-3.47-2.27-5.85-5.55-5.85s-4.86,2.38-4.86,5.85,1.58,5.8,4.86,5.8A5.44,5.44,0,0,0,144.26,50.82Z"/><path class="cls-1" d="M167.93,59.93l-.12-2.61h-.08a7.77,7.77,0,0,1-6.6,3c-5.23,0-9.06-4-9.06-9.5s3.83-9.55,9.06-9.55a7.68,7.68,0,0,1,6.56,3h.08l.16-2.61h3.44V59.93Zm-.59-9.11c0-3.47-2.26-5.85-5.54-5.85s-5,2.38-5,5.85,1.67,5.8,5,5.8A5.43,5.43,0,0,0,167.34,50.82Z"/><path class="cls-1" d="M188.55,42.6v4.24h-.19a7.54,7.54,0,0,0-5.55-1.94c-2,0-3.4.89-3.4,2.18,0,1.05.82,1.52,3.52,1.67,4.88.28,6.79,2.07,6.79,5.77s-2.77,5.8-7.34,5.8c-3,0-5.43-.62-6.95-1.79V54.21h.19a8.64,8.64,0,0,0,6.57,2.49c2.14,0,3.47-.86,3.47-2.18s-.82-1.75-3.79-2c-4.76-.39-6.52-1.87-6.52-5.33s2.93-5.93,7.34-5.93A11.3,11.3,0,0,1,188.55,42.6Z"/></g></g></svg>