<svg xmlns="http://www.w3.org/2000/svg" viewBox="0 0 200 100"><defs><style>.cls-1{fill:#5faade;}</style></defs><g id="Layer_7" data-name="Layer 7"><polygon class="cls-1" points="27.31 64.64 31.58 68.94 55.81 44.23 51.94 42.11 27.31 64.64"/><polygon class="cls-1" points="22.2 59.44 25.87 63.19 39.81 50.94 36.11 48.24 22.2 59.44"/><polygon class="cls-1" points="37.22 47.34 40.92 49.95 50.6 41.39 47.07 39.45 37.22 47.34"/><polygon class="cls-1" points="17.74 54.91 20.99 58.19 27.86 52.85 24.6 50.06 17.74 54.91"/><polygon class="cls-1" points="29.16 51.83 45.84 38.82 42.63 37.06 25.9 49.05 29.16 51.83"/><polygon class="cls-1" points="13.84 50.92 16.67 53.84 36.38 40.08 33.42 38.17 13.84 50.92"/><polygon class="cls-1" points="34.48 37.56 37.36 39.36 41.56 36.48 38.64 34.84 34.48 37.56"/><polygon class="cls-1" points="10.38 47.38 12.92 49.93 26.46 41.4 23.85 39.41 10.38 47.38"/><polygon class="cls-1" points="24.94 38.78 27.62 40.65 37.58 34.35 34.97 32.88 24.94 38.78"/><polygon class="cls-1" points="7.26 44.17 9.5 46.5 34.02 32.39 31.58 31.06 7.26 44.17"/><path class="cls-1" d="M65.85,32H77c5.19,0,8,4.16,8,9.12s-2.87,9-8,9H70.93V60.24H65.85Zm10.49,5.18H71.86a.93.93,0,0,0-.93.92v6a.93.93,0,0,0,.93.93h4.48c2,0,3.51-1.53,3.51-3.9A3.58,3.58,0,0,0,76.34,37.13Z"/><path class="cls-1" d="M97.79,58.12a6.63,6.63,0,0,1-5.48,2.63c-2.76,0-6-2.2-6-6.78,0-4.8,3.25-6.54,6-6.54a7.12,7.12,0,0,1,4.35,1.33.69.69,0,0,0,1.13-.54V47.09c0-2.07-1.51-3.43-3.8-3.43a6.71,6.71,0,0,0-5,2.42l-1.72-3.61a10.34,10.34,0,0,1,7.55-3.22c3.94,0,7.56,1.86,7.56,7.76V60.24H97.79Zm0-4.68a1.8,1.8,0,0,0-.52-1.3A4.54,4.54,0,0,0,94.14,51a3.06,3.06,0,1,0,0,6.11,4.33,4.33,0,0,0,3.47-1.54.89.89,0,0,0,.18-.55Z"/><path class="cls-1" d="M111.43,60.24h-4.54V39.76h4.54v2.1a.23.23,0,0,0,.41.14A6.94,6.94,0,0,1,117,39.29v5.26a5.11,5.11,0,0,0-1.26-.17,5.57,5.57,0,0,0-4.19,2.22"/><path class="cls-1" d="M131.66,68.05V58.32a.23.23,0,0,0-.41-.13,6.07,6.07,0,0,1-4.92,2.56c-4.4,0-7.63-3.94-7.63-10.77s3.23-10.73,7.63-10.73c2.31,0,4.16,1.74,4.93,2.61a.23.23,0,0,0,.4-.16V39.76h4.59V68.05Zm0-21a2,2,0,0,0-.48-1.36A4.81,4.81,0,0,0,127.76,44c-2.58,0-4.37,2.42-4.37,5.94s1.79,6,4.37,6a4.51,4.51,0,0,0,2.42-.8,3.35,3.35,0,0,0,1.48-2.79Z"/><path class="cls-1" d="M152.47,58.31a.23.23,0,0,0-.4-.16,7.57,7.57,0,0,1-5.69,2.6c-3.79,0-5.58-2.46-5.58-6.44V39.76h4.54V52.19c0,2.84,1.26,3.77,3.19,3.77a4.9,4.9,0,0,0,3.94-2.33V39.76H157V60.24h-4.55Z"/><path class="cls-1" d="M169.41,39.25c5.15,0,8.66,4.58,8.66,11.28v1.19H165.49a.24.24,0,0,0-.24.27,4.93,4.93,0,0,0,4.95,4.48,6.43,6.43,0,0,0,4.61-2l2,3.48a9.76,9.76,0,0,1-7.13,2.84c-5.26,0-9.23-4.2-9.23-10.77C160.46,44,164.14,39.25,169.41,39.25Zm-4,8.82h8a.24.24,0,0,0,.24-.25c-.19-1.92-1.36-4.29-4.24-4.29-2.71,0-3.94,2.3-4.23,4.28A.23.23,0,0,0,165.41,48.07Z"/><path class="cls-1" d="M182.3,55.15V44.93a.46.46,0,0,0-.46-.46h-2.4V39.76h2.4a.47.47,0,0,0,.46-.47V34.16h4.58v5.13a.47.47,0,0,0,.47.47h3v4.71h-3a.46.46,0,0,0-.47.46v8.78c0,1.27.58,2.25,1.58,2.25a2.26,2.26,0,0,0,1.57-.59l1,4.07a5.05,5.05,0,0,1-3.79,1.31C184,60.75,182.3,58.8,182.3,55.15Z"/></g></svg>