<svg xmlns="http://www.w3.org/2000/svg" viewBox="0 0 200 100"><defs><style>.cls-1{fill:#3c3a3e;}.cls-2{fill:#e25b26;}</style></defs><g id="S3"><g id="Layer_4" data-name="Layer 4"><path class="cls-1" d="M70.08,40.67,71.17,47H69.6l-.15-1.31h-2L66.76,47H65.08l3.51-6.35Zm-1,1.6L68,44.5h1.33l-.23-2.22Z"/><path class="cls-1" d="M77.56,40.67c1.87,0,2.49.66,2.49,1.65s-.66,2.17-2.57,2.17h-1.4L75.56,47H74.1l1.26-6.35Zm-1.23,2.61h1.13c.64,0,1-.29,1-.77s-.34-.59-.83-.59H76.6Z"/><path class="cls-1" d="M86.17,40.67,87.26,47H85.69l-.15-1.31h-2L82.85,47H81.16l3.51-6.35Zm-1,1.6L84.08,44.5h1.33l-.24-2.22Z"/><path class="cls-1" d="M96.19,41.24l-.3,1.37a2.62,2.62,0,0,0-1.71-.75,2.27,2.27,0,0,0-2.09,2.38,1.46,1.46,0,0,0,1.4,1.59,3.44,3.44,0,0,0,1.9-.73l-.32,1.57a4.27,4.27,0,0,1-1.79.45,2.66,2.66,0,0,1-2.7-2.84,3.63,3.63,0,0,1,3.54-3.71A3.76,3.76,0,0,1,96.19,41.24Z"/><path class="cls-1" d="M100.82,40.67l-.49,2.45h2.5l.5-2.45h1.5L103.52,47H102l.55-2.69h-2.5L99.55,47H98.08l1.27-6.35Z"/><path class="cls-1" d="M112.65,40.67,112.39,42h-3l-.23,1.15H112l-.25,1.21h-2.85l-.29,1.41h3L111.35,47H106.9l1.27-6.35Z"/><path class="cls-1" d="M48.47,52.39l7.38,8.18S61.16,67,52.42,74.39A9.57,9.57,0,0,1,37,69.57l5.62-3s2.07,6.42,7.15,3.26a3.11,3.11,0,0,0,1-4.61l-7.09-8.14s-3.82-5.24,1.45-10.65a10.2,10.2,0,0,1,11.57-2.27s3.2,2.24,4,4.05L55.56,52.1S53.74,48.34,51,48.94a2.92,2.92,0,0,0-1.81,1C48.23,50.93,48.05,51.56,48.47,52.39Z"/><path class="cls-1" d="M121.32,52.3a7.4,7.4,0,0,0-5.39,1.94,7.25,7.25,0,0,0-2.1,3.95l-2.35,17.28h5.41L119.14,59a2.27,2.27,0,0,1,.79-1,1.33,1.33,0,0,1,.66-.32h3.65L125,52.3Z"/><path class="cls-1" d="M124.53,75.47l3.55-27.2,6.31-4.06-1.76,13.68a.06.06,0,0,0,.11,0l9.4-10.38,1,5.6-6.25,7.49a.06.06,0,0,0,0,.08l10.54,14.74h-7L132,62.74a.07.07,0,0,0-.13,0l-1.6,12.71Z"/><path class="cls-1" d="M73.38,51.53a14.52,14.52,0,0,0-14,12.29,12.13,12.13,0,0,0-.09,1.79L57,82.69h5.09l1.27-8.76,0-.07a11.14,11.14,0,0,0,6.79,2.19,14.53,14.53,0,0,0,14-12.3A10.52,10.52,0,0,0,73.38,51.53ZM78.6,64A7.66,7.66,0,0,1,71,70.73a6.19,6.19,0,0,1-6.15-7A7.66,7.66,0,0,1,72.45,57,6.19,6.19,0,0,1,78.6,64Z"/><path class="cls-1" d="M100.44,51.69c-6.72-.21-13.14,5.1-14.35,11.85s3.27,12.38,10,12.58a13.38,13.38,0,0,0,6.25-1.38l.85-6.59a8.08,8.08,0,0,1-6.1,2.72,5.83,5.83,0,0,1-5.65-7.12A8.32,8.32,0,0,1,99.54,57a5.84,5.84,0,0,1,5.65,7.13L104,73.75h0l-.2,1.72H109l1.51-11.59h0C111.44,57.31,107,51.89,100.44,51.69Z"/><path class="cls-2" d="M159.34,25l-13.21,3.46-5.67-9.3a3.76,3.76,0,0,0-6.91,1.3L131.38,32.7l-12.17,3.88a3.9,3.9,0,0,0-.41,7.28l8.06,3.59,6-3.9-9-3.61,11.75-3.65,2.09-11.85L143.43,34l11.76-3.08-8.1,9.52,5.19,9.89L143.77,48l.94,5.71,9,2.7a3.91,3.91,0,0,0,4.62-5.56L153,40.62l9.29-11A2.89,2.89,0,0,0,159.34,25Z"/><path class="cls-1" d="M150.77,72.7V73h-.94v2.47h-.39V73h-.94V72.7Z"/><path class="cls-1" d="M151.41,72.7H152l.81,2.38.8-2.38h.55v2.81h-.37V73.85s0-.15,0-.28v-.43l-.8,2.37h-.38l-.81-2.37v.09c0,.07,0,.17,0,.31v2h-.36Z"/></g></g></svg>