<svg xmlns="http://www.w3.org/2000/svg" viewBox="0 0 600 400"><defs><style>.a{fill:#93278f;}.b{fill:#7ac943;}.c{fill:#fbb03b;}.d{fill:#ffefc9;}.e{fill:#ccc;}.f{fill:#4d4d4d;}.g{fill:#b3b3b3;}.h{fill:#3fa9f5;}.i{fill:#ff0;}.j{fill:#1a1a1a;}.k,.l,.m,.n,.o,.p,.q{fill:none;stroke-linecap:round;stroke-miterlimit:10;stroke-width:2px;}.k{stroke:#fff;}.l{stroke:#333;}.m{stroke:#ff931e;}.n{stroke:#662d91;}.o{stroke:#666;}.p{stroke:#0071bc;}.q{stroke:#ff0;}</style></defs><path class="a" d="M230.71,356.17H202.36a1.42,1.42,0,0,1-1.42-1.41v-5.67h31.18v5.67A1.41,1.41,0,0,1,230.71,356.17Z"/><path class="a" d="M397.56,356.17H369.21a1.41,1.41,0,0,1-1.41-1.41v-5.67H399v5.67A1.42,1.42,0,0,1,397.56,356.17Z"/><path class="b" d="M452.86,108.11H311.13a8.51,8.51,0,0,0-8.51,8.5V340.55a8.51,8.51,0,0,0,8.51,8.51H452.86a8.5,8.5,0,0,0,8.5-8.51V116.61A8.5,8.5,0,0,0,452.86,108.11ZM312.54,343a3.83,3.83,0,1,1,3.83-3.83A3.82,3.82,0,0,1,312.54,343Zm0-164.41a3.83,3.83,0,1,1,3.83-3.82A3.82,3.82,0,0,1,312.54,178.55ZM451.44,343a3.83,3.83,0,1,1,3.83-3.83A3.82,3.82,0,0,1,451.44,343Zm0-164.41a3.83,3.83,0,1,1,3.83-3.82A3.82,3.82,0,0,1,451.44,178.55Z"/><path class="c" d="M312.54,330.63a8.51,8.51,0,1,0,8.51,8.5A8.51,8.51,0,0,0,312.54,330.63Zm0,12.33a3.83,3.83,0,1,1,3.83-3.83A3.82,3.82,0,0,1,312.54,343Z"/><path class="c" d="M451.44,330.63a8.51,8.51,0,1,0,8.51,8.5A8.51,8.51,0,0,0,451.44,330.63Zm0,12.33a3.83,3.83,0,1,1,3.83-3.83A3.83,3.83,0,0,1,451.44,343Z"/><path class="c" d="M451.44,166.22a8.51,8.51,0,1,0,8.51,8.51A8.51,8.51,0,0,0,451.44,166.22Zm0,12.33a3.83,3.83,0,1,1,3.83-3.82A3.83,3.83,0,0,1,451.44,178.55Z"/><path class="c" d="M312.54,166.22a8.51,8.51,0,1,0,8.51,8.51A8.51,8.51,0,0,0,312.54,166.22Zm0,12.33a3.83,3.83,0,1,1,3.83-3.82A3.82,3.82,0,0,1,312.54,178.55Z"/><polygon points="450.66 214.71 447.76 211.56 447.76 211.56 409.76 211.56 409.76 211.56 406.87 214.71 396.88 214.71 396.88 222.93 460.65 222.93 460.65 214.71 450.66 214.71"/><rect class="d" x="406.01" y="220.82" width="45.52" height="2"/><polygon class="e" points="390.6 286.38 390.6 244.78 347.88 244.78 347.88 287.5 389.43 287.5 390.6 286.38"/><rect class="e" x="309.59" y="99.72" width="44.18" height="60.68"/><polygon class="e" points="404.67 99.48 364.99 99.48 364.99 100.36 365.59 100.36 365.59 149.31 403.06 149.31 403.06 100.36 404.67 100.36 404.67 99.48"/><polygon class="e" points="455.69 99.88 416.01 99.88 416.01 101.65 417.12 101.65 417.12 150.25 454.58 150.25 454.58 101.65 455.69 101.65 455.69 99.88"/><polygon points="359.84 340.25 362.74 343.4 362.74 343.4 400.74 343.4 400.74 343.4 403.63 340.25 413.63 340.25 413.63 332.03 349.85 332.03 349.85 340.25 359.84 340.25"/><rect class="d" x="358.98" y="332.14" width="45.52" height="2" transform="translate(763.47 666.29) rotate(180)"/><polygon class="e" points="463.56 232.59 462.72 233.81 441.55 233.81 441.55 251.71 462.72 251.71 462.72 251.71 463.56 252.92 464.23 252.92 464.23 232.59 463.56 232.59"/><polygon class="e" points="463.5 270.86 462.66 272.07 441.49 272.07 441.49 289.98 462.66 289.98 462.66 289.98 463.5 291.19 464.17 291.19 464.17 270.86 463.5 270.86"/><rect class="e" x="443.22" y="304.88" width="20" height="24.85"/><polygon points="463.24 187.99 455.81 187.99 455.81 185.93 419.81 185.93 419.81 206.04 455.81 206.04 455.81 204.99 463.24 204.99 463.24 187.99"/><polygon points="305.44 321.73 304.73 323.17 304.73 327.49 305.44 328.93 319.62 328.93 320.32 327.49 320.32 323.17 319.62 321.73 305.44 321.73"/><rect class="e" x="306.86" y="324.62" width="1.42" height="1.42" rx="0.28"/><rect class="e" x="316.78" y="324.62" width="1.42" height="1.42" rx="0.28"/><polygon points="305.44 314.53 304.73 315.97 304.73 320.29 305.44 321.73 319.62 321.73 320.32 320.29 320.32 315.97 319.62 314.53 305.44 314.53"/><rect class="e" x="306.86" y="317.42" width="1.42" height="1.42" rx="0.28"/><rect class="e" x="316.78" y="317.42" width="1.42" height="1.42" rx="0.28"/><polygon points="305.44 307.33 304.73 308.77 304.73 313.09 305.44 314.53 319.62 314.53 320.32 313.09 320.32 308.77 319.62 307.33 305.44 307.33"/><rect class="e" x="306.86" y="310.22" width="1.42" height="1.42" rx="0.28"/><rect class="e" x="316.78" y="310.22" width="1.42" height="1.42" rx="0.28"/><polygon points="305.44 300.13 304.73 301.57 304.73 305.89 305.44 307.33 319.62 307.33 320.32 305.89 320.32 301.57 319.62 300.13 305.44 300.13"/><rect class="e" x="306.86" y="303.02" width="1.42" height="1.42" rx="0.28"/><rect class="e" x="316.78" y="303.02" width="1.42" height="1.42" rx="0.28"/><polygon points="305.44 292.93 304.73 294.37 304.73 298.69 305.44 300.13 319.62 300.13 320.32 298.69 320.32 294.37 319.62 292.93 305.44 292.93"/><rect class="e" x="306.86" y="295.82" width="1.42" height="1.42" rx="0.28"/><rect class="e" x="316.78" y="295.82" width="1.42" height="1.42" rx="0.28"/><polygon points="305.47 285.73 304.76 287.17 304.76 291.49 305.47 292.93 319.64 292.93 320.35 291.49 320.35 287.17 319.64 285.73 305.47 285.73"/><rect class="e" x="306.89" y="288.62" width="1.42" height="1.42" rx="0.28"/><rect class="e" x="316.81" y="288.62" width="1.42" height="1.42" rx="0.28"/><polygon points="305.44 278.53 304.73 279.97 304.73 284.29 305.44 285.73 319.62 285.73 320.32 284.29 320.32 279.97 319.62 278.53 305.44 278.53"/><rect class="e" x="306.86" y="281.42" width="1.42" height="1.42" rx="0.28"/><rect class="e" x="316.78" y="281.42" width="1.42" height="1.42" rx="0.28"/><polygon points="305.44 271.33 304.73 272.77 304.73 277.09 305.44 278.53 319.62 278.53 320.32 277.09 320.32 272.77 319.62 271.33 305.44 271.33"/><rect class="e" x="306.86" y="274.22" width="1.42" height="1.42" rx="0.28"/><rect class="e" x="316.78" y="274.22" width="1.42" height="1.42" rx="0.28"/><polygon points="305.44 264.13 304.73 265.57 304.73 269.89 305.44 271.33 319.62 271.33 320.32 269.89 320.32 265.57 319.62 264.13 305.44 264.13"/><rect class="e" x="306.86" y="267.02" width="1.42" height="1.42" rx="0.28"/><rect class="e" x="316.78" y="267.02" width="1.42" height="1.42" rx="0.28"/><polygon points="305.44 256.93 304.73 258.37 304.73 262.69 305.44 264.13 319.62 264.13 320.32 262.69 320.32 258.37 319.62 256.93 305.44 256.93"/><rect class="e" x="306.86" y="259.82" width="1.42" height="1.42" rx="0.28"/><rect class="e" x="316.78" y="259.82" width="1.42" height="1.42" rx="0.28"/><polygon points="305.44 249.73 304.73 251.17 304.73 255.49 305.44 256.93 319.62 256.93 320.32 255.49 320.32 251.17 319.62 249.73 305.44 249.73"/><rect class="e" x="306.86" y="252.62" width="1.42" height="1.42" rx="0.28"/><rect class="e" x="316.78" y="252.62" width="1.42" height="1.42" rx="0.28"/><polygon points="305.44 242.53 304.73 243.97 304.73 248.29 305.44 249.73 319.62 249.73 320.32 248.29 320.32 243.97 319.62 242.53 305.44 242.53"/><rect class="e" x="306.86" y="245.42" width="1.42" height="1.42" rx="0.28"/><rect class="e" x="316.78" y="245.42" width="1.42" height="1.42" rx="0.28"/><polygon points="305.44 235.33 304.73 236.77 304.73 241.09 305.44 242.53 319.62 242.53 320.32 241.09 320.32 236.77 319.62 235.33 305.44 235.33"/><rect class="e" x="306.86" y="238.22" width="1.42" height="1.42" rx="0.28"/><rect class="e" x="316.78" y="238.22" width="1.42" height="1.42" rx="0.28"/><polygon points="305.44 228.13 304.73 229.57 304.73 233.89 305.44 235.33 319.62 235.33 320.32 233.89 320.32 229.57 319.62 228.13 305.44 228.13"/><rect class="e" x="306.86" y="231.02" width="1.42" height="1.42" rx="0.28"/><rect class="e" x="316.78" y="231.02" width="1.42" height="1.42" rx="0.28"/><polygon points="305.44 220.93 304.73 222.37 304.73 226.69 305.44 228.13 319.62 228.13 320.32 226.69 320.32 222.37 319.62 220.93 305.44 220.93"/><rect class="e" x="306.86" y="223.82" width="1.42" height="1.42" rx="0.28"/><rect class="e" x="316.78" y="223.82" width="1.42" height="1.42" rx="0.28"/><polygon points="305.44 213.73 304.73 215.17 304.73 219.49 305.44 220.93 319.62 220.93 320.32 219.49 320.32 215.17 319.62 213.73 305.44 213.73"/><rect class="e" x="306.86" y="216.62" width="1.42" height="1.42" rx="0.28"/><rect class="e" x="316.78" y="216.62" width="1.42" height="1.42" rx="0.28"/><polygon points="305.44 206.53 304.73 207.97 304.73 212.29 305.44 213.73 319.62 213.73 320.32 212.29 320.32 207.97 319.62 206.53 305.44 206.53"/><rect class="e" x="306.86" y="209.42" width="1.42" height="1.42" rx="0.28"/><rect class="e" x="316.78" y="209.42" width="1.42" height="1.42" rx="0.28"/><polygon points="305.44 199.33 304.73 200.77 304.73 205.09 305.44 206.53 319.62 206.53 320.32 205.09 320.32 200.77 319.62 199.33 305.44 199.33"/><rect class="e" x="306.86" y="202.22" width="1.42" height="1.42" rx="0.28"/><rect class="e" x="316.78" y="202.22" width="1.42" height="1.42" rx="0.28"/><polygon points="305.44 192.13 304.73 193.57 304.73 197.89 305.44 199.33 319.62 199.33 320.32 197.89 320.32 193.57 319.62 192.13 305.44 192.13"/><rect class="e" x="306.86" y="195.02" width="1.42" height="1.42" rx="0.28"/><rect class="e" x="316.78" y="195.02" width="1.42" height="1.42" rx="0.28"/><polygon points="305.44 184.93 304.73 186.37 304.73 190.69 305.44 192.13 319.62 192.13 320.32 190.69 320.32 186.37 319.62 184.93 305.44 184.93"/><rect class="e" x="306.86" y="187.82" width="1.42" height="1.42" rx="0.28"/><rect class="e" x="316.78" y="187.82" width="1.42" height="1.42" rx="0.28"/><polygon points="322.86 174.72 322.15 176.16 322.15 180.49 322.86 181.93 337.04 181.93 337.74 180.49 337.74 176.16 337.04 174.72 322.86 174.72"/><rect class="e" x="324.28" y="177.62" width="1.42" height="1.42" rx="0.28"/><rect class="e" x="334.2" y="177.62" width="1.42" height="1.42" rx="0.28"/><polygon points="322.86 167.53 322.15 168.97 322.15 173.28 322.86 174.72 337.04 174.72 337.74 173.28 337.74 168.97 337.04 167.53 322.86 167.53"/><rect class="e" x="324.28" y="170.42" width="1.42" height="1.42" rx="0.28"/><rect class="e" x="334.2" y="170.42" width="1.42" height="1.42" rx="0.28"/><path class="b" d="M286,108.11H144.27a8.51,8.51,0,0,0-8.5,8.51V340.55a8.51,8.51,0,0,0,8.5,8.51H286a8.51,8.51,0,0,0,8.5-8.51V116.62A8.51,8.51,0,0,0,286,108.11ZM145.69,343a3.83,3.83,0,1,1,3.83-3.83A3.82,3.82,0,0,1,145.69,343Zm0-164.41a3.83,3.83,0,1,1,3.83-3.82A3.82,3.82,0,0,1,145.69,178.55ZM284.59,343a3.83,3.83,0,1,1,3.83-3.83A3.83,3.83,0,0,1,284.59,343Zm0-164.41a3.83,3.83,0,1,1,3.83-3.82A3.83,3.83,0,0,1,284.59,178.55Z"/><path class="c" d="M145.69,330.63a8.51,8.51,0,1,0,8.51,8.5A8.51,8.51,0,0,0,145.69,330.63Zm0,12.33a3.83,3.83,0,1,1,3.83-3.82A3.83,3.83,0,0,1,145.69,343Z"/><path class="c" d="M284.59,330.63a8.51,8.51,0,1,0,8.5,8.5A8.5,8.5,0,0,0,284.59,330.63Zm0,12.33a3.83,3.83,0,1,1,3.83-3.82A3.83,3.83,0,0,1,284.59,343Z"/><path class="c" d="M284.59,166.22a8.51,8.51,0,1,0,8.5,8.51A8.5,8.5,0,0,0,284.59,166.22Zm0,12.33a3.83,3.83,0,1,1,3.83-3.82A3.83,3.83,0,0,1,284.59,178.55Z"/><path class="c" d="M145.69,166.22a8.51,8.51,0,1,0,8.51,8.51A8.51,8.51,0,0,0,145.69,166.22Zm0,12.33a3.83,3.83,0,1,1,3.83-3.82A3.83,3.83,0,0,1,145.69,178.55Z"/><polygon points="283.81 214.71 280.91 211.56 280.91 211.56 242.91 211.56 242.91 211.56 240.01 214.71 230.02 214.71 230.02 222.93 293.8 222.93 293.8 214.71 283.81 214.71"/><rect class="d" x="239.15" y="220.82" width="45.52" height="2"/><polygon class="e" points="223.74 286.38 223.74 244.78 181.03 244.78 181.03 287.5 222.57 287.5 223.74 286.38"/><rect class="e" x="142.74" y="99.72" width="44.18" height="60.68"/><polygon class="e" points="237.82 99.48 198.13 99.48 198.13 100.36 198.74 100.36 198.74 149.31 236.21 149.31 236.21 100.36 237.82 100.36 237.82 99.48"/><polygon class="e" points="288.84 99.88 249.16 99.88 249.16 101.65 250.26 101.65 250.26 150.25 287.73 150.25 287.73 101.65 288.84 101.65 288.84 99.88"/><polygon points="192.99 340.25 195.88 343.4 195.88 343.4 233.88 343.4 233.88 343.4 236.78 340.25 246.77 340.25 246.77 332.03 183 332.03 183 340.25 192.99 340.25"/><rect class="d" x="192.12" y="332.14" width="45.52" height="2" transform="translate(429.77 666.29) rotate(180)"/><polygon class="e" points="296.71 232.59 295.87 233.81 274.7 233.81 274.7 251.71 295.87 251.71 295.87 251.71 296.71 252.92 297.38 252.92 297.38 232.59 296.71 232.59"/><polygon class="e" points="296.65 270.86 295.81 272.07 274.64 272.07 274.64 289.98 295.81 289.98 295.81 289.98 296.65 291.19 297.32 291.19 297.32 270.86 296.65 270.86"/><rect class="e" x="276.36" y="304.88" width="20" height="24.85"/><polygon points="296.38 187.99 288.95 187.99 288.95 185.93 252.95 185.93 252.95 206.04 288.95 206.04 288.95 204.99 296.38 204.99 296.38 187.99"/><polygon points="138.59 321.73 137.88 323.17 137.88 327.49 138.59 328.93 152.76 328.93 153.47 327.49 153.47 323.17 152.76 321.73 138.59 321.73"/><rect class="e" x="140.01" y="324.62" width="1.42" height="1.42" rx="0.28"/><rect class="e" x="149.93" y="324.62" width="1.42" height="1.42" rx="0.28"/><polygon points="138.59 314.53 137.88 315.97 137.88 320.29 138.59 321.73 152.76 321.73 153.47 320.29 153.47 315.97 152.76 314.53 138.59 314.53"/><rect class="e" x="140.01" y="317.42" width="1.42" height="1.42" rx="0.28"/><rect class="e" x="149.93" y="317.42" width="1.42" height="1.42" rx="0.28"/><polygon points="138.59 307.33 137.88 308.77 137.88 313.09 138.59 314.53 152.76 314.53 153.47 313.09 153.47 308.77 152.76 307.33 138.59 307.33"/><rect class="e" x="140.01" y="310.22" width="1.42" height="1.42" rx="0.28"/><rect class="e" x="149.93" y="310.22" width="1.42" height="1.42" rx="0.28"/><polygon points="138.59 300.13 137.88 301.57 137.88 305.89 138.59 307.33 152.76 307.33 153.47 305.89 153.47 301.57 152.76 300.13 138.59 300.13"/><rect class="e" x="140.01" y="303.02" width="1.42" height="1.42" rx="0.28"/><rect class="e" x="149.93" y="303.02" width="1.42" height="1.42" rx="0.28"/><polygon points="138.59 292.93 137.88 294.37 137.88 298.69 138.59 300.13 152.76 300.13 153.47 298.69 153.47 294.37 152.76 292.93 138.59 292.93"/><rect class="e" x="140.01" y="295.82" width="1.42" height="1.42" rx="0.28"/><rect class="e" x="149.93" y="295.82" width="1.42" height="1.42" rx="0.28"/><polygon points="138.62 285.73 137.91 287.17 137.91 291.49 138.62 292.93 152.79 292.93 153.5 291.49 153.5 287.17 152.79 285.73 138.62 285.73"/><rect class="e" x="140.04" y="288.62" width="1.42" height="1.42" rx="0.28"/><rect class="e" x="149.96" y="288.62" width="1.42" height="1.42" rx="0.28"/><polygon points="138.59 278.53 137.88 279.97 137.88 284.29 138.59 285.73 152.76 285.73 153.47 284.29 153.47 279.97 152.76 278.53 138.59 278.53"/><rect class="e" x="140.01" y="281.42" width="1.42" height="1.42" rx="0.28"/><rect class="e" x="149.93" y="281.42" width="1.42" height="1.42" rx="0.28"/><polygon points="138.59 271.33 137.88 272.77 137.88 277.09 138.59 278.53 152.76 278.53 153.47 277.09 153.47 272.77 152.76 271.33 138.59 271.33"/><rect class="e" x="140.01" y="274.22" width="1.42" height="1.42" rx="0.28"/><rect class="e" x="149.93" y="274.22" width="1.42" height="1.42" rx="0.28"/><polygon points="138.59 264.13 137.88 265.57 137.88 269.89 138.59 271.33 152.76 271.33 153.47 269.89 153.47 265.57 152.76 264.13 138.59 264.13"/><rect class="e" x="140.01" y="267.02" width="1.42" height="1.42" rx="0.28"/><rect class="e" x="149.93" y="267.02" width="1.42" height="1.42" rx="0.28"/><polygon points="138.59 256.93 137.88 258.37 137.88 262.69 138.59 264.13 152.76 264.13 153.47 262.69 153.47 258.37 152.76 256.93 138.59 256.93"/><rect class="e" x="140.01" y="259.82" width="1.42" height="1.42" rx="0.28"/><rect class="e" x="149.93" y="259.82" width="1.42" height="1.42" rx="0.28"/><polygon points="138.59 249.73 137.88 251.17 137.88 255.49 138.59 256.93 152.76 256.93 153.47 255.49 153.47 251.17 152.76 249.73 138.59 249.73"/><rect class="e" x="140.01" y="252.62" width="1.42" height="1.42" rx="0.28"/><rect class="e" x="149.93" y="252.62" width="1.42" height="1.42" rx="0.28"/><polygon points="138.59 242.53 137.88 243.97 137.88 248.29 138.59 249.73 152.76 249.73 153.47 248.29 153.47 243.97 152.76 242.53 138.59 242.53"/><rect class="e" x="140.01" y="245.42" width="1.42" height="1.42" rx="0.28"/><rect class="e" x="149.93" y="245.42" width="1.42" height="1.42" rx="0.28"/><polygon points="138.59 235.33 137.88 236.77 137.88 241.09 138.59 242.53 152.76 242.53 153.47 241.09 153.47 236.77 152.76 235.33 138.59 235.33"/><rect class="e" x="140.01" y="238.22" width="1.42" height="1.42" rx="0.28"/><rect class="e" x="149.93" y="238.22" width="1.42" height="1.42" rx="0.28"/><polygon points="138.59 228.13 137.88 229.57 137.88 233.89 138.59 235.33 152.76 235.33 153.47 233.89 153.47 229.57 152.76 228.13 138.59 228.13"/><rect class="e" x="140.01" y="231.02" width="1.42" height="1.42" rx="0.28"/><rect class="e" x="149.93" y="231.02" width="1.42" height="1.42" rx="0.28"/><polygon points="138.59 220.93 137.88 222.37 137.88 226.69 138.59 228.13 152.76 228.13 153.47 226.69 153.47 222.37 152.76 220.93 138.59 220.93"/><rect class="e" x="140.01" y="223.82" width="1.42" height="1.42" rx="0.28"/><rect class="e" x="149.93" y="223.82" width="1.42" height="1.42" rx="0.28"/><polygon points="138.59 213.73 137.88 215.17 137.88 219.49 138.59 220.93 152.76 220.93 153.47 219.49 153.47 215.17 152.76 213.73 138.59 213.73"/><rect class="e" x="140.01" y="216.62" width="1.42" height="1.42" rx="0.28"/><rect class="e" x="149.93" y="216.62" width="1.42" height="1.42" rx="0.28"/><polygon points="138.59 206.53 137.88 207.97 137.88 212.29 138.59 213.73 152.76 213.73 153.47 212.29 153.47 207.97 152.76 206.53 138.59 206.53"/><rect class="e" x="140.01" y="209.42" width="1.42" height="1.42" rx="0.28"/><rect class="e" x="149.93" y="209.42" width="1.42" height="1.42" rx="0.28"/><polygon points="138.59 199.33 137.88 200.77 137.88 205.09 138.59 206.53 152.76 206.53 153.47 205.09 153.47 200.77 152.76 199.33 138.59 199.33"/><rect class="e" x="140.01" y="202.22" width="1.42" height="1.42" rx="0.28"/><rect class="e" x="149.93" y="202.22" width="1.42" height="1.42" rx="0.28"/><polygon points="138.59 192.13 137.88 193.57 137.88 197.89 138.59 199.33 152.76 199.33 153.47 197.89 153.47 193.57 152.76 192.13 138.59 192.13"/><rect class="e" x="140.01" y="195.02" width="1.42" height="1.42" rx="0.28"/><rect class="e" x="149.93" y="195.02" width="1.42" height="1.42" rx="0.28"/><polygon points="138.59 184.93 137.88 186.37 137.88 190.69 138.59 192.13 152.76 192.13 153.47 190.69 153.47 186.37 152.76 184.93 138.59 184.93"/><rect class="e" x="140.01" y="187.82" width="1.42" height="1.42" rx="0.28"/><rect class="e" x="149.93" y="187.82" width="1.42" height="1.42" rx="0.28"/><polygon points="156.01 174.72 155.3 176.16 155.3 180.49 156.01 181.93 170.18 181.93 170.89 180.49 170.89 176.16 170.18 174.72 156.01 174.72"/><rect class="e" x="157.43" y="177.62" width="1.42" height="1.42" rx="0.28"/><rect class="e" x="167.35" y="177.62" width="1.42" height="1.42" rx="0.28"/><polygon points="156.01 167.53 155.3 168.97 155.3 173.28 156.01 174.72 170.18 174.72 170.89 173.28 170.89 168.97 170.18 167.53 156.01 167.53"/><rect class="e" x="157.43" y="170.42" width="1.42" height="1.42" rx="0.28"/><rect class="e" x="167.35" y="170.42" width="1.42" height="1.42" rx="0.28"/><path class="f" d="M429.77,328.93V228.7H377.54v-65h-75v21.26H322V307.33H302.59v33.22a8.5,8.5,0,0,0,8.5,8.51h36.85V329.28h67.14v19.78h37.74a8.51,8.51,0,0,0,8.5-8.51V328.93ZM312.5,183.23a8.51,8.51,0,1,1,8.51-8.51A8.51,8.51,0,0,1,312.5,183.23Zm0,164.41a8.51,8.51,0,1,1,8.51-8.51A8.51,8.51,0,0,1,312.5,347.64Zm80.42-57.32H347.53v-46h45.39Zm58.48,57.32a8.51,8.51,0,1,1,8.51-8.51A8.5,8.5,0,0,1,451.4,347.64Z"/><rect x="322.11" y="167.52" width="15.59" height="14.4"/><rect class="e" x="324.24" y="177.62" width="1.42" height="1.42" rx="0.28"/><rect class="e" x="334.16" y="177.62" width="1.42" height="1.42" rx="0.28"/><rect class="e" x="324.24" y="170.42" width="1.42" height="1.42" rx="0.28"/><rect class="e" x="334.16" y="170.42" width="1.42" height="1.42" rx="0.28"/><rect x="304.71" y="307.33" width="15.59" height="21.6"/><rect class="e" x="306.84" y="324.62" width="1.42" height="1.42" rx="0.28"/><rect class="e" x="316.76" y="324.62" width="1.42" height="1.42" rx="0.28"/><rect class="e" x="306.84" y="317.42" width="1.42" height="1.42" rx="0.28"/><rect class="e" x="316.76" y="317.42" width="1.42" height="1.42" rx="0.28"/><rect class="e" x="306.84" y="310.22" width="1.42" height="1.42" rx="0.28"/><rect class="e" x="316.76" y="310.22" width="1.42" height="1.42" rx="0.28"/><polygon points="418.17 290.21 419.61 290.92 423.93 290.92 425.37 290.21 425.37 276.04 423.93 275.33 419.61 275.33 418.17 276.04 418.17 290.21"/><rect class="g" x="421.07" y="287.37" width="1.42" height="1.42" rx="0.28" transform="translate(133.69 709.86) rotate(-90)"/><rect class="e" x="409.73" y="275.1" width="24.09" height="1.42" rx="0.28" transform="translate(145.96 697.58) rotate(-90)"/><polygon points="410.97 290.21 412.41 290.92 416.73 290.92 418.17 290.21 418.17 276.04 416.73 275.33 412.41 275.33 410.97 276.04 410.97 290.21"/><rect class="g" x="413.87" y="287.37" width="1.42" height="1.42" rx="0.28" transform="translate(126.49 702.66) rotate(-90)"/><rect class="e" x="402.53" y="275.1" width="24.09" height="1.42" rx="0.28" transform="translate(138.76 690.38) rotate(-90)"/><polygon points="403.77 290.21 405.21 290.92 409.53 290.92 410.97 290.21 410.97 276.04 409.53 275.33 405.21 275.33 403.77 276.04 403.77 290.21"/><rect class="g" x="406.67" y="287.37" width="1.42" height="1.42" rx="0.28" transform="translate(119.29 695.46) rotate(-90)"/><rect class="e" x="395.33" y="275.1" width="24.09" height="1.42" rx="0.28" transform="translate(131.56 683.18) rotate(-90)"/><polygon points="396.57 290.21 398.01 290.92 402.33 290.92 403.77 290.21 403.77 276.04 402.33 275.33 398.01 275.33 396.57 276.04 396.57 290.21"/><rect class="g" x="399.47" y="287.37" width="1.42" height="1.42" rx="0.28" transform="translate(112.09 688.26) rotate(-90)"/><rect class="e" x="388.13" y="275.1" width="24.09" height="1.42" rx="0.28" transform="translate(124.36 675.98) rotate(-90)"/><path class="f" d="M263,329.1V228.87H210.79V163.82H135.84v21.26h19.43V307.5H135.84v33.22a8.5,8.5,0,0,0,8.5,8.5h36.85V329.44h67.14v19.78h37.74a8.49,8.49,0,0,0,8.5-8.5V329.1ZM145.76,183.4a8.51,8.51,0,1,1,8.5-8.51A8.51,8.51,0,0,1,145.76,183.4Zm0,164.41a8.51,8.51,0,1,1,8.5-8.51A8.51,8.51,0,0,1,145.76,347.81Zm80.41-57.32H180.79v-46h45.38Zm58.49,57.32a8.51,8.51,0,1,1,8.5-8.51A8.51,8.51,0,0,1,284.66,347.81Z"/><rect x="155.37" y="167.69" width="15.59" height="14.4"/><rect class="e" x="157.49" y="177.78" width="1.42" height="1.42" rx="0.28"/><rect class="e" x="167.42" y="177.78" width="1.42" height="1.42" rx="0.28"/><rect class="e" x="157.49" y="170.58" width="1.42" height="1.42" rx="0.28"/><rect class="e" x="167.42" y="170.58" width="1.42" height="1.42" rx="0.28"/><rect x="137.96" y="307.5" width="15.59" height="21.6"/><rect class="e" x="140.09" y="324.79" width="1.42" height="1.42" rx="0.28"/><rect class="e" x="150.01" y="324.79" width="1.42" height="1.42" rx="0.28"/><rect class="e" x="140.09" y="317.59" width="1.42" height="1.42" rx="0.28"/><rect class="e" x="150.01" y="317.59" width="1.42" height="1.42" rx="0.28"/><rect class="e" x="140.09" y="310.39" width="1.42" height="1.42" rx="0.28"/><rect class="e" x="150.01" y="310.39" width="1.42" height="1.42" rx="0.28"/><polygon points="251.43 290.38 252.87 291.08 257.19 291.08 258.63 290.38 258.63 276.2 257.19 275.5 252.87 275.5 251.43 276.2 251.43 290.38"/><rect class="g" x="254.32" y="287.54" width="1.42" height="1.42" rx="0.28" transform="translate(-33.22 543.28) rotate(-90)"/><rect class="e" x="242.98" y="275.27" width="24.09" height="1.42" rx="0.28" transform="translate(-20.95 531.01) rotate(-90)"/><polygon points="244.23 290.38 245.67 291.08 249.99 291.08 251.43 290.38 251.43 276.2 249.99 275.5 245.67 275.5 244.23 276.2 244.23 290.38"/><rect class="g" x="247.12" y="287.54" width="1.42" height="1.42" rx="0.28" transform="translate(-40.42 536.08) rotate(-90)"/><rect class="e" x="235.78" y="275.27" width="24.09" height="1.42" rx="0.28" transform="translate(-28.15 523.81) rotate(-90)"/><polygon points="237.03 290.38 238.47 291.08 242.79 291.08 244.23 290.38 244.23 276.2 242.79 275.5 238.47 275.5 237.03 276.2 237.03 290.38"/><rect class="g" x="239.92" y="287.54" width="1.42" height="1.42" rx="0.28" transform="translate(-47.62 528.88) rotate(-90)"/><rect class="e" x="228.58" y="275.27" width="24.09" height="1.42" rx="0.28" transform="translate(-35.35 516.61) rotate(-90)"/><polygon points="229.83 290.38 231.27 291.08 235.59 291.08 237.03 290.38 237.03 276.2 235.59 275.5 231.27 275.5 229.83 276.2 229.83 290.38"/><rect class="g" x="232.72" y="287.54" width="1.42" height="1.42" rx="0.28" transform="translate(-54.82 521.68) rotate(-90)"/><rect class="e" x="221.38" y="275.27" width="24.09" height="1.42" rx="0.28" transform="translate(-42.55 509.41) rotate(-90)"/><path class="h" d="M380.79,43.83V86.35h59.52V43.83Zm8.74,39.89a3.71,3.71,0,1,1,3.7-3.71A3.7,3.7,0,0,1,389.53,83.72Zm42.05,0a3.71,3.71,0,1,1,3.7-3.71A3.71,3.71,0,0,1,431.58,83.72Z"/><polyline points="388.95 45.56 387.51 44.85 383.19 44.85 381.75 45.56 381.75 51.94 383.19 52.65 387.51 52.65 388.95 51.94"/><line class="i" x1="381.75" y1="51.94" x2="381.75" y2="51.94"/><rect class="e" x="384.64" y="48.04" width="1.42" height="1.42" rx="0.28" transform="translate(434.1 -336.6) rotate(90)"/><polyline points="396.15 45.56 394.71 44.85 390.39 44.85 388.95 45.56 388.95 51.94 390.39 52.65 394.71 52.65 396.15 51.94"/><line class="i" x1="388.95" y1="51.94" x2="388.95" y2="51.94"/><rect class="e" x="391.84" y="48.04" width="1.42" height="1.42" rx="0.28" transform="translate(441.3 -343.8) rotate(90)"/><polyline points="403.35 45.56 401.91 44.85 397.59 44.85 396.15 45.56 396.15 51.94 397.59 52.65 401.91 52.65 403.35 51.94"/><line class="i" x1="396.15" y1="51.94" x2="396.15" y2="51.94"/><rect class="e" x="399.04" y="48.04" width="1.42" height="1.42" rx="0.28" transform="translate(448.5 -351) rotate(90)"/><polyline points="410.55 45.56 409.11 44.85 404.79 44.85 403.35 45.56 403.35 51.94 404.79 52.65 409.11 52.65 410.55 51.94"/><line class="i" x1="403.35" y1="51.94" x2="403.35" y2="51.94"/><rect class="e" x="406.24" y="48.04" width="1.42" height="1.42" rx="0.28" transform="translate(455.7 -358.2) rotate(90)"/><polyline points="439.35 45.56 437.91 44.85 433.59 44.85 432.15 45.56 432.15 51.94 433.59 52.65 437.91 52.65 439.35 51.94"/><line class="i" x1="432.15" y1="51.94" x2="432.15" y2="51.94"/><rect class="e" x="435.04" y="48.04" width="1.42" height="1.42" rx="0.28" transform="translate(484.5 -387) rotate(90)"/><polyline points="432.15 45.56 430.71 44.85 426.39 44.85 424.95 45.56 424.95 51.94 426.39 52.65 430.71 52.65 432.15 51.94"/><line class="i" x1="424.95" y1="51.94" x2="424.95" y2="51.94"/><rect class="e" x="427.84" y="48.04" width="1.42" height="1.42" rx="0.28" transform="translate(477.3 -379.8) rotate(90)"/><polyline points="424.95 45.56 423.51 44.85 419.19 44.85 417.75 45.56 417.75 51.94 419.19 52.65 423.51 52.65 424.95 51.94"/><line class="i" x1="417.75" y1="51.94" x2="417.75" y2="51.94"/><rect class="e" x="420.64" y="48.04" width="1.42" height="1.42" rx="0.28" transform="translate(470.1 -372.6) rotate(90)"/><polyline points="417.75 45.56 416.31 44.85 411.99 44.85 410.55 45.56 410.55 51.94 411.99 52.65 416.31 52.65 417.75 51.94"/><line class="i" x1="410.55" y1="51.94" x2="410.55" y2="51.94"/><rect class="e" x="413.44" y="48.04" width="1.42" height="1.42" rx="0.28" transform="translate(462.9 -365.4) rotate(90)"/><path class="h" d="M215,43.83V86.35h59.53V43.83Zm8.74,39.89A3.71,3.71,0,1,1,227.4,80,3.71,3.71,0,0,1,223.7,83.72Zm42.05,0a3.71,3.71,0,1,1,3.7-3.71A3.71,3.71,0,0,1,265.75,83.72Z"/><polyline points="223.13 45.56 221.69 44.85 217.37 44.85 215.93 45.56 215.93 51.94 217.37 52.65 221.68 52.65 223.12 51.94"/><line class="i" x1="215.92" y1="51.94" x2="215.93" y2="51.94"/><rect class="e" x="218.82" y="48.04" width="1.42" height="1.42" rx="0.28" transform="translate(268.28 -170.77) rotate(90)"/><polyline points="230.32 45.56 228.88 44.85 224.56 44.85 223.12 45.56 223.12 51.94 224.56 52.65 228.88 52.65 230.32 51.94"/><line class="i" x1="223.12" y1="51.94" x2="223.12" y2="51.94"/><rect class="e" x="226.01" y="48.04" width="1.42" height="1.42" rx="0.28" transform="translate(275.47 -177.97) rotate(90)"/><polyline points="237.52 45.56 236.08 44.85 231.76 44.85 230.32 45.56 230.32 51.94 231.76 52.65 236.08 52.65 237.52 51.94"/><line class="i" x1="230.32" y1="51.94" x2="230.32" y2="51.94"/><rect class="e" x="233.21" y="48.04" width="1.42" height="1.42" rx="0.28" transform="translate(282.67 -185.17) rotate(90)"/><polyline points="244.72 45.56 243.28 44.85 238.96 44.85 237.52 45.56 237.52 51.94 238.96 52.65 243.28 52.65 244.72 51.94"/><line class="i" x1="237.52" y1="51.94" x2="237.52" y2="51.94"/><rect class="e" x="240.41" y="48.04" width="1.42" height="1.42" rx="0.28" transform="translate(289.87 -192.37) rotate(90)"/><polyline points="273.52 45.56 272.08 44.85 267.76 44.85 266.32 45.56 266.32 51.94 267.76 52.65 272.08 52.65 273.52 51.94"/><line class="i" x1="266.32" y1="51.94" x2="266.32" y2="51.94"/><rect class="e" x="269.21" y="48.04" width="1.42" height="1.42" rx="0.28" transform="translate(318.67 -221.17) rotate(90)"/><polyline points="266.32 45.56 264.88 44.85 260.56 44.85 259.12 45.56 259.12 51.94 260.56 52.65 264.88 52.65 266.32 51.94"/><line class="i" x1="259.12" y1="51.94" x2="259.12" y2="51.94"/><rect class="e" x="262.01" y="48.04" width="1.42" height="1.42" rx="0.28" transform="translate(311.47 -213.97) rotate(90)"/><polyline points="259.12 45.56 257.68 44.85 253.36 44.85 251.92 45.56 251.92 51.94 253.36 52.65 257.68 52.65 259.12 51.94"/><line class="i" x1="251.92" y1="51.94" x2="251.92" y2="51.94"/><rect class="e" x="254.81" y="48.04" width="1.42" height="1.42" rx="0.28" transform="translate(304.27 -206.77) rotate(90)"/><polyline points="251.92 45.56 250.48 44.85 246.16 44.85 244.72 45.56 244.72 51.94 246.16 52.65 250.48 52.65 251.92 51.94"/><line class="i" x1="244.72" y1="51.94" x2="244.72" y2="51.94"/><rect class="e" x="247.61" y="48.04" width="1.42" height="1.42" rx="0.28" transform="translate(297.07 -199.57) rotate(90)"/><rect class="j" x="410.51" y="45.28" width="29" height="7"/><path class="k" d="M435.75,48.75c-41.68,80.57-52.1,172.44-21.18,209.53"/><path class="l" d="M428.55,48.75c-22.13,87.75-46,177.08-6.78,209.53"/><path class="m" d="M414.15,48.75C406,133.48,397,220.27,407.37,258.28"/><path class="n" d="M421.35,48.75c-11.46,83.74-23.76,170.15-21.18,209.53"/><rect class="j" x="396.54" y="257.28" width="29" height="26"/><rect class="j" x="243.65" y="45.28" width="29" height="7"/><path class="k" d="M268.9,48.75c-41.68,80.57-52.1,172.44-21.18,209.53"/><path class="o" d="M261.7,48.75c-22.13,87.75-46,177.08-6.78,209.53"/><path class="p" d="M247.3,48.75c-8.16,84.73-17.15,171.52-6.78,209.53"/><path class="q" d="M254.5,48.75C243,132.49,230.73,218.9,233.32,258.28"/><rect class="j" x="229.68" y="257.28" width="29" height="26"/></svg>