<svg xmlns="http://www.w3.org/2000/svg" viewBox="0 0 600 400"><defs><style>.a{fill:#ccc;}.b{fill:#1a1a1a;}.c{fill:#ff1d25;}.c,.d{opacity:0.75;}.d{fill:#ff0;}.e{fill:#29abe2;}.f{fill:red;}.g{fill:#754c24;}.h,.i,.j,.k,.l,.m,.n{fill:none;stroke-miterlimit:10;}.h,.i{stroke:#22b573;}.h,.i,.j,.l,.m{stroke-width:5px;}.i,.j,.k,.l,.m{stroke-linecap:round;}.j,.k{stroke:#ccc;}.l{stroke:#ff0;}.m{stroke:#0071bc;}.n{stroke:#000;stroke-width:3px;}.o{font-size:45.7px;font-family:Helvetica;}.p{letter-spacing:-0.07em;}</style></defs><rect x="81.06" y="184" width="12.95" height="12.95"/><rect class="a" x="81.17" y="184.11" width="12.73" height="12.73" rx="0.71"/><circle class="b" cx="87.54" cy="190.48" r="5.13"/><circle cx="87.54" cy="190.48" r="4.76"/><circle cx="82.68" cy="185.62" r="0.81"/><circle cx="82.68" cy="195.33" r="0.81"/><circle cx="92.39" cy="185.62" r="0.81"/><circle cx="92.39" cy="195.33" r="0.81"/><polygon class="a" points="225.04 180.68 225.04 180.68 224.21 179.85 224.21 174.27 223.13 174.27 223.13 175.75 223.13 175.14 217.97 175.14 223.13 180.3 223.13 180.3 223.13 180.3 223.13 180.3 223.13 180.3 223.96 181.13 223.96 216.16 225.04 216.16 225.04 180.68 225.04 180.68"/><polygon class="a" points="219.22 177.79 219.22 177.79 217.72 176.3 217.72 174.23 216.64 174.23 216.64 176.74 216.64 176.74 216.64 176.74 217.69 177.79 216.64 178.84 216.64 178.84 216.64 178.84 216.64 220.73 217.72 220.73 217.72 179.29 219.22 177.79 219.22 177.79"/><path class="c" d="M226.14,180.72V163.77c0-2-2.37-3.55-5.3-3.55s-5.3,1.59-5.3,3.55v16.95h-.64v2.15h11.88v-2.15Z"/><polygon class="a" points="415.47 180.68 415.47 180.68 414.64 179.85 414.64 174.27 413.56 174.27 413.56 175.75 413.56 175.14 408.41 175.14 413.56 180.3 413.56 180.3 413.56 180.3 413.56 180.3 413.56 180.3 414.39 181.13 414.39 216.16 415.47 216.16 415.47 180.68 415.47 180.68"/><polygon class="a" points="409.65 177.79 409.65 177.79 408.15 176.3 408.15 174.23 407.07 174.23 407.07 176.74 407.07 176.74 407.07 176.74 408.12 177.79 407.07 178.84 407.07 178.84 407.07 178.84 407.07 220.73 408.15 220.73 408.15 179.29 409.65 177.79 409.65 177.79"/><path class="d" d="M416.57,180.72V163.77c0-2-2.37-3.55-5.3-3.55s-5.3,1.59-5.3,3.55v16.95h-.64v2.15h11.88v-2.15Z"/><rect x="538.1" y="184" width="12.95" height="12.95"/><rect class="a" x="538.21" y="184.11" width="12.73" height="12.73" rx="0.71"/><circle class="b" cx="544.58" cy="190.48" r="5.13"/><circle cx="544.58" cy="190.48" r="4.76"/><circle cx="539.72" cy="185.62" r="0.81"/><circle cx="539.72" cy="195.33" r="0.81"/><circle cx="549.43" cy="185.62" r="0.81"/><circle cx="549.43" cy="195.33" r="0.81"/><rect class="e" x="447.29" y="183.22" width="4.15" height="14.51" rx="0.54"/><rect class="e" x="446.94" y="193.93" width="4.84" height="3.81" rx="0.5"/><rect class="e" x="446.94" y="183.22" width="4.84" height="3.81" rx="0.5"/><path class="e" d="M449.9,182.48h-1.08c0,.42-.24.76-.54.76h2.16C450.14,183.24,449.9,182.9,449.9,182.48Z"/><rect class="a" x="448.82" y="177.91" width="1.08" height="4.57"/><path class="e" d="M449.9,198.48h-1.08c0-.42-.24-.77-.54-.77h2.16C450.14,197.71,449.9,198.06,449.9,198.48Z"/><rect class="a" x="448.82" y="198.48" width="1.08" height="4.57"/><rect class="f" x="446.94" y="184.8" width="4.84" height="0.65"/><rect class="f" x="447.29" y="187.48" width="4.15" height="0.65"/><rect x="447.29" y="190.15" width="4.15" height="0.65"/><rect x="447.29" y="192.83" width="4.15" height="0.65"/><rect class="g" x="446.94" y="195.51" width="4.84" height="0.65"/><rect class="e" x="180.68" y="183.22" width="4.15" height="14.51" rx="0.54"/><rect class="e" x="180.33" y="193.93" width="4.84" height="3.81" rx="0.5"/><rect class="e" x="180.33" y="183.22" width="4.84" height="3.81" rx="0.5"/><path class="e" d="M183.29,182.48h-1.08c0,.42-.24.76-.54.76h2.16C183.53,183.24,183.29,182.9,183.29,182.48Z"/><rect class="a" x="182.21" y="177.91" width="1.08" height="4.57"/><path class="e" d="M183.29,198.48h-1.08c0-.42-.24-.77-.54-.77h2.16C183.53,197.71,183.29,198.06,183.29,198.48Z"/><rect class="a" x="182.21" y="198.48" width="1.08" height="4.57"/><rect class="f" x="180.33" y="184.8" width="4.84" height="0.65"/><rect class="f" x="180.68" y="187.48" width="4.15" height="0.65"/><rect x="180.68" y="190.15" width="4.15" height="0.65"/><rect x="180.68" y="192.83" width="4.15" height="0.65"/><rect class="g" x="180.33" y="195.51" width="4.84" height="0.65"/><line class="h" x1="125.62" y1="146.68" x2="125.62" y2="115.5"/><line class="i" x1="49.45" y1="144.77" x2="506.49" y2="144.77"/><line class="i" x1="49.45" y1="190.48" x2="49.45" y2="144.77"/><line class="i" x1="49.45" y1="190.48" x2="78.02" y2="190.48"/><line class="i" x1="506.49" y1="190.48" x2="506.49" y2="144.77"/><line class="i" x1="506.49" y1="190.48" x2="535.05" y2="190.48"/><line class="j" x1="430.32" y1="167.63" x2="430.32" y2="220.95"/><line class="j" x1="430.32" y1="220.95" x2="415.08" y2="220.95"/><line class="j" x1="449.36" y1="167.63" x2="430.32" y2="167.63"/><line class="k" x1="449.36" y1="167.63" x2="449.36" y2="175.24"/><line class="l" x1="316.06" y1="115.5" x2="316.06" y2="129.54"/><line class="l" x1="201.8" y1="129.54" x2="316.06" y2="129.54"/><line class="l" x1="201.8" y1="150.49" x2="201.8" y2="220.95"/><line class="l" x1="201.8" y1="220.95" x2="213.22" y2="220.95"/><line class="l" x1="201.8" y1="129.54" x2="201.8" y2="139.06"/><path class="l" d="M201.8,150a5.25,5.25,0,1,0,0-10.47"/><line class="j" x1="224.65" y1="232.37" x2="224.65" y2="220.95"/><line class="j" x1="224.65" y1="232.37" x2="182.75" y2="232.37"/><line class="j" x1="182.75" y1="232.37" x2="182.75" y2="205.71"/><line class="j" x1="449.36" y1="205.71" x2="449.36" y2="259.03"/><line class="j" x1="182.75" y1="175.24" x2="182.75" y2="167.63"/><line class="j" x1="182.75" y1="167.63" x2="159.9" y2="167.63"/><line class="j" x1="159.9" y1="167.63" x2="159.9" y2="259.03"/><line class="j" x1="449.36" y1="259.03" x2="159.9" y2="259.03"/><line class="j" x1="316.06" y1="259.03" x2="316.06" y2="283.79"/><line class="j" x1="87.54" y1="200" x2="87.54" y2="323.78"/><line class="j" x1="87.54" y1="323.78" x2="276.07" y2="323.78"/><line class="j" x1="544.57" y1="200" x2="544.57" y2="323.78"/><line class="j" x1="356.05" y1="323.78" x2="544.57" y2="323.78"/><line class="m" x1="506.49" y1="115.5" x2="506.49" y2="129.56"/><line class="m" x1="392.23" y1="129.56" x2="506.49" y2="129.56"/><line class="m" x1="392.23" y1="150.49" x2="392.23" y2="220.95"/><line class="m" x1="392.23" y1="220.95" x2="403.65" y2="220.95"/><line class="m" x1="392.23" y1="129.54" x2="392.23" y2="139.06"/><path class="m" d="M392.23,150a5.25,5.25,0,1,0,0-10.47"/><rect x="313.2" y="299.5" width="5.71" height="26.66"/><rect x="313.2" y="299.5" width="5.71" height="53.32" transform="translate(-10.11 642.22) rotate(-90)"/><rect x="313.2" y="316.64" width="5.71" height="38.09" transform="translate(-19.63 651.74) rotate(-90)"/><rect x="313.41" y="333.78" width="5.71" height="22.85" transform="translate(-28.94 661.47) rotate(-90)"/><circle class="n" cx="316.06" cy="323.78" r="38.09"/><circle class="n" cx="125.62" cy="76.22" r="38.09"/><text class="o" transform="translate(112.91 92.47)">7</text><circle class="n" cx="316.06" cy="76.22" r="38.09"/><text class="o" transform="translate(292.32 92.47)"><tspan class="p">1</tspan><tspan x="22.05" y="0">1</tspan></text><circle class="n" cx="506.49" cy="76.22" r="38.09"/><text class="o" transform="translate(481.07 92.47)">13</text></svg>