<svg xmlns="http://www.w3.org/2000/svg" viewBox="0 0 600 400"><defs><style>.a{fill:#bdccd4;opacity:0.5;}.b{fill:gray;}</style></defs><path class="a" d="M48,38V362H552V38Zm97.68,15.48a3.83,3.83,0,1,1-3.83,3.83A3.83,3.83,0,0,1,145.68,53.48Zm-79.88,293a3.83,3.83,0,1,1,3.83-3.83A3.82,3.82,0,0,1,65.8,346.52Zm0-285.39a3.83,3.83,0,1,1,3.83-3.82A3.82,3.82,0,0,1,65.8,61.13Zm64.94,248.52a25,25,0,0,1-50,0V90.35a25,25,0,0,1,50,0Zm14.91-135.19a3.83,3.83,0,1,1-3.82,3.82A3.82,3.82,0,0,1,145.65,174.46Zm0,172.06a3.83,3.83,0,1,1,3.83-3.83A3.83,3.83,0,0,1,145.68,346.52Zm8.73-254.47a12.05,12.05,0,1,1,12-12A12.05,12.05,0,0,1,154.41,92.05Zm85.35-23.21a7.8,7.8,0,1,1,7.8-7.8A7.8,7.8,0,0,1,239.76,68.84Zm120.48,0A7.8,7.8,0,1,1,368,61,7.8,7.8,0,0,1,360.24,68.84ZM430.45,80a12,12,0,1,1,12,12A12,12,0,0,1,430.45,80ZM451.4,346.52a3.83,3.83,0,1,1,3.83-3.83A3.83,3.83,0,0,1,451.4,346.52Zm0-164.41a3.83,3.83,0,1,1,3.83-3.83A3.83,3.83,0,0,1,451.4,182.11Zm0-121a3.83,3.83,0,1,1,3.83-3.82A3.83,3.83,0,0,1,451.4,61.13Zm64.94,248.52a25,25,0,0,1-50,0V90.35a25,25,0,0,1,50,0Zm14.94,36.87a3.83,3.83,0,1,1,3.82-3.83A3.82,3.82,0,0,1,531.28,346.52Zm0-285.39a3.83,3.83,0,1,1,3.82-3.82A3.82,3.82,0,0,1,531.28,61.13Z"/><rect class="b" x="158.27" y="60.39" width="283.46" height="279.21"/><circle cx="222.41" cy="201.35" r="10.63"/><circle cx="242.28" cy="201.35" r="4.96"/><rect x="222.41" y="196.39" width="19.87" height="9.92"/><circle cx="222.41" cy="181.48" r="4.96"/><rect x="212.47" y="186.46" width="19.87" height="9.92" transform="translate(30.99 413.82) rotate(-90)"/><circle cx="369.16" cy="201.35" r="10.63"/><circle cx="389.03" cy="201.35" r="4.96"/><rect x="369.16" y="196.39" width="19.87" height="9.92"/><circle cx="369.16" cy="181.48" r="4.96"/><rect x="359.23" y="186.46" width="19.87" height="9.92" transform="translate(177.75 560.58) rotate(-90)"/></svg>