<svg xmlns="http://www.w3.org/2000/svg" viewBox="0 0 600 400"><defs><style>.a{fill:#bdccd4;opacity:0.5;}.b{fill:#93278f;}.c{fill:#7ac943;}.d{fill:#fbb03b;}.e{fill:#ffefc9;}.f{fill:#ccc;}.g{fill:#4d4d4d;}.h{fill:#b3b3b3;}.i{fill:#3fa9f5;}.j{fill:#ff0;}.k{fill:#1a1a1a;}.l,.m,.n,.o,.p,.q,.r{fill:none;stroke-linecap:round;stroke-miterlimit:10;stroke-width:2px;}.l{stroke:#fff;}.m{stroke:#333;}.n{stroke:#ff931e;}.o{stroke:#662d91;}.p{stroke:#666;}.q{stroke:#0071bc;}.r{stroke:#ff0;}</style></defs><path class="a" d="M48,38V362H552V38Zm97.68,15.48a3.83,3.83,0,1,1-3.83,3.83A3.83,3.83,0,0,1,145.68,53.48Zm-79.88,293a3.83,3.83,0,1,1,3.83-3.83A3.82,3.82,0,0,1,65.8,346.52Zm0-285.39a3.83,3.83,0,1,1,3.83-3.82A3.82,3.82,0,0,1,65.8,61.13Zm64.94,248.52a25,25,0,0,1-50,0V90.35a25,25,0,0,1,50,0Zm14.91-135.19a3.83,3.83,0,1,1-3.82,3.82A3.82,3.82,0,0,1,145.65,174.46Zm0,172.06a3.83,3.83,0,1,1,3.83-3.83A3.83,3.83,0,0,1,145.68,346.52Zm19.15-241.43a21.26,21.26,0,1,1,21.26-21.26A21.26,21.26,0,0,1,164.83,105.09Zm58.86-17.68a3.83,3.83,0,1,1,3.83-3.83A3.84,3.84,0,0,1,223.69,87.41Zm42.07,0a3.83,3.83,0,1,1,3.82-3.83A3.83,3.83,0,0,1,265.76,87.41Zm18.79,259.11a3.83,3.83,0,1,1,3.83-3.83A3.83,3.83,0,0,1,284.55,346.52Zm0-164.41a3.83,3.83,0,1,1,3.83-3.83A3.83,3.83,0,0,1,284.55,182.11ZM312.5,346.52a3.83,3.83,0,1,1,3.83-3.83A3.82,3.82,0,0,1,312.5,346.52Zm0-164.41a3.83,3.83,0,1,1,3.83-3.83A3.82,3.82,0,0,1,312.5,182.11Zm19.18-78.44a21.26,21.26,0,1,1,21.26-21.26A21.26,21.26,0,0,1,331.68,103.67Zm57.84-16.26a3.83,3.83,0,1,1,3.82-3.83A3.83,3.83,0,0,1,389.52,87.41Zm42.05,0a3.83,3.83,0,1,1,3.83-3.83A3.84,3.84,0,0,1,431.57,87.41ZM451.4,346.52a3.83,3.83,0,1,1,3.83-3.83A3.83,3.83,0,0,1,451.4,346.52Zm0-164.41a3.83,3.83,0,1,1,3.83-3.83A3.83,3.83,0,0,1,451.4,182.11Zm0-121a3.83,3.83,0,1,1,3.83-3.82A3.83,3.83,0,0,1,451.4,61.13Zm64.94,248.52a25,25,0,0,1-50,0V90.35a25,25,0,0,1,50,0Zm14.94,36.87a3.83,3.83,0,1,1,3.82-3.83A3.82,3.82,0,0,1,531.28,346.52Zm0-285.39a3.83,3.83,0,1,1,3.82-3.82A3.82,3.82,0,0,1,531.28,61.13Z"/><path class="b" d="M230.71,359.73H202.36a1.42,1.42,0,0,1-1.42-1.42v-5.66h31.18v5.66A1.41,1.41,0,0,1,230.71,359.73Z"/><path class="b" d="M397.56,359.73H369.21a1.41,1.41,0,0,1-1.41-1.42v-5.66H399v5.66A1.42,1.42,0,0,1,397.56,359.73Z"/><path class="c" d="M452.86,111.67H311.13a8.51,8.51,0,0,0-8.51,8.5V344.11a8.5,8.5,0,0,0,8.51,8.5H452.86a8.49,8.49,0,0,0,8.5-8.5V120.17A8.5,8.5,0,0,0,452.86,111.67ZM312.54,346.52a3.83,3.83,0,1,1,3.83-3.83A3.82,3.82,0,0,1,312.54,346.52Zm0-164.41a3.83,3.83,0,1,1,3.83-3.83A3.82,3.82,0,0,1,312.54,182.11Zm138.9,164.41a3.83,3.83,0,1,1,3.83-3.83A3.82,3.82,0,0,1,451.44,346.52Zm0-164.41a3.83,3.83,0,1,1,3.83-3.83A3.82,3.82,0,0,1,451.44,182.11Z"/><path class="d" d="M312.54,334.19a8.51,8.51,0,1,0,8.51,8.5A8.51,8.51,0,0,0,312.54,334.19Zm0,12.33a3.83,3.83,0,1,1,3.83-3.83A3.82,3.82,0,0,1,312.54,346.52Z"/><path class="d" d="M451.44,334.19a8.51,8.51,0,1,0,8.51,8.5A8.51,8.51,0,0,0,451.44,334.19Zm0,12.33a3.83,3.83,0,1,1,3.83-3.83A3.83,3.83,0,0,1,451.44,346.52Z"/><path class="d" d="M451.44,169.78a8.51,8.51,0,1,0,8.51,8.5A8.51,8.51,0,0,0,451.44,169.78Zm0,12.33a3.83,3.83,0,1,1,3.83-3.83A3.83,3.83,0,0,1,451.44,182.11Z"/><path class="d" d="M312.54,169.78a8.51,8.51,0,1,0,8.51,8.5A8.51,8.51,0,0,0,312.54,169.78Zm0,12.33a3.83,3.83,0,1,1,3.83-3.83A3.82,3.82,0,0,1,312.54,182.11Z"/><polygon points="450.66 218.27 447.76 215.12 447.76 215.12 409.76 215.12 409.76 215.12 406.87 218.27 396.88 218.27 396.88 226.49 460.65 226.49 460.65 218.27 450.66 218.27"/><rect class="e" x="406.01" y="224.38" width="45.52" height="2"/><polygon class="f" points="390.6 289.94 390.6 248.34 347.88 248.34 347.88 291.06 389.43 291.06 390.6 289.94"/><rect class="f" x="309.59" y="103.28" width="44.18" height="60.68"/><polygon class="f" points="404.67 103.04 364.99 103.04 364.99 103.91 365.59 103.91 365.59 152.87 403.06 152.87 403.06 103.91 404.67 103.91 404.67 103.04"/><polygon class="f" points="455.69 103.44 416.01 103.44 416.01 105.21 417.12 105.21 417.12 153.81 454.58 153.81 454.58 105.21 455.69 105.21 455.69 103.44"/><polygon points="359.84 343.81 362.74 346.96 362.74 346.96 400.74 346.96 400.74 346.96 403.63 343.81 413.63 343.81 413.63 335.59 349.85 335.59 349.85 343.81 359.84 343.81"/><rect class="e" x="358.98" y="335.7" width="45.52" height="2" transform="translate(763.47 673.4) rotate(180)"/><polygon class="f" points="463.56 236.15 462.72 237.37 441.55 237.37 441.55 255.27 462.72 255.27 462.72 255.27 463.56 256.48 464.23 256.48 464.23 236.15 463.56 236.15"/><polygon class="f" points="463.5 274.42 462.66 275.63 441.49 275.63 441.49 293.53 462.66 293.53 462.66 293.54 463.5 294.75 464.17 294.75 464.17 274.42 463.5 274.42"/><rect class="f" x="443.22" y="308.44" width="20" height="24.85"/><polygon points="463.24 191.54 455.81 191.54 455.81 189.48 419.81 189.48 419.81 209.6 455.81 209.6 455.81 208.54 463.24 208.54 463.24 191.54"/><polygon points="305.44 325.29 304.73 326.73 304.73 331.05 305.44 332.49 319.62 332.49 320.32 331.05 320.32 326.73 319.62 325.29 305.44 325.29"/><rect class="f" x="306.86" y="328.18" width="1.42" height="1.42" rx="0.28"/><rect class="f" x="316.78" y="328.18" width="1.42" height="1.42" rx="0.28"/><polygon points="305.44 318.09 304.73 319.53 304.73 323.85 305.44 325.29 319.62 325.29 320.32 323.85 320.32 319.53 319.62 318.09 305.44 318.09"/><rect class="f" x="306.86" y="320.98" width="1.42" height="1.42" rx="0.28"/><rect class="f" x="316.78" y="320.98" width="1.42" height="1.42" rx="0.28"/><polygon points="305.44 310.89 304.73 312.33 304.73 316.65 305.44 318.09 319.62 318.09 320.32 316.65 320.32 312.33 319.62 310.89 305.44 310.89"/><rect class="f" x="306.86" y="313.78" width="1.42" height="1.42" rx="0.28"/><rect class="f" x="316.78" y="313.78" width="1.42" height="1.42" rx="0.28"/><polygon points="305.44 303.69 304.73 305.13 304.73 309.45 305.44 310.89 319.62 310.89 320.32 309.45 320.32 305.13 319.62 303.69 305.44 303.69"/><rect class="f" x="306.86" y="306.58" width="1.42" height="1.42" rx="0.28"/><rect class="f" x="316.78" y="306.58" width="1.42" height="1.42" rx="0.28"/><polygon points="305.44 296.49 304.73 297.93 304.73 302.25 305.44 303.69 319.62 303.69 320.32 302.25 320.32 297.93 319.62 296.49 305.44 296.49"/><rect class="f" x="306.86" y="299.38" width="1.42" height="1.42" rx="0.28"/><rect class="f" x="316.78" y="299.38" width="1.42" height="1.42" rx="0.28"/><polygon points="305.47 289.29 304.76 290.73 304.76 295.05 305.47 296.49 319.64 296.49 320.35 295.05 320.35 290.73 319.64 289.29 305.47 289.29"/><rect class="f" x="306.89" y="292.18" width="1.42" height="1.42" rx="0.28"/><rect class="f" x="316.81" y="292.18" width="1.42" height="1.42" rx="0.28"/><polygon points="305.44 282.09 304.73 283.53 304.73 287.85 305.44 289.29 319.62 289.29 320.32 287.85 320.32 283.53 319.62 282.09 305.44 282.09"/><rect class="f" x="306.86" y="284.98" width="1.42" height="1.42" rx="0.28"/><rect class="f" x="316.78" y="284.98" width="1.42" height="1.42" rx="0.28"/><polygon points="305.44 274.89 304.73 276.33 304.73 280.65 305.44 282.09 319.62 282.09 320.32 280.65 320.32 276.33 319.62 274.89 305.44 274.89"/><rect class="f" x="306.86" y="277.78" width="1.42" height="1.42" rx="0.28"/><rect class="f" x="316.78" y="277.78" width="1.42" height="1.42" rx="0.28"/><polygon points="305.44 267.69 304.73 269.13 304.73 273.45 305.44 274.89 319.62 274.89 320.32 273.45 320.32 269.13 319.62 267.69 305.44 267.69"/><rect class="f" x="306.86" y="270.58" width="1.42" height="1.42" rx="0.28"/><rect class="f" x="316.78" y="270.58" width="1.42" height="1.42" rx="0.28"/><polygon points="305.44 260.49 304.73 261.93 304.73 266.25 305.44 267.69 319.62 267.69 320.32 266.25 320.32 261.93 319.62 260.49 305.44 260.49"/><rect class="f" x="306.86" y="263.38" width="1.42" height="1.42" rx="0.28"/><rect class="f" x="316.78" y="263.38" width="1.42" height="1.42" rx="0.28"/><polygon points="305.44 253.29 304.73 254.73 304.73 259.05 305.44 260.49 319.62 260.49 320.32 259.05 320.32 254.73 319.62 253.29 305.44 253.29"/><rect class="f" x="306.86" y="256.18" width="1.42" height="1.42" rx="0.28"/><rect class="f" x="316.78" y="256.18" width="1.42" height="1.42" rx="0.28"/><polygon points="305.44 246.09 304.73 247.53 304.73 251.85 305.44 253.29 319.62 253.29 320.32 251.85 320.32 247.53 319.62 246.09 305.44 246.09"/><rect class="f" x="306.86" y="248.98" width="1.42" height="1.42" rx="0.28"/><rect class="f" x="316.78" y="248.98" width="1.42" height="1.42" rx="0.28"/><polygon points="305.44 238.89 304.73 240.33 304.73 244.65 305.44 246.09 319.62 246.09 320.32 244.65 320.32 240.33 319.62 238.89 305.44 238.89"/><rect class="f" x="306.86" y="241.78" width="1.42" height="1.42" rx="0.28"/><rect class="f" x="316.78" y="241.78" width="1.42" height="1.42" rx="0.28"/><polygon points="305.44 231.69 304.73 233.13 304.73 237.45 305.44 238.89 319.62 238.89 320.32 237.45 320.32 233.13 319.62 231.69 305.44 231.69"/><rect class="f" x="306.86" y="234.58" width="1.42" height="1.42" rx="0.28"/><rect class="f" x="316.78" y="234.58" width="1.42" height="1.42" rx="0.28"/><polygon points="305.44 224.49 304.73 225.93 304.73 230.25 305.44 231.69 319.62 231.69 320.32 230.25 320.32 225.93 319.62 224.49 305.44 224.49"/><rect class="f" x="306.86" y="227.38" width="1.42" height="1.42" rx="0.28"/><rect class="f" x="316.78" y="227.38" width="1.42" height="1.42" rx="0.28"/><polygon points="305.44 217.29 304.73 218.73 304.73 223.05 305.44 224.49 319.62 224.49 320.32 223.05 320.32 218.73 319.62 217.29 305.44 217.29"/><rect class="f" x="306.86" y="220.18" width="1.42" height="1.42" rx="0.28"/><rect class="f" x="316.78" y="220.18" width="1.42" height="1.42" rx="0.28"/><polygon points="305.44 210.09 304.73 211.53 304.73 215.85 305.44 217.29 319.62 217.29 320.32 215.85 320.32 211.53 319.62 210.09 305.44 210.09"/><rect class="f" x="306.86" y="212.98" width="1.42" height="1.42" rx="0.28"/><rect class="f" x="316.78" y="212.98" width="1.42" height="1.42" rx="0.28"/><polygon points="305.44 202.89 304.73 204.33 304.73 208.65 305.44 210.09 319.62 210.09 320.32 208.65 320.32 204.33 319.62 202.89 305.44 202.89"/><rect class="f" x="306.86" y="205.78" width="1.42" height="1.42" rx="0.28"/><rect class="f" x="316.78" y="205.78" width="1.42" height="1.42" rx="0.28"/><polygon points="305.44 195.69 304.73 197.13 304.73 201.45 305.44 202.89 319.62 202.89 320.32 201.45 320.32 197.13 319.62 195.69 305.44 195.69"/><rect class="f" x="306.86" y="198.58" width="1.42" height="1.42" rx="0.28"/><rect class="f" x="316.78" y="198.58" width="1.42" height="1.42" rx="0.28"/><polygon points="305.44 188.49 304.73 189.93 304.73 194.25 305.44 195.69 319.62 195.69 320.32 194.25 320.32 189.93 319.62 188.49 305.44 188.49"/><rect class="f" x="306.86" y="191.38" width="1.42" height="1.42" rx="0.28"/><rect class="f" x="316.78" y="191.38" width="1.42" height="1.42" rx="0.28"/><polygon points="322.86 178.28 322.15 179.72 322.15 184.04 322.86 185.48 337.04 185.48 337.74 184.04 337.74 179.72 337.04 178.28 322.86 178.28"/><rect class="f" x="324.28" y="181.18" width="1.42" height="1.42" rx="0.28"/><rect class="f" x="334.2" y="181.18" width="1.42" height="1.42" rx="0.28"/><polygon points="322.86 171.08 322.15 172.52 322.15 176.84 322.86 178.28 337.04 178.28 337.74 176.84 337.74 172.52 337.04 171.08 322.86 171.08"/><rect class="f" x="324.28" y="173.98" width="1.42" height="1.42" rx="0.28"/><rect class="f" x="334.2" y="173.98" width="1.42" height="1.42" rx="0.28"/><path class="c" d="M286,111.67H144.27a8.51,8.51,0,0,0-8.5,8.5V344.11a8.5,8.5,0,0,0,8.5,8.5H286a8.5,8.5,0,0,0,8.5-8.5V120.17A8.51,8.51,0,0,0,286,111.67ZM145.69,346.52a3.83,3.83,0,1,1,3.83-3.83A3.82,3.82,0,0,1,145.69,346.52Zm0-164.41a3.83,3.83,0,1,1,3.83-3.83A3.82,3.82,0,0,1,145.69,182.11Zm138.9,164.41a3.83,3.83,0,1,1,3.83-3.83A3.83,3.83,0,0,1,284.59,346.52Zm0-164.41a3.83,3.83,0,1,1,3.83-3.83A3.83,3.83,0,0,1,284.59,182.11Z"/><path class="d" d="M145.69,334.19a8.51,8.51,0,1,0,8.51,8.5A8.51,8.51,0,0,0,145.69,334.19Zm0,12.33a3.83,3.83,0,1,1,3.83-3.83A3.83,3.83,0,0,1,145.69,346.52Z"/><path class="d" d="M284.59,334.19a8.51,8.51,0,1,0,8.5,8.5A8.5,8.5,0,0,0,284.59,334.19Zm0,12.33a3.83,3.83,0,1,1,3.83-3.83A3.83,3.83,0,0,1,284.59,346.52Z"/><path class="d" d="M284.59,169.78a8.51,8.51,0,1,0,8.5,8.5A8.5,8.5,0,0,0,284.59,169.78Zm0,12.33a3.83,3.83,0,1,1,3.83-3.83A3.83,3.83,0,0,1,284.59,182.11Z"/><path class="d" d="M145.69,169.78a8.51,8.51,0,1,0,8.51,8.5A8.51,8.51,0,0,0,145.69,169.78Zm0,12.33a3.83,3.83,0,1,1,3.83-3.83A3.83,3.83,0,0,1,145.69,182.11Z"/><polygon points="283.81 218.27 280.91 215.12 280.91 215.12 242.91 215.12 242.91 215.12 240.01 218.27 230.02 218.27 230.02 226.49 293.8 226.49 293.8 218.27 283.81 218.27"/><rect class="e" x="239.15" y="224.38" width="45.52" height="2"/><polygon class="f" points="223.74 289.94 223.74 248.34 181.03 248.34 181.03 291.06 222.57 291.06 223.74 289.94"/><rect class="f" x="142.74" y="103.28" width="44.18" height="60.68"/><polygon class="f" points="237.82 103.04 198.13 103.04 198.13 103.91 198.74 103.91 198.74 152.87 236.21 152.87 236.21 103.91 237.82 103.91 237.82 103.04"/><polygon class="f" points="288.84 103.44 249.16 103.44 249.16 105.21 250.26 105.21 250.26 153.81 287.73 153.81 287.73 105.21 288.84 105.21 288.84 103.44"/><polygon points="192.99 343.81 195.88 346.96 195.88 346.96 233.88 346.96 233.88 346.96 236.78 343.81 246.77 343.81 246.77 335.59 183 335.59 183 343.81 192.99 343.81"/><rect class="e" x="192.13" y="335.7" width="45.52" height="2" transform="translate(429.77 673.4) rotate(180)"/><polygon class="f" points="296.71 236.15 295.87 237.37 274.7 237.37 274.7 255.27 295.87 255.27 295.87 255.27 296.71 256.48 297.38 256.48 297.38 236.15 296.71 236.15"/><polygon class="f" points="296.65 274.42 295.81 275.63 274.64 275.63 274.64 293.53 295.81 293.53 295.81 293.54 296.65 294.75 297.32 294.75 297.32 274.42 296.65 274.42"/><rect class="f" x="276.36" y="308.44" width="20" height="24.85"/><polygon points="296.38 191.54 288.95 191.54 288.95 189.48 252.95 189.48 252.95 209.6 288.95 209.6 288.95 208.54 296.38 208.54 296.38 191.54"/><polygon points="138.59 325.29 137.88 326.73 137.88 331.05 138.59 332.49 152.76 332.49 153.47 331.05 153.47 326.73 152.76 325.29 138.59 325.29"/><rect class="f" x="140.01" y="328.18" width="1.42" height="1.42" rx="0.28"/><rect class="f" x="149.93" y="328.18" width="1.42" height="1.42" rx="0.28"/><polygon points="138.59 318.09 137.88 319.53 137.88 323.85 138.59 325.29 152.76 325.29 153.47 323.85 153.47 319.53 152.76 318.09 138.59 318.09"/><rect class="f" x="140.01" y="320.98" width="1.42" height="1.42" rx="0.28"/><rect class="f" x="149.93" y="320.98" width="1.42" height="1.42" rx="0.28"/><polygon points="138.59 310.89 137.88 312.33 137.88 316.65 138.59 318.09 152.76 318.09 153.47 316.65 153.47 312.33 152.76 310.89 138.59 310.89"/><rect class="f" x="140.01" y="313.78" width="1.42" height="1.42" rx="0.28"/><rect class="f" x="149.93" y="313.78" width="1.42" height="1.42" rx="0.28"/><polygon points="138.59 303.69 137.88 305.13 137.88 309.45 138.59 310.89 152.76 310.89 153.47 309.45 153.47 305.13 152.76 303.69 138.59 303.69"/><rect class="f" x="140.01" y="306.58" width="1.42" height="1.42" rx="0.28"/><rect class="f" x="149.93" y="306.58" width="1.42" height="1.42" rx="0.28"/><polygon points="138.59 296.49 137.88 297.93 137.88 302.25 138.59 303.69 152.76 303.69 153.47 302.25 153.47 297.93 152.76 296.49 138.59 296.49"/><rect class="f" x="140.01" y="299.38" width="1.42" height="1.42" rx="0.28"/><rect class="f" x="149.93" y="299.38" width="1.42" height="1.42" rx="0.28"/><polygon points="138.62 289.29 137.91 290.73 137.91 295.05 138.62 296.49 152.79 296.49 153.5 295.05 153.5 290.73 152.79 289.29 138.62 289.29"/><rect class="f" x="140.04" y="292.18" width="1.42" height="1.42" rx="0.28"/><rect class="f" x="149.96" y="292.18" width="1.42" height="1.42" rx="0.28"/><polygon points="138.59 282.09 137.88 283.53 137.88 287.85 138.59 289.29 152.76 289.29 153.47 287.85 153.47 283.53 152.76 282.09 138.59 282.09"/><rect class="f" x="140.01" y="284.98" width="1.42" height="1.42" rx="0.28"/><rect class="f" x="149.93" y="284.98" width="1.42" height="1.42" rx="0.28"/><polygon points="138.59 274.89 137.88 276.33 137.88 280.65 138.59 282.09 152.76 282.09 153.47 280.65 153.47 276.33 152.76 274.89 138.59 274.89"/><rect class="f" x="140.01" y="277.78" width="1.42" height="1.42" rx="0.28"/><rect class="f" x="149.93" y="277.78" width="1.42" height="1.42" rx="0.28"/><polygon points="138.59 267.69 137.88 269.13 137.88 273.45 138.59 274.89 152.76 274.89 153.47 273.45 153.47 269.13 152.76 267.69 138.59 267.69"/><rect class="f" x="140.01" y="270.58" width="1.42" height="1.42" rx="0.28"/><rect class="f" x="149.93" y="270.58" width="1.42" height="1.42" rx="0.28"/><polygon points="138.59 260.49 137.88 261.93 137.88 266.25 138.59 267.69 152.76 267.69 153.47 266.25 153.47 261.93 152.76 260.49 138.59 260.49"/><rect class="f" x="140.01" y="263.38" width="1.42" height="1.42" rx="0.28"/><rect class="f" x="149.93" y="263.38" width="1.42" height="1.42" rx="0.28"/><polygon points="138.59 253.29 137.88 254.73 137.88 259.05 138.59 260.49 152.76 260.49 153.47 259.05 153.47 254.73 152.76 253.29 138.59 253.29"/><rect class="f" x="140.01" y="256.18" width="1.42" height="1.42" rx="0.28"/><rect class="f" x="149.93" y="256.18" width="1.42" height="1.42" rx="0.28"/><polygon points="138.59 246.09 137.88 247.53 137.88 251.85 138.59 253.29 152.76 253.29 153.47 251.85 153.47 247.53 152.76 246.09 138.59 246.09"/><rect class="f" x="140.01" y="248.98" width="1.42" height="1.42" rx="0.28"/><rect class="f" x="149.93" y="248.98" width="1.42" height="1.42" rx="0.28"/><polygon points="138.59 238.89 137.88 240.33 137.88 244.65 138.59 246.09 152.76 246.09 153.47 244.65 153.47 240.33 152.76 238.89 138.59 238.89"/><rect class="f" x="140.01" y="241.78" width="1.42" height="1.42" rx="0.28"/><rect class="f" x="149.93" y="241.78" width="1.42" height="1.42" rx="0.28"/><polygon points="138.59 231.69 137.88 233.13 137.88 237.45 138.59 238.89 152.76 238.89 153.47 237.45 153.47 233.13 152.76 231.69 138.59 231.69"/><rect class="f" x="140.01" y="234.58" width="1.42" height="1.42" rx="0.28"/><rect class="f" x="149.93" y="234.58" width="1.42" height="1.42" rx="0.28"/><polygon points="138.59 224.49 137.88 225.93 137.88 230.25 138.59 231.69 152.76 231.69 153.47 230.25 153.47 225.93 152.76 224.49 138.59 224.49"/><rect class="f" x="140.01" y="227.38" width="1.42" height="1.42" rx="0.28"/><rect class="f" x="149.93" y="227.38" width="1.42" height="1.42" rx="0.28"/><polygon points="138.59 217.29 137.88 218.73 137.88 223.05 138.59 224.49 152.76 224.49 153.47 223.05 153.47 218.73 152.76 217.29 138.59 217.29"/><rect class="f" x="140.01" y="220.18" width="1.42" height="1.42" rx="0.28"/><rect class="f" x="149.93" y="220.18" width="1.42" height="1.42" rx="0.28"/><polygon points="138.59 210.09 137.88 211.53 137.88 215.85 138.59 217.29 152.76 217.29 153.47 215.85 153.47 211.53 152.76 210.09 138.59 210.09"/><rect class="f" x="140.01" y="212.98" width="1.42" height="1.42" rx="0.28"/><rect class="f" x="149.93" y="212.98" width="1.42" height="1.42" rx="0.28"/><polygon points="138.59 202.89 137.88 204.33 137.88 208.65 138.59 210.09 152.76 210.09 153.47 208.65 153.47 204.33 152.76 202.89 138.59 202.89"/><rect class="f" x="140.01" y="205.78" width="1.42" height="1.42" rx="0.28"/><rect class="f" x="149.93" y="205.78" width="1.42" height="1.42" rx="0.28"/><polygon points="138.59 195.69 137.88 197.13 137.88 201.45 138.59 202.89 152.76 202.89 153.47 201.45 153.47 197.13 152.76 195.69 138.59 195.69"/><rect class="f" x="140.01" y="198.58" width="1.42" height="1.42" rx="0.28"/><rect class="f" x="149.93" y="198.58" width="1.42" height="1.42" rx="0.28"/><polygon points="138.59 188.49 137.88 189.93 137.88 194.25 138.59 195.69 152.76 195.69 153.47 194.25 153.47 189.93 152.76 188.49 138.59 188.49"/><rect class="f" x="140.01" y="191.38" width="1.42" height="1.42" rx="0.28"/><rect class="f" x="149.93" y="191.38" width="1.42" height="1.42" rx="0.28"/><polygon points="156.01 178.28 155.3 179.72 155.3 184.04 156.01 185.48 170.18 185.48 170.89 184.04 170.89 179.72 170.18 178.28 156.01 178.28"/><rect class="f" x="157.43" y="181.18" width="1.42" height="1.42" rx="0.28"/><rect class="f" x="167.35" y="181.18" width="1.42" height="1.42" rx="0.28"/><polygon points="156.01 171.08 155.3 172.52 155.3 176.84 156.01 178.28 170.18 178.28 170.89 176.84 170.89 172.52 170.18 171.08 156.01 171.08"/><rect class="f" x="157.43" y="173.98" width="1.42" height="1.42" rx="0.28"/><rect class="f" x="167.35" y="173.98" width="1.42" height="1.42" rx="0.28"/><path class="g" d="M429.77,332.49V232.26H377.54v-65h-75v21.26H322V310.89H302.59v33.22a8.49,8.49,0,0,0,8.5,8.5h36.85V332.83h67.14v19.78h37.74a8.5,8.5,0,0,0,8.5-8.5V332.49ZM312.5,186.79a8.51,8.51,0,1,1,8.51-8.51A8.51,8.51,0,0,1,312.5,186.79Zm0,164.41a8.51,8.51,0,1,1,8.51-8.51A8.51,8.51,0,0,1,312.5,351.2Zm80.42-57.32H347.53v-46h45.39ZM451.4,351.2a8.51,8.51,0,1,1,8.51-8.51A8.5,8.5,0,0,1,451.4,351.2Z"/><rect x="322.11" y="171.08" width="15.59" height="14.4"/><rect class="f" x="324.24" y="181.17" width="1.42" height="1.42" rx="0.28"/><rect class="f" x="334.16" y="181.17" width="1.42" height="1.42" rx="0.28"/><rect class="f" x="324.24" y="173.97" width="1.42" height="1.42" rx="0.28"/><rect class="f" x="334.16" y="173.97" width="1.42" height="1.42" rx="0.28"/><rect x="304.71" y="310.89" width="15.59" height="21.6"/><rect class="f" x="306.84" y="328.18" width="1.42" height="1.42" rx="0.28"/><rect class="f" x="316.76" y="328.18" width="1.42" height="1.42" rx="0.28"/><rect class="f" x="306.84" y="320.98" width="1.42" height="1.42" rx="0.28"/><rect class="f" x="316.76" y="320.98" width="1.42" height="1.42" rx="0.28"/><rect class="f" x="306.84" y="313.78" width="1.42" height="1.42" rx="0.28"/><rect class="f" x="316.76" y="313.78" width="1.42" height="1.42" rx="0.28"/><polygon points="418.17 293.77 419.61 294.48 423.93 294.48 425.37 293.77 425.37 279.59 423.93 278.88 419.61 278.88 418.17 279.59 418.17 293.77"/><rect class="h" x="421.07" y="290.93" width="1.42" height="1.42" rx="0.28" transform="translate(130.13 713.42) rotate(-90)"/><rect class="f" x="409.73" y="278.66" width="24.09" height="1.42" rx="0.28" transform="translate(142.4 701.14) rotate(-90)"/><polygon points="410.97 293.77 412.41 294.48 416.73 294.48 418.17 293.77 418.17 279.59 416.73 278.88 412.41 278.88 410.97 279.59 410.97 293.77"/><rect class="h" x="413.87" y="290.93" width="1.42" height="1.42" rx="0.28" transform="translate(122.93 706.22) rotate(-90)"/><rect class="f" x="402.53" y="278.66" width="24.09" height="1.42" rx="0.28" transform="translate(135.2 693.94) rotate(-90)"/><polygon points="403.77 293.77 405.21 294.48 409.53 294.48 410.97 293.77 410.97 279.59 409.53 278.88 405.21 278.88 403.77 279.59 403.77 293.77"/><rect class="h" x="406.67" y="290.93" width="1.42" height="1.42" rx="0.28" transform="translate(115.73 699.02) rotate(-90)"/><rect class="f" x="395.33" y="278.66" width="24.09" height="1.42" rx="0.28" transform="translate(128 686.74) rotate(-90)"/><polygon points="396.57 293.77 398.01 294.48 402.33 294.48 403.77 293.77 403.77 279.59 402.33 278.88 398.01 278.88 396.57 279.59 396.57 293.77"/><rect class="h" x="399.47" y="290.93" width="1.42" height="1.42" rx="0.28" transform="translate(108.53 691.82) rotate(-90)"/><rect class="f" x="388.13" y="278.66" width="24.09" height="1.42" rx="0.28" transform="translate(120.8 679.54) rotate(-90)"/><path class="g" d="M263,332.66V232.43H210.79V167.37H135.84v21.26h19.43V311.06H135.84v33.22a8.5,8.5,0,0,0,8.5,8.5h36.85V333h67.14v19.78h37.74a8.49,8.49,0,0,0,8.5-8.5V332.66ZM145.76,187a8.51,8.51,0,1,1,8.5-8.51A8.51,8.51,0,0,1,145.76,187Zm0,164.41a8.51,8.51,0,1,1,8.5-8.51A8.51,8.51,0,0,1,145.76,351.37Zm80.41-57.32H180.79V248h45.38Zm58.49,57.32a8.51,8.51,0,1,1,8.5-8.51A8.51,8.51,0,0,1,284.66,351.37Z"/><rect x="155.37" y="171.25" width="15.59" height="14.4"/><rect class="f" x="157.49" y="181.34" width="1.42" height="1.42" rx="0.28"/><rect class="f" x="167.42" y="181.34" width="1.42" height="1.42" rx="0.28"/><rect class="f" x="157.49" y="174.14" width="1.42" height="1.42" rx="0.28"/><rect class="f" x="167.42" y="174.14" width="1.42" height="1.42" rx="0.28"/><rect x="137.96" y="311.06" width="15.59" height="21.6"/><rect class="f" x="140.09" y="328.35" width="1.42" height="1.42" rx="0.28"/><rect class="f" x="150.01" y="328.35" width="1.42" height="1.42" rx="0.28"/><rect class="f" x="140.09" y="321.15" width="1.42" height="1.42" rx="0.28"/><rect class="f" x="150.01" y="321.15" width="1.42" height="1.42" rx="0.28"/><rect class="f" x="140.09" y="313.95" width="1.42" height="1.42" rx="0.28"/><rect class="f" x="150.01" y="313.95" width="1.42" height="1.42" rx="0.28"/><polygon points="251.43 293.94 252.87 294.64 257.19 294.64 258.63 293.94 258.63 279.76 257.19 279.05 252.87 279.05 251.43 279.76 251.43 293.94"/><rect class="h" x="254.32" y="291.1" width="1.42" height="1.42" rx="0.28" transform="translate(-36.78 546.84) rotate(-90)"/><rect class="f" x="242.98" y="278.83" width="24.09" height="1.42" rx="0.28" transform="translate(-24.51 534.57) rotate(-90)"/><polygon points="244.23 293.94 245.67 294.64 249.99 294.64 251.43 293.94 251.43 279.76 249.99 279.05 245.67 279.05 244.23 279.76 244.23 293.94"/><rect class="h" x="247.12" y="291.1" width="1.42" height="1.42" rx="0.28" transform="translate(-43.98 539.64) rotate(-90)"/><rect class="f" x="235.78" y="278.83" width="24.09" height="1.42" rx="0.28" transform="translate(-31.71 527.37) rotate(-90)"/><polygon points="237.03 293.94 238.47 294.64 242.79 294.64 244.23 293.94 244.23 279.76 242.79 279.05 238.47 279.05 237.03 279.76 237.03 293.94"/><rect class="h" x="239.92" y="291.1" width="1.42" height="1.42" rx="0.28" transform="translate(-51.18 532.44) rotate(-90)"/><rect class="f" x="228.58" y="278.83" width="24.09" height="1.42" rx="0.28" transform="translate(-38.91 520.17) rotate(-90)"/><polygon points="229.83 293.94 231.27 294.64 235.59 294.64 237.03 293.94 237.03 279.76 235.59 279.05 231.27 279.05 229.83 279.76 229.83 293.94"/><rect class="h" x="232.72" y="291.1" width="1.42" height="1.42" rx="0.28" transform="translate(-58.38 525.24) rotate(-90)"/><rect class="f" x="221.38" y="278.83" width="24.09" height="1.42" rx="0.28" transform="translate(-46.11 512.97) rotate(-90)"/><path class="i" d="M380.79,47.39V89.91h59.53V47.39Zm8.74,39.89a3.71,3.71,0,1,1,3.7-3.71A3.7,3.7,0,0,1,389.53,87.28Zm42.05,0a3.71,3.71,0,1,1,3.7-3.71A3.71,3.71,0,0,1,431.58,87.28Z"/><polyline points="388.95 49.12 387.51 48.41 383.19 48.41 381.75 49.12 381.75 55.5 383.19 56.21 387.51 56.21 388.95 55.5"/><line class="j" x1="381.75" y1="55.5" x2="381.75" y2="55.5"/><rect class="f" x="384.64" y="51.6" width="1.42" height="1.42" rx="0.28" transform="translate(437.66 -333.04) rotate(90)"/><polyline points="396.15 49.12 394.71 48.41 390.39 48.41 388.95 49.12 388.95 55.5 390.39 56.21 394.71 56.21 396.15 55.5"/><line class="j" x1="388.95" y1="55.5" x2="388.95" y2="55.5"/><rect class="f" x="391.84" y="51.6" width="1.42" height="1.42" rx="0.28" transform="translate(444.86 -340.24) rotate(90)"/><polyline points="403.35 49.12 401.91 48.41 397.59 48.41 396.15 49.12 396.15 55.5 397.59 56.21 401.91 56.21 403.35 55.5"/><line class="j" x1="396.15" y1="55.5" x2="396.15" y2="55.5"/><rect class="f" x="399.04" y="51.6" width="1.42" height="1.42" rx="0.28" transform="translate(452.06 -347.44) rotate(90)"/><polyline points="410.55 49.12 409.11 48.41 404.79 48.41 403.35 49.12 403.35 55.5 404.79 56.21 409.11 56.21 410.55 55.5"/><line class="j" x1="403.35" y1="55.5" x2="403.35" y2="55.5"/><rect class="f" x="406.24" y="51.6" width="1.42" height="1.42" rx="0.28" transform="translate(459.26 -354.64) rotate(90)"/><polyline points="439.35 49.12 437.91 48.41 433.59 48.41 432.15 49.12 432.15 55.5 433.59 56.21 437.91 56.21 439.35 55.5"/><line class="j" x1="432.15" y1="55.5" x2="432.15" y2="55.5"/><rect class="f" x="435.04" y="51.6" width="1.42" height="1.42" rx="0.28" transform="translate(488.06 -383.44) rotate(90)"/><polyline points="432.15 49.12 430.71 48.41 426.39 48.41 424.95 49.12 424.95 55.5 426.39 56.21 430.71 56.21 432.15 55.5"/><line class="j" x1="424.95" y1="55.5" x2="424.95" y2="55.5"/><rect class="f" x="427.84" y="51.6" width="1.42" height="1.42" rx="0.28" transform="translate(480.86 -376.24) rotate(90)"/><polyline points="424.95 49.12 423.51 48.41 419.19 48.41 417.75 49.12 417.75 55.5 419.19 56.21 423.51 56.21 424.95 55.5"/><line class="j" x1="417.75" y1="55.5" x2="417.75" y2="55.5"/><rect class="f" x="420.64" y="51.6" width="1.42" height="1.42" rx="0.28" transform="translate(473.66 -369.04) rotate(90)"/><polyline points="417.75 49.12 416.31 48.41 411.99 48.41 410.55 49.12 410.55 55.5 411.99 56.21 416.31 56.21 417.75 55.5"/><line class="j" x1="410.55" y1="55.5" x2="410.55" y2="55.5"/><rect class="f" x="413.44" y="51.6" width="1.42" height="1.42" rx="0.28" transform="translate(466.46 -361.84) rotate(90)"/><path class="i" d="M215,47.39V89.91h59.53V47.39Zm8.74,39.89a3.71,3.71,0,1,1,3.7-3.71A3.71,3.71,0,0,1,223.7,87.28Zm42.05,0a3.71,3.71,0,1,1,3.7-3.71A3.71,3.71,0,0,1,265.75,87.28Z"/><polyline points="223.13 49.12 221.69 48.41 217.37 48.41 215.93 49.12 215.93 55.5 217.37 56.21 221.68 56.21 223.12 55.5"/><line class="j" x1="215.92" y1="55.5" x2="215.93" y2="55.5"/><rect class="f" x="218.82" y="51.6" width="1.42" height="1.42" rx="0.28" transform="translate(271.84 -167.21) rotate(90)"/><polyline points="230.32 49.12 228.88 48.41 224.56 48.41 223.12 49.12 223.12 55.5 224.56 56.21 228.88 56.21 230.32 55.5"/><line class="j" x1="223.12" y1="55.5" x2="223.12" y2="55.5"/><rect class="f" x="226.01" y="51.6" width="1.42" height="1.42" rx="0.28" transform="translate(279.03 -174.41) rotate(90)"/><polyline points="237.52 49.12 236.08 48.41 231.76 48.41 230.32 49.12 230.32 55.5 231.76 56.21 236.08 56.21 237.52 55.5"/><line class="j" x1="230.32" y1="55.5" x2="230.32" y2="55.5"/><rect class="f" x="233.21" y="51.6" width="1.42" height="1.42" rx="0.28" transform="translate(286.23 -181.61) rotate(90)"/><polyline points="244.72 49.12 243.28 48.41 238.96 48.41 237.52 49.12 237.52 55.5 238.96 56.21 243.28 56.21 244.72 55.5"/><line class="j" x1="237.52" y1="55.5" x2="237.52" y2="55.5"/><rect class="f" x="240.41" y="51.6" width="1.42" height="1.42" rx="0.28" transform="translate(293.43 -188.81) rotate(90)"/><polyline points="273.52 49.12 272.08 48.41 267.76 48.41 266.32 49.12 266.32 55.5 267.76 56.21 272.08 56.21 273.52 55.5"/><line class="j" x1="266.32" y1="55.5" x2="266.32" y2="55.5"/><rect class="f" x="269.21" y="51.6" width="1.42" height="1.42" rx="0.28" transform="translate(322.23 -217.61) rotate(90)"/><polyline points="266.32 49.12 264.88 48.41 260.56 48.41 259.12 49.12 259.12 55.5 260.56 56.21 264.88 56.21 266.32 55.5"/><line class="j" x1="259.12" y1="55.5" x2="259.12" y2="55.5"/><rect class="f" x="262.01" y="51.6" width="1.42" height="1.42" rx="0.28" transform="translate(315.03 -210.41) rotate(90)"/><polyline points="259.12 49.12 257.68 48.41 253.36 48.41 251.92 49.12 251.92 55.5 253.36 56.21 257.68 56.21 259.12 55.5"/><line class="j" x1="251.92" y1="55.5" x2="251.92" y2="55.5"/><rect class="f" x="254.81" y="51.6" width="1.42" height="1.42" rx="0.28" transform="translate(307.83 -203.21) rotate(90)"/><polyline points="251.92 49.12 250.48 48.41 246.16 48.41 244.72 49.12 244.72 55.5 246.16 56.21 250.48 56.21 251.92 55.5"/><line class="j" x1="244.72" y1="55.5" x2="244.72" y2="55.5"/><rect class="f" x="247.61" y="51.6" width="1.42" height="1.42" rx="0.28" transform="translate(300.63 -196.01) rotate(90)"/><rect class="k" x="410.51" y="48.83" width="29" height="7"/><path class="l" d="M435.75,52.31c-41.68,80.57-52.1,172.44-21.18,209.52"/><path class="m" d="M428.55,52.31c-22.13,87.75-46,177.08-6.78,209.52"/><path class="n" d="M414.15,52.31C406,137,397,223.83,407.37,261.83"/><path class="o" d="M421.35,52.31C409.89,136,397.59,222.45,400.17,261.83"/><rect class="k" x="396.54" y="260.83" width="29" height="26"/><rect class="k" x="243.65" y="48.83" width="29" height="7"/><path class="l" d="M268.9,52.31c-41.68,80.57-52.1,172.44-21.18,209.52"/><path class="p" d="M261.7,52.31c-22.13,87.75-46,177.08-6.78,209.52"/><path class="q" d="M247.3,52.31c-8.16,84.73-17.15,171.52-6.78,209.52"/><path class="r" d="M254.5,52.31C243,136,230.73,222.45,233.32,261.83"/><rect class="k" x="229.68" y="260.83" width="29" height="26"/></svg>