<svg xmlns="http://www.w3.org/2000/svg" viewBox="0 0 400 400"><defs><style>.a{fill:#7ac943;}.b{fill:#fbb03b;}.c{fill:#ffefc9;}.d{fill:#ccc;}</style></defs><path class="a" d="M269.43,83.84H127.7a8.5,8.5,0,0,0-8.5,8.51V316.28a8.5,8.5,0,0,0,8.5,8.51H269.43a8.51,8.51,0,0,0,8.51-8.51V92.35A8.51,8.51,0,0,0,269.43,83.84ZM129.12,318.69a3.83,3.83,0,1,1,3.83-3.82A3.82,3.82,0,0,1,129.12,318.69Zm0-164.41a3.83,3.83,0,1,1,3.83-3.82A3.82,3.82,0,0,1,129.12,154.28ZM268,318.69a3.83,3.83,0,1,1,3.82-3.82A3.82,3.82,0,0,1,268,318.69Zm0-164.41a3.83,3.83,0,1,1,3.82-3.82A3.82,3.82,0,0,1,268,154.28Z"/><path class="b" d="M129.12,306.36a8.51,8.51,0,1,0,8.5,8.51A8.51,8.51,0,0,0,129.12,306.36Zm0,12.33a3.83,3.83,0,1,1,3.82-3.82A3.82,3.82,0,0,1,129.12,318.69Z"/><path class="b" d="M268,306.36a8.51,8.51,0,1,0,8.5,8.51A8.51,8.51,0,0,0,268,306.36Zm0,12.33a3.83,3.83,0,1,1,3.82-3.82A3.82,3.82,0,0,1,268,318.69Z"/><path class="b" d="M268,142a8.51,8.51,0,1,0,8.5,8.51A8.51,8.51,0,0,0,268,142Zm0,12.33a3.83,3.83,0,1,1,3.82-3.82A3.82,3.82,0,0,1,268,154.28Z"/><path class="b" d="M129.12,142a8.51,8.51,0,1,0,8.5,8.51A8.51,8.51,0,0,0,129.12,142Zm0,12.33a3.83,3.83,0,1,1,3.82-3.82A3.82,3.82,0,0,1,129.12,154.28Z"/><polygon points="267.24 190.44 264.34 187.29 264.34 187.29 226.34 187.29 226.34 187.29 223.44 190.44 213.45 190.44 213.45 198.66 277.23 198.66 277.23 190.44 267.24 190.44"/><rect class="c" x="222.58" y="196.55" width="45.52" height="2"/><polygon class="d" points="207.17 262.11 207.17 220.51 164.45 220.51 164.45 263.23 206 263.23 207.17 262.11"/><rect class="d" x="126.16" y="75.45" width="44.18" height="60.68"/><polygon class="d" points="221.24 75.21 181.56 75.21 181.56 76.09 182.17 76.09 182.17 125.04 219.64 125.04 219.64 76.09 221.24 76.09 221.24 75.21"/><polygon class="d" points="272.27 75.61 232.58 75.61 232.58 77.39 233.69 77.39 233.69 125.98 271.16 125.98 271.16 77.39 272.27 77.39 272.27 75.61"/><polygon points="176.41 315.99 179.31 319.13 179.31 319.13 217.31 319.13 217.31 319.13 220.21 315.99 230.2 315.99 230.2 307.76 166.42 307.76 166.42 315.99 176.41 315.99"/><rect class="c" x="175.55" y="307.87" width="45.52" height="2" transform="translate(396.62 617.75) rotate(180)"/><polygon class="d" points="280.14 208.32 279.3 209.54 258.12 209.54 258.12 227.44 279.3 227.44 279.3 227.44 280.14 228.65 280.8 228.65 280.8 208.32 280.14 208.32"/><polygon class="d" points="280.08 246.59 279.24 247.81 258.06 247.81 258.06 265.71 279.23 265.71 279.23 265.71 280.08 266.92 280.74 266.92 280.74 246.59 280.08 246.59"/><rect class="d" x="259.79" y="280.61" width="20" height="24.85"/><polygon points="279.81 163.72 272.38 163.72 272.38 161.66 236.38 161.66 236.38 181.78 272.38 181.78 272.38 180.72 279.81 180.72 279.81 163.72"/><polygon points="122.02 297.46 121.31 298.9 121.31 303.22 122.02 304.66 136.19 304.66 136.9 303.22 136.9 298.9 136.19 297.46 122.02 297.46"/><rect class="d" x="123.43" y="300.35" width="1.42" height="1.42" rx="0.28"/><rect class="d" x="133.35" y="300.35" width="1.42" height="1.42" rx="0.28"/><polygon points="122.02 290.26 121.31 291.7 121.31 296.02 122.02 297.46 136.19 297.46 136.9 296.02 136.9 291.7 136.19 290.26 122.02 290.26"/><rect class="d" x="123.43" y="293.15" width="1.42" height="1.42" rx="0.28"/><rect class="d" x="133.35" y="293.15" width="1.42" height="1.42" rx="0.28"/><polygon points="122.02 283.06 121.31 284.5 121.31 288.82 122.02 290.26 136.19 290.26 136.9 288.82 136.9 284.5 136.19 283.06 122.02 283.06"/><rect class="d" x="123.43" y="285.95" width="1.42" height="1.42" rx="0.28"/><rect class="d" x="133.35" y="285.95" width="1.42" height="1.42" rx="0.28"/><polygon points="122.02 275.86 121.31 277.3 121.31 281.62 122.02 283.06 136.19 283.06 136.9 281.62 136.9 277.3 136.19 275.86 122.02 275.86"/><rect class="d" x="123.43" y="278.75" width="1.42" height="1.42" rx="0.28"/><rect class="d" x="133.35" y="278.75" width="1.42" height="1.42" rx="0.28"/><polygon points="122.02 268.66 121.31 270.1 121.31 274.42 122.02 275.86 136.19 275.86 136.9 274.42 136.9 270.1 136.19 268.66 122.02 268.66"/><rect class="d" x="123.43" y="271.55" width="1.42" height="1.42" rx="0.28"/><rect class="d" x="133.35" y="271.55" width="1.42" height="1.42" rx="0.28"/><polygon points="122.05 261.46 121.34 262.9 121.34 267.22 122.05 268.66 136.22 268.66 136.93 267.22 136.93 262.9 136.22 261.46 122.05 261.46"/><rect class="d" x="123.46" y="264.35" width="1.42" height="1.42" rx="0.28"/><rect class="d" x="133.38" y="264.35" width="1.42" height="1.42" rx="0.28"/><polygon points="122.02 254.26 121.31 255.7 121.31 260.02 122.02 261.46 136.19 261.46 136.9 260.02 136.9 255.7 136.19 254.26 122.02 254.26"/><rect class="d" x="123.43" y="257.15" width="1.42" height="1.42" rx="0.28"/><rect class="d" x="133.35" y="257.15" width="1.42" height="1.42" rx="0.28"/><polygon points="122.02 247.06 121.31 248.5 121.31 252.82 122.02 254.26 136.19 254.26 136.9 252.82 136.9 248.5 136.19 247.06 122.02 247.06"/><rect class="d" x="123.43" y="249.95" width="1.42" height="1.42" rx="0.28"/><rect class="d" x="133.35" y="249.95" width="1.42" height="1.42" rx="0.28"/><polygon points="122.02 239.86 121.31 241.3 121.31 245.62 122.02 247.06 136.19 247.06 136.9 245.62 136.9 241.3 136.19 239.86 122.02 239.86"/><rect class="d" x="123.43" y="242.75" width="1.42" height="1.42" rx="0.28"/><rect class="d" x="133.35" y="242.75" width="1.42" height="1.42" rx="0.28"/><polygon points="122.02 232.66 121.31 234.1 121.31 238.42 122.02 239.86 136.19 239.86 136.9 238.42 136.9 234.1 136.19 232.66 122.02 232.66"/><rect class="d" x="123.43" y="235.55" width="1.42" height="1.42" rx="0.28"/><rect class="d" x="133.35" y="235.55" width="1.42" height="1.42" rx="0.28"/><polygon points="122.02 225.46 121.31 226.9 121.31 231.22 122.02 232.66 136.19 232.66 136.9 231.22 136.9 226.9 136.19 225.46 122.02 225.46"/><rect class="d" x="123.43" y="228.35" width="1.42" height="1.42" rx="0.28"/><rect class="d" x="133.35" y="228.35" width="1.42" height="1.42" rx="0.28"/><polygon points="122.02 218.26 121.31 219.7 121.31 224.02 122.02 225.46 136.19 225.46 136.9 224.02 136.9 219.7 136.19 218.26 122.02 218.26"/><rect class="d" x="123.43" y="221.15" width="1.42" height="1.42" rx="0.28"/><rect class="d" x="133.35" y="221.15" width="1.42" height="1.42" rx="0.28"/><polygon points="122.02 211.06 121.31 212.5 121.31 216.82 122.02 218.26 136.19 218.26 136.9 216.82 136.9 212.5 136.19 211.06 122.02 211.06"/><rect class="d" x="123.43" y="213.95" width="1.42" height="1.42" rx="0.28"/><rect class="d" x="133.35" y="213.95" width="1.42" height="1.42" rx="0.28"/><polygon points="122.02 203.86 121.31 205.3 121.31 209.62 122.02 211.06 136.19 211.06 136.9 209.62 136.9 205.3 136.19 203.86 122.02 203.86"/><rect class="d" x="123.43" y="206.75" width="1.42" height="1.42" rx="0.28"/><rect class="d" x="133.35" y="206.75" width="1.42" height="1.42" rx="0.28"/><polygon points="122.02 196.66 121.31 198.1 121.31 202.42 122.02 203.86 136.19 203.86 136.9 202.42 136.9 198.1 136.19 196.66 122.02 196.66"/><rect class="d" x="123.43" y="199.55" width="1.42" height="1.42" rx="0.28"/><rect class="d" x="133.35" y="199.55" width="1.42" height="1.42" rx="0.28"/><polygon points="122.02 189.46 121.31 190.9 121.31 195.22 122.02 196.66 136.19 196.66 136.9 195.22 136.9 190.9 136.19 189.46 122.02 189.46"/><rect class="d" x="123.43" y="192.35" width="1.42" height="1.42" rx="0.28"/><rect class="d" x="133.35" y="192.35" width="1.42" height="1.42" rx="0.28"/><polygon points="122.02 182.26 121.31 183.7 121.31 188.02 122.02 189.46 136.19 189.46 136.9 188.02 136.9 183.7 136.19 182.26 122.02 182.26"/><rect class="d" x="123.43" y="185.15" width="1.42" height="1.42" rx="0.28"/><rect class="d" x="133.35" y="185.15" width="1.42" height="1.42" rx="0.28"/><polygon points="122.02 175.06 121.31 176.5 121.31 180.82 122.02 182.26 136.19 182.26 136.9 180.82 136.9 176.5 136.19 175.06 122.02 175.06"/><rect class="d" x="123.43" y="177.95" width="1.42" height="1.42" rx="0.28"/><rect class="d" x="133.35" y="177.95" width="1.42" height="1.42" rx="0.28"/><polygon points="122.02 167.86 121.31 169.3 121.31 173.62 122.02 175.06 136.19 175.06 136.9 173.62 136.9 169.3 136.19 167.86 122.02 167.86"/><rect class="d" x="123.43" y="170.75" width="1.42" height="1.42" rx="0.28"/><rect class="d" x="133.35" y="170.75" width="1.42" height="1.42" rx="0.28"/><polygon points="122.02 160.66 121.31 162.1 121.31 166.42 122.02 167.86 136.19 167.86 136.9 166.42 136.9 162.1 136.19 160.66 122.02 160.66"/><rect class="d" x="123.43" y="163.55" width="1.42" height="1.42" rx="0.28"/><rect class="d" x="133.35" y="163.55" width="1.42" height="1.42" rx="0.28"/><polygon points="139.44 150.46 138.73 151.9 138.73 156.22 139.44 157.66 153.61 157.66 154.32 156.22 154.32 151.9 153.61 150.46 139.44 150.46"/><rect class="d" x="140.85" y="153.35" width="1.42" height="1.42" rx="0.28"/><rect class="d" x="150.77" y="153.35" width="1.42" height="1.42" rx="0.28"/><polygon points="139.44 143.26 138.73 144.7 138.73 149.02 139.44 150.46 153.61 150.46 154.32 149.02 154.32 144.7 153.61 143.26 139.44 143.26"/><rect class="d" x="140.85" y="146.15" width="1.42" height="1.42" rx="0.28"/><rect class="d" x="150.77" y="146.15" width="1.42" height="1.42" rx="0.28"/></svg>