<svg xmlns="http://www.w3.org/2000/svg" viewBox="0 0 400 400"><defs><style>.a{fill:#7ac943;}.b{fill:#fbb03b;}.c{fill:#ffefc9;}.d{fill:#ccc;}.e{fill:#4d4d4d;}.f{fill:#b3b3b3;}.g{fill:none;stroke:#bcbcbc;stroke-miterlimit:10;stroke-width:5px;}.h{fill:#bcbcbc;}</style></defs><path class="a" d="M276.48,142.57H134.75a8.5,8.5,0,0,0-8.5,8.51V375a8.5,8.5,0,0,0,8.5,8.51H276.48A8.51,8.51,0,0,0,285,375V151.08A8.51,8.51,0,0,0,276.48,142.57ZM136.17,377.42A3.83,3.83,0,1,1,140,373.6,3.82,3.82,0,0,1,136.17,377.42Zm0-164.41a3.83,3.83,0,1,1,3.82-3.82A3.82,3.82,0,0,1,136.17,213Zm138.9,164.41a3.83,3.83,0,1,1,3.82-3.82A3.82,3.82,0,0,1,275.07,377.42Zm0-164.41a3.83,3.83,0,1,1,3.82-3.82A3.82,3.82,0,0,1,275.07,213Z"/><path class="b" d="M136.17,365.09a8.51,8.51,0,1,0,8.5,8.51A8.51,8.51,0,0,0,136.17,365.09Zm0,12.33A3.83,3.83,0,1,1,140,373.6,3.82,3.82,0,0,1,136.17,377.42Z"/><path class="b" d="M275.07,365.09a8.51,8.51,0,1,0,8.5,8.51A8.51,8.51,0,0,0,275.07,365.09Zm0,12.33a3.83,3.83,0,1,1,3.83-3.82A3.82,3.82,0,0,1,275.06,377.42Z"/><path class="b" d="M275.07,200.68a8.51,8.51,0,1,0,8.5,8.51A8.51,8.51,0,0,0,275.07,200.68Zm0,12.33a3.83,3.83,0,1,1,3.83-3.82A3.82,3.82,0,0,1,275.06,213Z"/><path class="b" d="M136.17,200.68a8.51,8.51,0,1,0,8.5,8.51A8.51,8.51,0,0,0,136.17,200.68Zm0,12.33a3.83,3.83,0,1,1,3.82-3.82A3.82,3.82,0,0,1,136.17,213Z"/><polygon points="274.29 249.17 271.39 246.02 271.39 246.03 233.39 246.03 233.39 246.02 230.49 249.17 220.5 249.17 220.5 257.39 284.28 257.39 284.28 249.17 274.29 249.17"/><rect class="c" x="229.63" y="255.28" width="45.52" height="2"/><polygon class="d" points="214.22 320.84 214.22 279.25 171.5 279.25 171.5 321.96 213.05 321.96 214.22 320.84"/><rect class="d" x="133.21" y="134.18" width="44.18" height="60.68"/><polygon class="d" points="228.29 133.94 188.61 133.94 188.61 134.82 189.22 134.82 189.22 183.77 226.69 183.77 226.69 134.82 228.29 134.82 228.29 133.94"/><polygon class="d" points="279.32 134.34 239.63 134.34 239.63 136.12 240.74 136.12 240.74 184.71 278.21 184.71 278.21 136.12 279.32 136.12 279.32 134.34"/><polygon points="183.46 374.71 186.36 377.86 186.36 377.86 224.36 377.86 224.36 377.86 227.26 374.71 237.25 374.71 237.25 366.5 173.47 366.5 173.47 374.71 183.46 374.71"/><rect class="c" x="182.6" y="366.6" width="45.52" height="2" transform="translate(410.72 735.21) rotate(180)"/><polygon class="d" points="287.19 267.05 286.35 268.27 265.17 268.27 265.17 286.17 286.34 286.17 286.34 286.17 287.19 287.38 287.85 287.38 287.85 267.05 287.19 267.05"/><polygon class="d" points="287.13 305.32 286.28 306.54 265.11 306.54 265.11 324.44 286.28 324.44 286.28 324.44 287.13 325.65 287.79 325.65 287.79 305.32 287.13 305.32"/><rect class="d" x="266.84" y="339.34" width="20" height="24.85"/><polygon points="286.86 222.45 279.43 222.45 279.43 220.39 243.43 220.39 243.43 240.51 279.43 240.51 279.43 239.45 286.86 239.45 286.86 222.45"/><polygon points="129.06 356.19 128.36 357.63 128.36 361.95 129.06 363.39 143.24 363.39 143.95 361.95 143.95 357.63 143.24 356.19 129.06 356.19"/><rect class="d" x="130.48" y="359.08" width="1.42" height="1.42" rx="0.14"/><rect class="d" x="140.4" y="359.08" width="1.42" height="1.42" rx="0.14"/><polygon points="129.06 348.99 128.36 350.43 128.36 354.75 129.06 356.19 143.24 356.19 143.95 354.75 143.95 350.43 143.24 348.99 129.06 348.99"/><rect class="d" x="130.48" y="351.88" width="1.42" height="1.42" rx="0.14"/><rect class="d" x="140.4" y="351.88" width="1.42" height="1.42" rx="0.14"/><polygon points="129.06 341.79 128.36 343.23 128.36 347.55 129.06 348.99 143.24 348.99 143.95 347.55 143.95 343.23 143.24 341.79 129.06 341.79"/><rect class="d" x="130.48" y="344.68" width="1.42" height="1.42" rx="0.14"/><rect class="d" x="140.4" y="344.68" width="1.42" height="1.42" rx="0.14"/><polygon points="129.06 334.59 128.36 336.03 128.36 340.35 129.06 341.79 143.24 341.79 143.95 340.35 143.95 336.03 143.24 334.59 129.06 334.59"/><rect class="d" x="130.48" y="337.48" width="1.42" height="1.42" rx="0.14"/><rect class="d" x="140.4" y="337.48" width="1.42" height="1.42" rx="0.14"/><polygon points="129.06 327.39 128.36 328.83 128.36 333.15 129.06 334.59 143.24 334.59 143.95 333.15 143.95 328.83 143.24 327.39 129.06 327.39"/><rect class="d" x="130.48" y="330.28" width="1.42" height="1.42" rx="0.14"/><rect class="d" x="140.4" y="330.28" width="1.42" height="1.42" rx="0.14"/><polygon points="129.09 320.19 128.38 321.63 128.38 325.95 129.09 327.39 143.27 327.39 143.98 325.95 143.98 321.63 143.27 320.19 129.09 320.19"/><rect class="d" x="130.51" y="323.08" width="1.42" height="1.42" rx="0.14"/><rect class="d" x="140.43" y="323.08" width="1.42" height="1.42" rx="0.14"/><polygon points="129.06 312.99 128.36 314.43 128.36 318.75 129.06 320.19 143.24 320.19 143.95 318.75 143.95 314.43 143.24 312.99 129.06 312.99"/><rect class="d" x="130.48" y="315.88" width="1.42" height="1.42" rx="0.14"/><rect class="d" x="140.4" y="315.88" width="1.42" height="1.42" rx="0.14"/><polygon points="129.06 305.79 128.36 307.23 128.36 311.55 129.06 312.99 143.24 312.99 143.95 311.55 143.95 307.23 143.24 305.79 129.06 305.79"/><rect class="d" x="130.48" y="308.68" width="1.42" height="1.42" rx="0.14"/><rect class="d" x="140.4" y="308.68" width="1.42" height="1.42" rx="0.14"/><polygon points="129.06 298.59 128.36 300.03 128.36 304.35 129.06 305.79 143.24 305.79 143.95 304.35 143.95 300.03 143.24 298.59 129.06 298.59"/><rect class="d" x="130.48" y="301.48" width="1.42" height="1.42" rx="0.14"/><rect class="d" x="140.4" y="301.48" width="1.42" height="1.42" rx="0.14"/><polygon points="129.06 291.39 128.36 292.83 128.36 297.15 129.06 298.59 143.24 298.59 143.95 297.15 143.95 292.83 143.24 291.39 129.06 291.39"/><rect class="d" x="130.48" y="294.28" width="1.42" height="1.42" rx="0.14"/><rect class="d" x="140.4" y="294.28" width="1.42" height="1.42" rx="0.14"/><polygon points="129.06 284.19 128.36 285.63 128.36 289.95 129.06 291.39 143.24 291.39 143.95 289.95 143.95 285.63 143.24 284.19 129.06 284.19"/><rect class="d" x="130.48" y="287.08" width="1.42" height="1.42" rx="0.14"/><rect class="d" x="140.4" y="287.08" width="1.42" height="1.42" rx="0.14"/><polygon points="129.06 276.99 128.36 278.43 128.36 282.75 129.06 284.19 143.24 284.19 143.95 282.75 143.95 278.43 143.24 276.99 129.06 276.99"/><rect class="d" x="130.48" y="279.88" width="1.42" height="1.42" rx="0.14"/><rect class="d" x="140.4" y="279.88" width="1.42" height="1.42" rx="0.14"/><polygon points="129.06 269.79 128.36 271.23 128.36 275.55 129.06 276.99 143.24 276.99 143.95 275.55 143.95 271.23 143.24 269.79 129.06 269.79"/><rect class="d" x="130.48" y="272.68" width="1.42" height="1.42" rx="0.14"/><rect class="d" x="140.4" y="272.68" width="1.42" height="1.42" rx="0.14"/><polygon points="129.06 262.59 128.36 264.03 128.36 268.35 129.06 269.79 143.24 269.79 143.95 268.35 143.95 264.03 143.24 262.59 129.06 262.59"/><rect class="d" x="130.48" y="265.48" width="1.42" height="1.42" rx="0.14"/><rect class="d" x="140.4" y="265.48" width="1.42" height="1.42" rx="0.14"/><polygon points="129.06 255.39 128.36 256.83 128.36 261.15 129.06 262.59 143.24 262.59 143.95 261.15 143.95 256.83 143.24 255.39 129.06 255.39"/><rect class="d" x="130.48" y="258.28" width="1.42" height="1.42" rx="0.14"/><rect class="d" x="140.4" y="258.28" width="1.42" height="1.42" rx="0.14"/><polygon points="129.06 248.19 128.36 249.63 128.36 253.95 129.06 255.39 143.24 255.39 143.95 253.95 143.95 249.63 143.24 248.19 129.06 248.19"/><rect class="d" x="130.48" y="251.08" width="1.42" height="1.42" rx="0.14"/><rect class="d" x="140.4" y="251.08" width="1.42" height="1.42" rx="0.14"/><polygon points="129.06 240.99 128.36 242.43 128.36 246.75 129.06 248.19 143.24 248.19 143.95 246.75 143.95 242.43 143.24 240.99 129.06 240.99"/><rect class="d" x="130.48" y="243.88" width="1.42" height="1.42" rx="0.14"/><rect class="d" x="140.4" y="243.88" width="1.42" height="1.42" rx="0.14"/><polygon points="129.06 233.79 128.36 235.23 128.36 239.55 129.06 240.99 143.24 240.99 143.95 239.55 143.95 235.23 143.24 233.79 129.06 233.79"/><rect class="d" x="130.48" y="236.68" width="1.42" height="1.42" rx="0.14"/><rect class="d" x="140.4" y="236.68" width="1.42" height="1.42" rx="0.14"/><polygon points="129.06 226.59 128.36 228.03 128.36 232.35 129.06 233.79 143.24 233.79 143.95 232.35 143.95 228.03 143.24 226.59 129.06 226.59"/><rect class="d" x="130.48" y="229.48" width="1.42" height="1.42" rx="0.14"/><rect class="d" x="140.4" y="229.48" width="1.42" height="1.42" rx="0.14"/><polygon points="129.06 219.39 128.36 220.83 128.36 225.15 129.06 226.59 143.24 226.59 143.95 225.15 143.95 220.83 143.24 219.39 129.06 219.39"/><rect class="d" x="130.48" y="222.28" width="1.42" height="1.42" rx="0.14"/><rect class="d" x="140.4" y="222.28" width="1.42" height="1.42" rx="0.14"/><polygon points="146.48 209.19 145.78 210.63 145.78 214.95 146.48 216.39 160.66 216.39 161.37 214.95 161.37 210.63 160.66 209.19 146.48 209.19"/><rect class="d" x="147.9" y="212.08" width="1.42" height="1.42" rx="0.14"/><rect class="d" x="157.82" y="212.08" width="1.42" height="1.42" rx="0.14"/><polygon points="146.48 201.99 145.78 203.43 145.78 207.75 146.48 209.19 160.66 209.19 161.37 207.75 161.37 203.43 160.66 201.99 146.48 201.99"/><rect class="d" x="147.9" y="204.88" width="1.42" height="1.42" rx="0.14"/><rect class="d" x="157.82" y="204.88" width="1.42" height="1.42" rx="0.14"/><path class="e" d="M253.5,363.56V263.33H201.26v-65H126.31v21.26h19.44V342H126.31v33.22a8.51,8.51,0,0,0,8.51,8.51h36.85V363.91h67.14v19.78h37.73a8.51,8.51,0,0,0,8.51-8.51V363.56ZM136.23,217.86a8.51,8.51,0,1,1,8.51-8.51A8.51,8.51,0,0,1,136.23,217.86Zm0,164.41a8.51,8.51,0,1,1,8.51-8.51A8.51,8.51,0,0,1,136.23,382.27ZM216.65,325H171.26v-46h45.39Zm58.48,57.32a8.51,8.51,0,1,1,8.5-8.51A8.5,8.5,0,0,1,275.13,382.27Z"/><rect x="145.84" y="202.15" width="15.59" height="14.4"/><rect class="d" x="147.97" y="212.25" width="1.42" height="1.42" rx="0.14"/><rect class="d" x="157.89" y="212.25" width="1.42" height="1.42" rx="0.14"/><rect class="d" x="147.97" y="205.05" width="1.42" height="1.42" rx="0.14"/><rect class="d" x="157.89" y="205.05" width="1.42" height="1.42" rx="0.14"/><rect x="128.44" y="341.96" width="15.59" height="21.6"/><rect class="d" x="130.56" y="359.25" width="1.42" height="1.42" rx="0.14"/><rect class="d" x="140.49" y="359.25" width="1.42" height="1.42" rx="0.14"/><rect class="d" x="130.56" y="352.05" width="1.42" height="1.42" rx="0.14"/><rect class="d" x="140.49" y="352.05" width="1.42" height="1.42" rx="0.14"/><rect class="d" x="130.56" y="344.85" width="1.42" height="1.42" rx="0.14"/><rect class="d" x="140.49" y="344.85" width="1.42" height="1.42" rx="0.14"/><polygon points="241.9 324.84 243.34 325.55 247.66 325.55 249.1 324.84 249.1 310.67 247.66 309.96 243.34 309.96 241.9 310.67 241.9 324.84"/><rect class="f" x="244.79" y="322" width="1.42" height="1.42" rx="0.14" transform="translate(-77.21 568.22) rotate(-90)"/><rect class="d" x="233.46" y="309.73" width="24.09" height="1.42" rx="0.14" transform="translate(-64.94 555.94) rotate(-90)"/><polygon points="234.7 324.84 236.14 325.55 240.46 325.55 241.9 324.84 241.9 310.67 240.46 309.96 236.14 309.96 234.7 310.67 234.7 324.84"/><rect class="f" x="237.59" y="322" width="1.42" height="1.42" rx="0.14" transform="translate(-84.41 561.02) rotate(-90)"/><rect class="d" x="226.26" y="309.73" width="24.09" height="1.42" rx="0.14" transform="translate(-72.14 548.74) rotate(-90)"/><polygon points="227.5 324.84 228.94 325.55 233.26 325.55 234.7 324.84 234.7 310.67 233.26 309.96 228.94 309.96 227.5 310.67 227.5 324.84"/><rect class="f" x="230.39" y="322" width="1.42" height="1.42" rx="0.14" transform="translate(-91.61 553.82) rotate(-90)"/><rect class="d" x="219.06" y="309.73" width="24.09" height="1.42" rx="0.14" transform="translate(-79.34 541.54) rotate(-90)"/><polygon points="220.3 324.84 221.74 325.55 226.06 325.55 227.5 324.84 227.5 310.67 226.06 309.96 221.74 309.96 220.3 310.67 220.3 324.84"/><rect class="f" x="223.19" y="322" width="1.42" height="1.42" rx="0.14" transform="translate(-98.81 546.62) rotate(-90)"/><rect class="d" x="211.86" y="309.73" width="24.09" height="1.42" rx="0.14" transform="translate(-86.54 534.34) rotate(-90)"/><polyline class="b" points="168.49 16.32 132.04 60.67 153.04 60.67 142.21 92.31 178.57 47.95 157.47 47.95"/><line class="g" x1="152.05" y1="96.31" x2="152.05" y2="117.34"/><polygon class="h" points="145.82 115.52 152.05 126.31 158.28 115.52 145.82 115.52"/></svg>