<svg xmlns="http://www.w3.org/2000/svg" viewBox="0 0 400 200"><defs><style>.a{fill:#f2f2f2;}.b,.f{fill:none;stroke-miterlimit:10;}.b{stroke:#e6e6e6;stroke-width:1.25px;}.c{fill:#7ac943;}.d{fill:#fbb03b;}.e{fill:#666;}.f{stroke:#000;stroke-width:2px;}.g{fill:#3fa9f5;}.h{fill:#ff0;}.i{fill:#ccc;}</style></defs><rect class="a" x="77.18" y="124.17" width="45.71" height="17.01"/><line class="b" x1="78.18" y1="124.17" x2="78.18" y2="141.18"/><line class="b" x1="80.75" y1="124.17" x2="80.75" y2="141.18"/><line class="b" x1="83.32" y1="124.17" x2="83.32" y2="141.18"/><line class="b" x1="85.89" y1="124.17" x2="85.89" y2="141.18"/><line class="b" x1="88.46" y1="124.17" x2="88.46" y2="141.18"/><line class="b" x1="91.04" y1="124.17" x2="91.04" y2="141.18"/><line class="b" x1="93.61" y1="124.17" x2="93.61" y2="141.18"/><line class="b" x1="96.18" y1="124.17" x2="96.18" y2="141.18"/><line class="b" x1="98.75" y1="124.17" x2="98.75" y2="141.18"/><line class="b" x1="101.32" y1="124.17" x2="101.32" y2="141.18"/><line class="b" x1="103.89" y1="124.17" x2="103.89" y2="141.18"/><line class="b" x1="106.46" y1="124.17" x2="106.46" y2="141.18"/><line class="b" x1="109.03" y1="124.17" x2="109.03" y2="141.18"/><line class="b" x1="111.6" y1="124.17" x2="111.6" y2="141.18"/><line class="b" x1="114.17" y1="124.17" x2="114.17" y2="141.18"/><line class="b" x1="116.74" y1="124.17" x2="116.74" y2="141.18"/><line class="b" x1="119.31" y1="124.17" x2="119.31" y2="141.18"/><line class="b" x1="121.88" y1="124.17" x2="121.88" y2="141.18"/><path class="c" d="M129.76,56.82H70.24a5.67,5.67,0,0,0-5.67,5.67v56.69a5.67,5.67,0,0,0,5.67,5.67h59.52a5.67,5.67,0,0,0,5.67-5.67V62.49A5.67,5.67,0,0,0,129.76,56.82ZM70.24,101.75a3.83,3.83,0,1,1,3.82-3.83A3.82,3.82,0,0,1,70.24,101.75Zm0-35.43a3.83,3.83,0,1,1,3.82-3.83A3.83,3.83,0,0,1,70.24,66.32Zm59.52,35.43a3.83,3.83,0,1,1,3.83-3.83A3.82,3.82,0,0,1,129.76,101.75Zm0-35.43a3.83,3.83,0,1,1,3.83-3.83A3.83,3.83,0,0,1,129.76,66.32Z"/><path class="d" d="M129.76,56.82h-6.32a8.49,8.49,0,0,0,12,12V62.49A5.67,5.67,0,0,0,129.76,56.82Zm0,9.5a3.83,3.83,0,1,1,3.83-3.83A3.82,3.82,0,0,1,129.76,66.32Z"/><path class="d" d="M64.57,62.49v6.33a8.49,8.49,0,0,0,12-12H70.24A5.67,5.67,0,0,0,64.57,62.49Zm9.49,0a3.83,3.83,0,1,1-3.82-3.82A3.82,3.82,0,0,1,74.06,62.49Z"/><path class="d" d="M70.24,89.42a8.46,8.46,0,0,0-5.67,2.18v12.65a8.5,8.5,0,1,0,5.67-14.83Zm0,12.33a3.83,3.83,0,1,1,3.82-3.83A3.82,3.82,0,0,1,70.24,101.75Z"/><path class="d" d="M135.43,104.25V91.6a8.51,8.51,0,1,0,0,12.65Zm-9.49-6.33a3.83,3.83,0,1,1,3.82,3.83A3.82,3.82,0,0,1,125.94,97.92Z"/><rect class="e" x="88.66" y="86.59" width="22.68" height="22.68"/><circle cx="100" cy="97.92" r="2.13"/><ellipse class="f" cx="100" cy="97.92" rx="9.63" ry="9.61"/><path class="g" d="M270.24,78.74v42.52h59.52V78.74ZM279,118.63a3.71,3.71,0,1,1,3.7-3.7A3.7,3.7,0,0,1,279,118.63Zm42,0a3.71,3.71,0,1,1,3.7-3.7A3.71,3.71,0,0,1,321,118.63Z"/><polyline points="278.4 80.47 276.96 79.77 272.64 79.77 271.2 80.47 271.2 86.85 272.64 87.56 276.96 87.56 278.4 86.85"/><line class="h" x1="271.2" y1="86.85" x2="271.2" y2="86.85"/><rect class="i" x="274.09" y="82.96" width="1.42" height="1.42" rx="0.28" transform="translate(358.47 -191.14) rotate(90)"/><polyline points="285.6 80.47 284.16 79.77 279.84 79.77 278.4 80.47 278.4 86.85 279.84 87.56 284.16 87.56 285.6 86.85"/><line class="h" x1="278.4" y1="86.85" x2="278.4" y2="86.85"/><rect class="i" x="281.29" y="82.96" width="1.42" height="1.42" rx="0.28" transform="translate(365.66 -198.33) rotate(90)"/><polyline points="292.8 80.47 291.36 79.77 287.04 79.77 285.6 80.47 285.6 86.85 287.04 87.56 291.36 87.56 292.8 86.85"/><line class="h" x1="285.6" y1="86.85" x2="285.6" y2="86.85"/><rect class="i" x="288.49" y="82.96" width="1.42" height="1.42" rx="0.28" transform="translate(372.86 -205.53) rotate(90)"/><polyline points="300 80.47 298.56 79.77 294.24 79.77 292.8 80.47 292.8 86.85 294.24 87.56 298.56 87.56 300 86.85"/><line class="h" x1="292.8" y1="86.85" x2="292.8" y2="86.85"/><rect class="i" x="295.69" y="82.96" width="1.42" height="1.42" rx="0.28" transform="translate(380.06 -212.73) rotate(90)"/><polyline points="328.8 80.47 327.36 79.77 323.04 79.77 321.6 80.47 321.6 86.85 323.04 87.56 327.36 87.56 328.8 86.85"/><line class="h" x1="321.6" y1="86.85" x2="321.6" y2="86.85"/><rect class="i" x="324.49" y="82.96" width="1.42" height="1.42" rx="0.28" transform="translate(408.86 -241.53) rotate(90)"/><polyline points="321.6 80.47 320.16 79.77 315.84 79.77 314.4 80.47 314.4 86.85 315.84 87.56 320.16 87.56 321.6 86.85"/><line class="h" x1="314.4" y1="86.85" x2="314.4" y2="86.85"/><rect class="i" x="317.29" y="82.96" width="1.42" height="1.42" rx="0.28" transform="translate(401.66 -234.33) rotate(90)"/><polyline points="314.4 80.47 312.96 79.77 308.64 79.77 307.2 80.47 307.2 86.85 308.64 87.56 312.96 87.56 314.4 86.85"/><line class="h" x1="307.2" y1="86.85" x2="307.2" y2="86.85"/><rect class="i" x="310.09" y="82.96" width="1.42" height="1.42" rx="0.28" transform="translate(394.46 -227.13) rotate(90)"/><polyline points="307.2 80.47 305.76 79.77 301.44 79.77 300 80.47 300 86.85 301.44 87.56 305.76 87.56 307.2 86.85"/><line class="h" x1="300" y1="86.85" x2="300" y2="86.85"/><rect class="i" x="302.89" y="82.96" width="1.42" height="1.42" rx="0.28" transform="translate(387.26 -219.93) rotate(90)"/></svg>