<svg xmlns="http://www.w3.org/2000/svg" viewBox="0 0 600 400"><defs><style>.a{fill:#333;}.b{fill:#bdccd4;opacity:0.5;}.c{fill:#f2f2f2;}.d,.h{fill:none;stroke-miterlimit:10;}.d{stroke:#e6e6e6;stroke-width:1.25px;}.e{fill:#7ac943;}.f{fill:#fbb03b;}.g{fill:#666;}.h{stroke:#000;stroke-width:2px;}</style></defs><path class="a" d="M394.3,169.28H329.1a9.92,9.92,0,0,0-9.92,9.92v65.19a9.92,9.92,0,0,0,9.92,9.92h65.2a9.92,9.92,0,0,0,9.92-9.92V179.2A9.92,9.92,0,0,0,394.3,169.28Zm1.79,3.57a4.72,4.72,0,1,1-4.71,4.72A4.71,4.71,0,0,1,396.09,172.85Zm-68,.43a4.71,4.71,0,1,1-4.71,4.71A4.71,4.71,0,0,1,328.06,173.28Zm-.75,77.46A4.72,4.72,0,1,1,332,246,4.71,4.71,0,0,1,327.31,250.74Zm68-.43a4.71,4.71,0,1,1,4.71-4.71A4.71,4.71,0,0,1,395.34,250.31Zm-33.64,2.11a40.63,40.63,0,1,1,40.62-40.63A40.62,40.62,0,0,1,361.7,252.42Z"/><path class="a" d="M392.91,189a35.16,35.16,0,0,0-18.77-13.35c1.21,1.68-2.17,16.73-2.18,16.79a22.1,22.1,0,0,0-9.46-2.64h0l.63-16.79A35.16,35.16,0,0,0,341,179.38c2.07.09,11.71,12.1,11.77,12.17a22.21,22.21,0,0,0-8,5.78l0,0-12.75-11a35.1,35.1,0,0,0-8.83,21.28c1.37-1.57,16.86-1.62,16.86-1.62v0a22.49,22.49,0,0,0-.81,5.95,21.65,21.65,0,0,0,.35,3.89l0,0-16.51,3.13a35.15,35.15,0,0,0,11.13,20.17c-.37-2,9.25-14.18,9.25-14.18v0a22.28,22.28,0,0,0,7.37,6.51L343,246.26a35.26,35.26,0,0,0,22.71,3.88c-1.83-1-5.33-16.08-5.33-16.08h0q.52,0,1.05,0a22.08,22.08,0,0,0,8.62-1.74q3.38,7.69,6.73,15.39A35.21,35.21,0,0,0,394,232.4c-1.91.82-15.89-5.85-15.89-5.85h0a22.24,22.24,0,0,0,4.7-8.65v0L399,222.26a35.13,35.13,0,0,0-1.27-23c-.56,2-14.49,8.77-14.49,8.77v0a22,22,0,0,0-3.84-9.07l0,0Z"/><path class="a" d="M227.13,169.28h-65.2A9.92,9.92,0,0,0,152,179.2v65.19a9.92,9.92,0,0,0,9.92,9.92h65.2a9.92,9.92,0,0,0,9.92-9.92V179.2A9.92,9.92,0,0,0,227.13,169.28Zm1.79,3.57a4.72,4.72,0,1,1-4.71,4.72A4.71,4.71,0,0,1,228.92,172.85Zm-68,.43a4.71,4.71,0,1,1-4.71,4.71A4.71,4.71,0,0,1,160.89,173.28Zm-.75,77.46a4.72,4.72,0,1,1,4.71-4.72A4.71,4.71,0,0,1,160.14,250.74Zm68-.43a4.71,4.71,0,1,1,4.71-4.71A4.71,4.71,0,0,1,228.17,250.31Zm-33.64,2.11a40.63,40.63,0,1,1,40.62-40.63A40.63,40.63,0,0,1,194.53,252.42Z"/><path class="a" d="M225.74,189A35.16,35.16,0,0,0,207,175.67c1.22,1.68-2.17,16.73-2.18,16.79a22.1,22.1,0,0,0-9.46-2.64h0q.3-8.4.62-16.79a35.1,35.1,0,0,0-22.14,6.35c2.06.09,11.71,12.1,11.76,12.17a22.21,22.21,0,0,0-8,5.78l0,0-12.75-11a35.26,35.26,0,0,0-8.83,21.28c1.37-1.57,16.86-1.62,16.86-1.62v0a22.09,22.09,0,0,0-.82,5.95,21.65,21.65,0,0,0,.35,3.89v0l-16.51,3.13a35.07,35.07,0,0,0,11.12,20.17c-.37-2,9.25-14.18,9.25-14.18v0a22.28,22.28,0,0,0,7.37,6.51l-7.85,14.86a35.29,35.29,0,0,0,22.71,3.88c-1.83-1-5.32-16.08-5.32-16.08h0q.52,0,1.05,0a22.08,22.08,0,0,0,8.62-1.74l6.74,15.39a35.24,35.24,0,0,0,17.18-15.34c-1.91.82-15.89-5.85-15.89-5.85h0a22.11,22.11,0,0,0,4.7-8.65v0l16.23,4.33a35.13,35.13,0,0,0-1.27-23C230,201.26,216,208,216,208v0A22,22,0,0,0,212.2,199l0,0Z"/><path class="b" d="M120,38V362H480V38ZM451.4,53.48a3.83,3.83,0,1,1-3.83,3.83A3.83,3.83,0,0,1,451.4,53.48Zm0,121a3.83,3.83,0,1,1-3.83,3.82A3.83,3.83,0,0,1,451.4,174.46ZM395.72,174a3.83,3.83,0,1,1-3.83,3.83A3.83,3.83,0,0,1,395.72,174Zm-111.17.51a3.83,3.83,0,1,1-3.83,3.82A3.83,3.83,0,0,1,284.55,174.46Zm-56-.51a3.83,3.83,0,1,1-3.83,3.83A3.83,3.83,0,0,1,228.55,174ZM145.68,346.52a3.83,3.83,0,1,1,3.83-3.83A3.83,3.83,0,0,1,145.68,346.52Zm-3.85-168.24a3.83,3.83,0,1,1,3.82,3.83A3.82,3.82,0,0,1,141.83,178.28Zm3.85-117.15a3.83,3.83,0,1,1,3.83-3.82A3.83,3.83,0,0,1,145.68,61.13Zm14.84,188.51a3.83,3.83,0,1,1,3.82-3.83A3.83,3.83,0,0,1,160.52,249.64Zm0-68a3.83,3.83,0,1,1,3.82-3.83A3.83,3.83,0,0,1,160.52,181.61Zm64.2,64.2a3.83,3.83,0,1,1,3.83,3.83A3.83,3.83,0,0,1,224.72,245.81Zm7.32,63a3.83,3.83,0,1,1,3.83-3.82A3.83,3.83,0,0,1,232,308.82Zm0-35.43a3.83,3.83,0,1,1,3.83-3.83A3.83,3.83,0,0,1,232,273.39ZM235.79,234a1.5,1.5,0,0,1,1.5-1.5h49a1.5,1.5,0,0,1,0,3h-49A1.51,1.51,0,0,1,235.79,234Zm48.76,112.5a3.83,3.83,0,1,1,3.83-3.83A3.83,3.83,0,0,1,284.55,346.52Zm7-37.7a3.83,3.83,0,1,1,3.82-3.82A3.82,3.82,0,0,1,291.57,308.82Zm0-35.43a3.83,3.83,0,1,1,3.82-3.83A3.82,3.82,0,0,1,291.57,273.39Zm20.93,73.13a3.83,3.83,0,1,1,3.83-3.83A3.82,3.82,0,0,1,312.5,346.52Zm0-164.41a3.83,3.83,0,1,1,3.83-3.83A3.82,3.82,0,0,1,312.5,182.11Zm15.18,67.53a3.83,3.83,0,1,1,3.83-3.83A3.83,3.83,0,0,1,327.68,249.64Zm0-68a3.83,3.83,0,1,1,3.83-3.83A3.83,3.83,0,0,1,327.68,181.61Zm64.21,64.2a3.83,3.83,0,1,1,3.83,3.83A3.83,3.83,0,0,1,391.89,245.81Zm7.18,63A3.83,3.83,0,1,1,402.9,305,3.83,3.83,0,0,1,399.07,308.82Zm0-35.43a3.83,3.83,0,1,1,3.83-3.83A3.83,3.83,0,0,1,399.07,273.39ZM402.83,234a1.5,1.5,0,0,1,1.5-1.5h49a1.5,1.5,0,0,1,0,3h-49A1.51,1.51,0,0,1,402.83,234Zm48.57,112.5a3.83,3.83,0,1,1,3.83-3.83A3.83,3.83,0,0,1,451.4,346.52Zm7.2-37.7a3.83,3.83,0,1,1,3.83-3.82A3.82,3.82,0,0,1,458.6,308.82Zm0-35.43a3.83,3.83,0,1,1,3.83-3.83A3.82,3.82,0,0,1,458.6,273.39Z"/><rect class="c" x="238.91" y="226.31" width="45.71" height="17.01" transform="translate(523.52 469.63) rotate(-180)"/><line class="d" x1="283.61" y1="243.32" x2="283.61" y2="226.31"/><line class="d" x1="281.04" y1="243.32" x2="281.04" y2="226.31"/><line class="d" x1="278.47" y1="243.32" x2="278.47" y2="226.31"/><line class="d" x1="275.9" y1="243.32" x2="275.9" y2="226.31"/><line class="d" x1="273.33" y1="243.32" x2="273.33" y2="226.31"/><line class="d" x1="270.76" y1="243.32" x2="270.76" y2="226.31"/><line class="d" x1="268.19" y1="243.32" x2="268.19" y2="226.31"/><line class="d" x1="265.62" y1="243.32" x2="265.62" y2="226.31"/><line class="d" x1="263.05" y1="243.32" x2="263.05" y2="226.31"/><line class="d" x1="260.48" y1="243.32" x2="260.48" y2="226.31"/><line class="d" x1="257.91" y1="243.32" x2="257.91" y2="226.31"/><line class="d" x1="255.34" y1="243.32" x2="255.34" y2="226.31"/><line class="d" x1="252.77" y1="243.32" x2="252.77" y2="226.31"/><line class="d" x1="250.19" y1="243.32" x2="250.19" y2="226.31"/><line class="d" x1="247.62" y1="243.32" x2="247.62" y2="226.31"/><line class="d" x1="245.05" y1="243.32" x2="245.05" y2="226.31"/><line class="d" x1="242.48" y1="243.32" x2="242.48" y2="226.31"/><line class="d" x1="239.91" y1="243.32" x2="239.91" y2="226.31"/><path class="e" d="M232,310.67h59.53a5.67,5.67,0,0,0,5.67-5.67V248.3a5.67,5.67,0,0,0-5.67-5.67H232a5.67,5.67,0,0,0-5.67,5.67V305A5.67,5.67,0,0,0,232,310.67Zm59.53-44.93a3.83,3.83,0,1,1-3.83,3.82A3.83,3.83,0,0,1,291.56,265.74Zm0,35.43a3.83,3.83,0,1,1-3.83,3.83A3.83,3.83,0,0,1,291.56,301.17ZM232,265.74a3.83,3.83,0,1,1-3.83,3.82A3.82,3.82,0,0,1,232,265.74Zm0,35.43A3.83,3.83,0,1,1,228.2,305,3.82,3.82,0,0,1,232,301.17Z"/><path class="f" d="M232,310.67h6.33a8.5,8.5,0,0,0-12-12V305A5.67,5.67,0,0,0,232,310.67Zm0-9.5a3.83,3.83,0,1,1-3.82,3.83A3.82,3.82,0,0,1,232,301.17Z"/><path class="f" d="M297.23,305v-6.33a8.5,8.5,0,0,0-12,12h6.33A5.67,5.67,0,0,0,297.23,305Zm-9.5,0a3.83,3.83,0,1,1,3.83,3.82A3.83,3.83,0,0,1,287.73,305Z"/><path class="f" d="M291.56,278.07a8.48,8.48,0,0,0,5.67-2.18V263.24a8.5,8.5,0,1,0-5.67,14.83Zm0-12.33a3.83,3.83,0,1,1-3.83,3.82A3.83,3.83,0,0,1,291.56,265.74Z"/><path class="f" d="M226.36,263.24v12.65a8.51,8.51,0,1,0,0-12.65Zm9.5,6.32a3.83,3.83,0,1,1-3.83-3.82A3.82,3.82,0,0,1,235.86,269.56Z"/><rect class="g" x="250.46" y="258.22" width="22.68" height="22.68" transform="translate(523.59 539.13) rotate(-180)"/><circle cx="261.8" cy="269.56" r="2.13"/><ellipse class="h" cx="261.8" cy="269.56" rx="9.63" ry="9.61"/><rect class="c" x="405.95" y="226.31" width="45.71" height="17.01" transform="translate(857.6 469.63) rotate(-180)"/><line class="d" x1="450.65" y1="243.32" x2="450.65" y2="226.31"/><line class="d" x1="448.08" y1="243.32" x2="448.08" y2="226.31"/><line class="d" x1="445.51" y1="243.32" x2="445.51" y2="226.31"/><line class="d" x1="442.94" y1="243.32" x2="442.94" y2="226.31"/><line class="d" x1="440.37" y1="243.32" x2="440.37" y2="226.31"/><line class="d" x1="437.8" y1="243.32" x2="437.8" y2="226.31"/><line class="d" x1="435.23" y1="243.32" x2="435.23" y2="226.31"/><line class="d" x1="432.66" y1="243.32" x2="432.66" y2="226.31"/><line class="d" x1="430.09" y1="243.32" x2="430.09" y2="226.31"/><line class="d" x1="427.52" y1="243.32" x2="427.52" y2="226.31"/><line class="d" x1="424.95" y1="243.32" x2="424.95" y2="226.31"/><line class="d" x1="422.38" y1="243.32" x2="422.38" y2="226.31"/><line class="d" x1="419.8" y1="243.32" x2="419.8" y2="226.31"/><line class="d" x1="417.23" y1="243.32" x2="417.23" y2="226.31"/><line class="d" x1="414.66" y1="243.32" x2="414.66" y2="226.31"/><line class="d" x1="412.09" y1="243.32" x2="412.09" y2="226.31"/><line class="d" x1="409.52" y1="243.32" x2="409.52" y2="226.31"/><line class="d" x1="406.95" y1="243.32" x2="406.95" y2="226.31"/><path class="e" d="M399.07,310.67H458.6a5.67,5.67,0,0,0,5.67-5.67V248.3a5.67,5.67,0,0,0-5.67-5.67H399.07a5.67,5.67,0,0,0-5.67,5.67V305A5.67,5.67,0,0,0,399.07,310.67Zm59.53-44.93a3.83,3.83,0,1,1-3.83,3.82A3.83,3.83,0,0,1,458.6,265.74Zm0,35.43a3.83,3.83,0,1,1-3.83,3.83A3.83,3.83,0,0,1,458.6,301.17Zm-59.53-35.43a3.83,3.83,0,1,1-3.83,3.82A3.83,3.83,0,0,1,399.07,265.74Zm0,35.43a3.83,3.83,0,1,1-3.83,3.83A3.83,3.83,0,0,1,399.07,301.17Z"/><path class="f" d="M399.07,310.67h6.33a8.5,8.5,0,0,0-12-12V305A5.67,5.67,0,0,0,399.07,310.67Zm0-9.5a3.83,3.83,0,1,1-3.82,3.83A3.82,3.82,0,0,1,399.07,301.17Z"/><path class="f" d="M464.27,305v-6.33a8.5,8.5,0,0,0-12,12h6.33A5.67,5.67,0,0,0,464.27,305Zm-9.5,0a3.83,3.83,0,1,1,3.83,3.82A3.83,3.83,0,0,1,454.77,305Z"/><path class="f" d="M458.6,278.07a8.48,8.48,0,0,0,5.67-2.18V263.24a8.5,8.5,0,1,0-5.67,14.83Zm0-12.33a3.83,3.83,0,1,1-3.83,3.82A3.83,3.83,0,0,1,458.6,265.74Z"/><path class="f" d="M393.4,263.24v12.65a8.51,8.51,0,1,0,0-12.65Zm9.5,6.32a3.83,3.83,0,1,1-3.83-3.82A3.82,3.82,0,0,1,402.9,269.56Z"/><rect class="g" x="417.5" y="258.22" width="22.68" height="22.68" transform="translate(857.67 539.13) rotate(-180)"/><circle cx="428.83" cy="269.56" r="2.13"/><ellipse class="h" cx="428.83" cy="269.56" rx="9.63" ry="9.61"/></svg>