<svg xmlns="http://www.w3.org/2000/svg" viewBox="0 0 400 400"><defs><style>.a{fill:none;stroke:#000;stroke-miterlimit:10;stroke-width:5px;}</style></defs><path d="M289.29,139.72c11,24.91,20.63,54,31.1,81.67,13.71,36.23,25.93,70.17,35.95,103.32a5.1,5.1,0,0,1-.9,1.85,2.68,2.68,0,0,1-2.63-1c-17.9-33.43-35.05-68.23-52.59-104.81-11.63-24.24-24.94-48-35.33-71.39,1.55.52,8.32,1.65,13.57.12C284.28,147.78,288.44,141,289.29,139.72Z"/><path class="a" d="M271.61,72.31c.38,2.54,1,6.67,2,11.75,2.79,14.89,6,26.55,10.22,41.38,1.08,3.83,2.68,9.4,4.71,16.15a13.34,13.34,0,0,1-9.86,10.16c-6.64,1.62-11.9-2.5-12.42-2.93q-15.81-33.28-31.63-66.58A59.57,59.57,0,0,0,260,78.47,56.12,56.12,0,0,0,271.61,72.31Z"/><path d="M273.55,73.11c-2.3,2.34-10.17,5.53-18,7.9-9.29,2.81-19,2.63-22.29,1.76-2.55-3.59-3.47-8.71-6.25-12.41q-3.72-5-7.4-9.6a17,17,0,0,0,4.47,2.93c.33.15.65.28,1,.4a30.41,30.41,0,0,1-2.73-4.4,28.33,28.33,0,0,1-2.54-7.61,18.36,18.36,0,0,1,.25-4.41,15.45,15.45,0,0,1,3.78-8.15A21.39,21.39,0,0,1,231.35,35a33.34,33.34,0,0,1,12.79-3.48,34.16,34.16,0,0,1,9.89.79,25.41,25.41,0,0,1,9.14,8.13,24.14,24.14,0,0,1,3.52,8,66.42,66.42,0,0,1,2.74,9.87C270.45,63.49,273.62,69.32,273.55,73.11Z"/><path d="M268.31,183.41c-5.19-14-14.52-26.1-19.6-34.37-9.92-16.16-42.36-39.1-59.69-46.8-10.2-4.53-26.69-10.11-43.7-11-56-3.07-90.26,30.22-99.42,44.85C34.16,154.82,26,171.73,30.74,210.92a110.75,110.75,0,0,0,14.18,42.67C52.3,266,60,276,68.39,282.6c8.06,6.34,19.52,17.61,32.8,25.58,14.1,8.46,30.08,13.54,40.58,16.4,11.22,3.06,30.1,5.57,47.82,3.17A103.44,103.44,0,0,0,227.88,314c3.46-2.14,5.63-4.66,9-13.59,1.83-4.93.89-15.57-.93-21-3.64-10.85-12.63-32.42-13.1-43.85-.13-3.25.44-10.29,4.42-12.24,1.4-.69,4.67-1.81,6.12-1.24,3.24,1.26,7.13,6.1,9,8.6,2.63,3.52,6.14,12,9.53,14.79,2.5,2.08,4.38,5.31,12.63,3.1,4.68-1.25,8.46-7.22,9.4-10.65C277.45,225,275.47,202.78,268.31,183.41ZM53.4,199.5a21,21,0,1,1,21,21A21,21,0,0,1,53.4,199.5Zm51.5,74a21,21,0,1,1,21-21A21,21,0,0,1,104.9,273.46Zm5.29-109a21,21,0,1,1,21-21A21,21,0,0,1,110.19,164.46ZM175.4,166a21,21,0,1,1,21-21A21,21,0,0,1,175.4,166Z"/></svg>