<svg xmlns="http://www.w3.org/2000/svg" viewBox="0 0 400 400"><defs><style>.a{fill:none;stroke:#000;stroke-miterlimit:10;stroke-width:5px;}</style></defs><path d="M219,237.22c-22.66-22.64-45.79-50.51-69.13-76.41C119.24,126.88,91.27,94.8,66,62.6a6.18,6.18,0,0,1,.14-2.47c.36-.53,2.27-.77,3.25-.08,33.83,28.92,67.45,59.7,102.28,92.27,23.07,21.58,47.73,41.82,69.14,63.07-1.89.13-9.62,2-14.56,6.06C220.77,226,219.33,235.46,219,237.22Z"/><path class="a" d="M267.48,303.93c-1.52-2.64-4-6.93-7.28-12.13-9.52-15.25-18.13-26.7-29.11-41.24-2.84-3.76-7-9.2-12.13-15.76A16.27,16.27,0,0,1,225,219c6.39-4.83,13.81-2.66,14.55-2.43L302.66,276a68.22,68.22,0,0,0-25.48,15.76A67.27,67.27,0,0,0,267.48,303.93Z"/><path d="M265.05,303.93c1.44-3.65,8.45-10.78,15.77-17,8.69-7.36,19.16-11.59,23.05-12.13,4.3,2.83,7.54,8.09,12.13,10.92q6.13,3.79,12.13,7.28a19.3,19.3,0,0,0-6.07-1.22h-1.21a34.36,34.36,0,0,1,4.85,3.64,33.56,33.56,0,0,1,6.07,7.28,22.31,22.31,0,0,1,1.66,5,19.26,19.26,0,0,1-.45,10.77,25.38,25.38,0,0,1-6.07,8.49,38.56,38.56,0,0,1-23,13.34,28.63,28.63,0,0,1-13.34-4.85,28.24,28.24,0,0,1-7.28-7.28,78.36,78.36,0,0,1-7.28-9.7C272.6,313.19,266.65,308.16,265.05,303.93Z"/></svg>