<svg xmlns="http://www.w3.org/2000/svg" viewBox="0 0 400 400"><defs><style>.a{fill:#fff;}</style></defs><path class="a" d="M126.66,228.48c0,24,9.43,47.15,27.43,65.15a93,93,0,0,0,65.15,27.43Z"/><path d="M200,80C134,80,80,134,80,200s54,120,120,120,120-54,120-120S266,80,200,80ZM133.14,266.87a93,93,0,0,1-27.43-65.14l93.43,92.57C175.14,293.44,151.14,284.87,133.14,266.87Zm87.43,24.86L108.29,179.44c9.42-42,47.14-73.71,91.71-73.71a94.55,94.55,0,0,1,76.29,38.57l-12.86,11.14c-14.57-19.71-37.72-32.57-63.43-32.57-33.43,0-61.71,21.43-72.86,51.43l98.57,98.57c24.86-8.57,43.72-30,49.72-55.71H234.29V200h60C294.29,244.58,262.57,282.3,220.57,291.73Z"/></svg>