<svg xmlns="http://www.w3.org/2000/svg" viewBox="0 0 400 400"><defs><style>.a{fill-rule:evenodd;}</style></defs><path class="a" d="M200,80a123.05,123.05,0,0,0-38.88,239.79c6.15,1.13,8.4-2.67,8.4-5.93,0-2.92-.11-10.66-.17-20.93-34.22,7.44-41.45-16.49-41.45-16.49-5.59-14.22-13.66-18-13.66-18-11.17-7.63.85-7.48.85-7.48,12.35.87,18.84,12.68,18.84,12.68,11,18.8,28.8,13.37,35.81,10.22,1.12-7.95,4.3-13.37,7.81-16.44-27.32-3.11-56-13.67-56-60.81a47.55,47.55,0,0,1,12.66-33c-1.26-3.11-5.48-15.62,1.21-32.56,0,0,10.33-3.31,33.83,12.61a116.68,116.68,0,0,1,61.61,0c23.49-15.92,33.8-12.61,33.8-12.61,6.71,16.94,2.49,29.45,1.23,32.56a47.49,47.49,0,0,1,12.64,33c0,47.26-28.76,57.66-56.17,60.71,4.41,3.8,8.35,11.31,8.35,22.78,0,16.45-.15,29.72-.15,33.76,0,3.29,2.21,7.12,8.46,5.91A123.05,123.05,0,0,0,200,80Z"/></svg>