<svg xmlns="http://www.w3.org/2000/svg" viewBox="0 0 400 400"><path d="M332.5,320A16.5,16.5,0,1,1,349,303.5,16.52,16.52,0,0,1,332.5,320Zm0-31A14.5,14.5,0,1,0,347,303.5,14.51,14.51,0,0,0,332.5,289Z"/><path d="M326.9,294.79h5.9c3.66,0,6.5,1.29,6.5,5.24,0,3.79-2.84,5.51-6.5,5.51h-2.74v6.89H326.9Zm5.57,8.24c2.42,0,3.74-1,3.74-3s-1.32-2.73-3.74-2.73h-2.41V303Zm2-.21,5.51,9.61h-3.53l-4.26-7.73Z"/><path d="M288,80H84A17,17,0,0,0,67,97V301a17,17,0,0,0,17,17H288a17,17,0,0,0,17-17V97A17,17,0,0,0,288,80ZM138,283H102V169h36ZM120.5,154A20.5,20.5,0,1,1,141,133.5,20.5,20.5,0,0,1,120.5,154ZM270,222v61H235V222c-.29-.94,0-23.09-19-24-19.77-.95-20.91,21.9-21,23v62H160V169h35v15c.67-2.09,12.59-18.19,32-18C247,166.2,272,174,270,222Z"/></svg>